<svg xmlns="http://www.w3.org/2000/svg" viewBox="0 0 446.81 409.61"><defs><style>.cls-1{fill:#f5f5f5;}.cls-2{fill:#e0e0e0;}.cls-18,.cls-20,.cls-23,.cls-3{fill:#27debf;}.cls-4{opacity:0.3;}.cls-11,.cls-17,.cls-22,.cls-24,.cls-26,.cls-5{fill:#fff;}.cls-6{opacity:0.15;}.cls-7{fill:#37474f;}.cls-8{fill:#455a64;}.cls-9{fill:#263238;}.cls-10{fill:#fafafa;}.cls-11,.cls-21{opacity:0.5;}.cls-12,.cls-23,.cls-26{opacity:0.4;}.cls-13,.cls-20{opacity:0.2;}.cls-14,.cls-18{opacity:0.1;}.cls-15{fill:#ebebeb;}.cls-16{opacity:0.7;}.cls-17{opacity:0.8;}.cls-19{opacity:0.05;}.cls-22{opacity:0.6;}.cls-24{opacity:0.35;}.cls-25{fill:#f0f0f0;}.cls-27{opacity:0.25;}</style></defs><title>checkmail</title><g id="Floor"><path id="Floor-2" data-name="Floor" class="cls-1" d="M408,253c87.24,51.25,87.24,134.33,0,185.58s-228.7,51.25-315.94,0S4.79,304.25,92,253,320.73,201.76,408,253Z" transform="translate(-26.6 -67.41)"/></g><g id="Shadows"><path id="Shadow" class="cls-2" d="M94,345.91c12.93,7.46,12.93,19.56,0,27s-33.89,7.46-46.81,0-12.93-19.56,0-27S81,338.44,94,345.91Z" transform="translate(-26.6 -67.41)"/><path id="Shadow-2" data-name="Shadow" class="cls-2" d="M122.34,363.06l117.26,67.7a9.57,9.57,0,0,0,8.66,0l198.5-114.61c2.39-1.38,2.39-3.62,0-5L329.5,243.45a9.57,9.57,0,0,0-8.66,0L122.34,358.06C119.94,359.44,119.94,361.68,122.34,363.06Z" transform="translate(-26.6 -67.41)"/></g><g id="Plants"><g id="Plants-2" data-name="Plants"><g id="_Group_" data-name="&lt;Group&gt;"><g id="_Group_2" data-name="&lt;Group&gt;"><path id="_Path_" data-name="&lt;Path&gt;" class="cls-3" d="M418.28,291.88l-8.17-4.72s-4.86-20.2-2.92-38.38c2.72-25.56,16.48-36.69,25.95-33,6.3,2.48,8.25,9.64-2.34,24.86C424.55,249.65,416.88,268.35,418.28,291.88Z" transform="translate(-26.6 -67.41)"/></g><g id="_Group_3" data-name="&lt;Group&gt;" class="cls-4"><path id="_Path_2" data-name="&lt;Path&gt;" d="M418.28,291.88l-8.17-4.72s-4.86-20.2-2.92-38.38c2.72-25.56,16.48-36.69,25.95-33,6.3,2.48,8.25,9.64-2.34,24.86C424.55,249.65,416.88,268.35,418.28,291.88Z" transform="translate(-26.6 -67.41)"/></g><g id="_Group_4" data-name="&lt;Group&gt;"><path id="_Path_3" data-name="&lt;Path&gt;" class="cls-5" d="M414.89,282H415a.57.57,0,0,0,.45-.66c-4.48-23.57,3.76-50.07,14-61.09a.57.57,0,0,0-.83-.77c-10.38,11.22-18.78,38.15-14.24,62.07A.57.57,0,0,0,414.89,282Z" transform="translate(-26.6 -67.41)"/></g></g><g id="_Group_5" data-name="&lt;Group&gt;"><g id="_Group_6" data-name="&lt;Group&gt;"><path id="_Path_4" data-name="&lt;Path&gt;" class="cls-3" d="M439.68,304.24c1.29.66,4.72-2.28,5.68-3a12,12,0,0,0,3.75-4.77,11.23,11.23,0,0,0,.66-6.79,26.57,26.57,0,0,0-1-3.54l-1.17-3.43a8.82,8.82,0,0,1-.69-3.48c.18-2.39,2.21-4.17,4.06-5.7,2-1.7,4.15-3.91,4-6.77a10.09,10.09,0,0,0-2.82-5.87c-1.46-1.66-3.16-3.11-4.49-4.88a7,7,0,0,1-1.67-4.38,7.34,7.34,0,0,1,.83-2.83c.92-1.92,2.16-3.69,2.76-5.73s.37-4.52-1.26-5.88c-1.34-1.11-3.26-1.18-5-1a11.32,11.32,0,0,0-4.5,1.84c-4.42,2.76-6.74,8.27-11.47,10.46a48.34,48.34,0,0,1-5.77,1.72c-1.91.61-3.84,1.7-4.65,3.54-1.59,3.63,1.91,7.82.86,11.63-.93,3.38-4.1,4.81-5.76,7.9a7.11,7.11,0,0,0-.63,4.39,20.89,20.89,0,0,0,2.2,7.26,65.58,65.58,0,0,0,4.36,6.71S439.48,304.14,439.68,304.24Z" transform="translate(-26.6 -67.41)"/></g><g id="_Group_7" data-name="&lt;Group&gt;" class="cls-6"><path id="_Path_5" data-name="&lt;Path&gt;" d="M439.68,304.24c1.29.66,4.72-2.28,5.68-3a12,12,0,0,0,3.75-4.77,11.23,11.23,0,0,0,.66-6.79,26.57,26.57,0,0,0-1-3.54l-1.17-3.43a8.82,8.82,0,0,1-.69-3.48c.18-2.39,2.21-4.17,4.06-5.7,2-1.7,4.15-3.91,4-6.77a10.09,10.09,0,0,0-2.82-5.87c-1.46-1.66-3.16-3.11-4.49-4.88a7,7,0,0,1-1.67-4.38,7.34,7.34,0,0,1,.83-2.83c.92-1.92,2.16-3.69,2.76-5.73s.37-4.52-1.26-5.88c-1.34-1.11-3.26-1.18-5-1a11.32,11.32,0,0,0-4.5,1.84c-4.42,2.76-6.74,8.27-11.47,10.46a48.34,48.34,0,0,1-5.77,1.72c-1.91.61-3.84,1.7-4.65,3.54-1.59,3.63,1.91,7.82.86,11.63-.93,3.38-4.1,4.81-5.76,7.9a7.11,7.11,0,0,0-.63,4.39,20.89,20.89,0,0,0,2.2,7.26,65.58,65.58,0,0,0,4.36,6.71S439.48,304.14,439.68,304.24Z" transform="translate(-26.6 -67.41)"/></g><g id="_Group_8" data-name="&lt;Group&gt;"><path id="_Path_6" data-name="&lt;Path&gt;" class="cls-5" d="M427.17,297.72h0a.57.57,0,0,0,.52-.62c-2.07-22.42,7.27-47.76,14.6-55.36a.57.57,0,1,0-.82-.79c-7.48,7.75-17,33.51-14.92,56.25A.57.57,0,0,0,427.17,297.72Z" transform="translate(-26.6 -67.41)"/></g><g id="_Group_9" data-name="&lt;Group&gt;"><path id="_Path_7" data-name="&lt;Path&gt;" class="cls-5" d="M429.4,270.07l.17,0a76.08,76.08,0,0,1,16.17-3.45.57.57,0,0,0,.51-.62.55.55,0,0,0-.62-.51A77.42,77.42,0,0,0,429.18,269a.57.57,0,0,0,.22,1.1Z" transform="translate(-26.6 -67.41)"/></g></g></g></g><g id="Device"><g id="Laptop"><path id="_Path_8" data-name="&lt;Path&gt;" class="cls-7" d="M126.34,350.62a10.61,10.61,0,0,0,4.95,8.21L239,421a10.93,10.93,0,0,0,9.89,0L438.5,311.53a9.29,9.29,0,0,0,0-16.43L330.81,232.92a10.93,10.93,0,0,0-9.89,0L131.29,342.4A10.6,10.6,0,0,0,126.34,350.62Z" transform="translate(-26.6 -67.41)"/><path id="_Path_9" data-name="&lt;Path&gt;" class="cls-8" d="M131.29,348.11,239,410.3a10.93,10.93,0,0,0,9.89,0L438.5,300.82c2.73-1.58,2.73-4.13,0-5.71L330.81,232.92a10.93,10.93,0,0,0-9.89,0L131.29,342.4C128.56,344,128.56,346.54,131.29,348.11Z" transform="translate(-26.6 -67.41)"/><path id="_Path_10" data-name="&lt;Path&gt;" class="cls-9" d="M243.93,411.49v10.7A10.09,10.09,0,0,1,239,421L131.29,358.83a9.26,9.26,0,0,1-.5-16.11c-2.22,1.59-2,3.92.5,5.39L239,410.31A10.09,10.09,0,0,0,243.93,411.49Z" transform="translate(-26.6 -67.41)"/><path id="_Path_11" data-name="&lt;Path&gt;" class="cls-7" d="M121.7,342.58c-2.56-1.48-2.42-4-2.42-7.13V186.7a10.93,10.93,0,0,1,4.95-8.57L313.86,68.65a10.61,10.61,0,0,1,9.59-.18c2.56,1.48,2.42,4,2.42,7.13V224.35a10.93,10.93,0,0,1-4.95,8.57L131.29,342.4A10.61,10.61,0,0,1,121.7,342.58Z" transform="translate(-26.6 -67.41)"/><path id="_Path_12" data-name="&lt;Path&gt;" class="cls-8" d="M325.87,75.6c0-3.15-2.22-4.42-4.95-2.86L131.29,182.24a10,10,0,0,0-3.49,3.7l-7.06-4.11h0a10.14,10.14,0,0,1,3.5-3.7L313.85,68.65a10.6,10.6,0,0,1,9.59-.18C326,70,325.87,72.45,325.87,75.6Z" transform="translate(-26.6 -67.41)"/><path id="_Path_13" data-name="&lt;Path&gt;" class="cls-9" d="M130.71,342.7a10.63,10.63,0,0,1-9-.13c-2.56-1.47-2.42-4-2.42-7.13V186.7a10,10,0,0,1,1.45-4.87l7.06,4.09h0a10.14,10.14,0,0,0-1.45,4.87V339.55C126.34,342.47,128.25,343.79,130.71,342.7Z" transform="translate(-26.6 -67.41)"/><path id="_Path_14" data-name="&lt;Path&gt;" class="cls-10" d="M134,187.94,316.78,82.41c1.64-.95,3-.18,3,1.71V214a6.56,6.56,0,0,1-3,5.14L134,324.64c-1.64.95-3,.18-3-1.71V193.08A6.56,6.56,0,0,1,134,187.94Z" transform="translate(-26.6 -67.41)"/><path id="_Path_15" data-name="&lt;Path&gt;" class="cls-9" d="M145,342.7,321,241.07a5.47,5.47,0,0,1,4.95,0l2.93,1.61c1.37.79,1.37,2.07,0,2.86l-176,101.61a5.47,5.47,0,0,1-4.95,0l-2.9-1.59C143.61,344.76,143.61,343.48,145,342.7Z" transform="translate(-26.6 -67.41)"/><g id="_Group_10" data-name="&lt;Group&gt;"><path id="_Path_16" data-name="&lt;Path&gt;" class="cls-9" d="M158.78,350.9l176-101.62a5,5,0,0,1,4.52-.25l45.81,26.45c1.13.65.94,1.82-.43,2.61L208.9,379.58a5.07,5.07,0,0,1-4.52.25l-46-26.33C157.23,352.86,157.42,351.69,158.78,350.9Z" transform="translate(-26.6 -67.41)"/><path id="_Compound_Path_" data-name="&lt;Compound Path&gt;" class="cls-8" d="M311.3,292l5.51-3.18c.23-.14.26-.34,0-.46l-5.27-3a.89.89,0,0,0-.8,0l-5.51,3.18c-.23.13-.26.34,0,.46l5.27,3A.89.89,0,0,0,311.3,292Zm-8-11-5.51,3.18c-.23.14-.26.34,0,.46l5.27,3a.89.89,0,0,0,.8,0l5.51-3.18c.23-.14.26-.34,0-.46l-5.27-3A.89.89,0,0,0,303.26,281Zm-17.8,10.28-9.33,5.38c-.23.13-.26.34,0,.46l5.27,3a.89.89,0,0,0,.8,0l9.33-5.38c.23-.13.26-.34,0-.46l-5.27-3A.89.89,0,0,0,285.45,291.24Zm9.75-5.63-5.51,3.18c-.23.13-.26.34,0,.46l5.27,3a.89.89,0,0,0,.8,0l5.51-3.18c.23-.14.26-.34,0-.46l-5.27-3A.89.89,0,0,0,295.2,285.61Zm-21.62,12.48-5.51,3.18c-.23.14-.26.34,0,.46l5.27,3a.89.89,0,0,0,.8,0l5.51-3.18c.23-.13.25-.34,0-.46l-5.27-3A.89.89,0,0,0,273.58,298.09Zm-8.05,4.65L260,305.92c-.23.14-.26.34,0,.46l5.27,3a.89.89,0,0,0,.8,0l5.51-3.18c.23-.14.26-.34,0-.46l-5.27-3A.89.89,0,0,0,265.53,302.74Zm20.67,12.42,5.51-3.18c.23-.13.26-.34,0-.46l-5.27-3a.89.89,0,0,0-.8,0l-5.51,3.18c-.23.14-.26.34,0,.46l5.27,3A.89.89,0,0,0,286.19,315.16Zm-8.05,4.65,5.51-3.18c.23-.14.26-.34,0-.46l-5.27-3a.89.89,0,0,0-.8,0l-5.51,3.18c-.23.13-.26.34,0,.46l5.27,3A.89.89,0,0,0,278.14,319.81Zm-8.05,4.65,5.51-3.18c.23-.13.26-.34,0-.46l-5.27-3a.89.89,0,0,0-.8,0L264.06,321c-.23.14-.26.34,0,.46l5.27,3A.89.89,0,0,0,270.08,324.46ZM262,329.11l5.51-3.18c.23-.13.26-.34,0-.46l-5.27-3a.89.89,0,0,0-.8,0L256,325.63c-.23.13-.26.34,0,.46l5.27,3A.89.89,0,0,0,262,329.11Zm41.22-32.5,5.51-3.18c.23-.13.26-.34,0-.46l-5.27-3a.89.89,0,0,0-.8,0l-5.51,3.18c-.23.14-.26.34,0,.46l5.27,3A.89.89,0,0,0,303.25,296.61Zm-9,13.89,12.29-7.1c.23-.14.26-.34,0-.46l-12.8-7.39a.89.89,0,0,0-.8,0l-6.36,3.67c-.23.14-.26.34,0,.46l6.78,3.91c.21.12.19.33,0,.46L288.22,307c-.23.13-.26.34,0,.46l5.27,3A.89.89,0,0,0,294.25,310.51Zm-36.78-3.12L252,310.57c-.23.13-.26.34,0,.46l5.27,3a.89.89,0,0,0,.8,0l5.51-3.18c.23-.14.26-.34,0-.46l-5.27-3A.89.89,0,0,0,257.47,307.39ZM249.42,312l-5.51,3.18c-.23.14-.26.34,0,.46l5.27,3a.89.89,0,0,0,.8,0l5.51-3.18c.23-.13.26-.34,0-.46l-5.27-3A.89.89,0,0,0,249.42,312Zm-44.57,49.65a.89.89,0,0,0,.8,0l5.51-3.18c.23-.14.26-.34,0-.46l-5.27-3a.89.89,0,0,0-.8,0l-5.51,3.18c-.23.14-.26.34,0,.46ZM185,349.24l-5.51,3.18c-.23.13-.26.34,0,.46l5.27,3a.89.89,0,0,0,.8,0l5.51-3.18c.23-.13.26-.34,0-.46l-5.27-3A.89.89,0,0,0,185,349.24Zm10.21,9.32a.89.89,0,0,0,.8,0l5.51-3.18c.23-.13.25-.34,0-.46l-5.27-3a.89.89,0,0,0-.8,0L190,355.06c-.23.14-.26.34,0,.46Zm22.22,5,5.51-3.18c.23-.14.26-.34,0-.46l-5.27-3a.89.89,0,0,0-.8,0l-5.51,3.18c-.23.13-.26.34,0,.46l5.27,3A.89.89,0,0,0,217.42,363.56Zm-8.85,4.68a.89.89,0,0,0,.8,0l5.51-3.18c.23-.13.26-.34,0-.46l-5.27-3a.89.89,0,0,0-.8,0l-5.51,3.18c-.23.13-.26.34,0,.46ZM193,344.59l-5.51,3.18c-.23.14-.25.34,0,.46l5.27,3a.89.89,0,0,0,.8,0l5.51-3.18c.23-.14.26-.34,0-.46l-5.27-3A.89.89,0,0,0,193,344.59Zm40.27-23.25-5.51,3.18c-.23.14-.26.34,0,.46l5.27,3a.89.89,0,0,0,.8,0l5.51-3.18c.23-.13.25-.34,0-.46l-5.27-3A.89.89,0,0,0,233.31,321.34Zm-32.22,18.6-5.51,3.18c-.23.13-.26.34,0,.46l5.27,3a.89.89,0,0,0,.8,0l5.51-3.18c.23-.14.26-.34,0-.46l-5.27-3A.89.89,0,0,0,201.09,339.94Zm40.27-23.25-5.51,3.18c-.23.13-.26.34,0,.46l5.27,3a.89.89,0,0,0,.8,0l5.51-3.18c.23-.14.26-.34,0-.46l-5.27-3A.89.89,0,0,0,241.36,316.69ZM225.25,326l-5.51,3.18c-.23.13-.26.34,0,.46l5.27,3a.89.89,0,0,0,.8,0l5.51-3.18c.23-.13.26-.34,0-.46l-5.27-3A.89.89,0,0,0,225.25,326Zm-8.05,4.65-5.51,3.18c-.23.13-.26.34,0,.46l5.27,3a.89.89,0,0,0,.8,0l5.51-3.18c.23-.14.25-.34,0-.46l-5.27-3A.89.89,0,0,0,217.2,330.64Zm-8.05,4.65-5.51,3.18c-.23.14-.26.34,0,.46l5.27,3a.89.89,0,0,0,.8,0l5.51-3.18c.23-.13.26-.34,0-.46l-5.27-3A.89.89,0,0,0,209.15,335.29Zm36.77,3.12,5.51-3.18c.23-.13.26-.34,0-.46l-5.27-3a.89.89,0,0,0-.8,0l-5.51,3.18c-.23.14-.25.34,0,.46l5.27,3A.89.89,0,0,0,245.92,338.41Zm75.14-67.74-5.51,3.18c-.23.14-.26.34,0,.46l5.27,3a.89.89,0,0,0,.8,0l5.51-3.18c.23-.14.25-.34,0-.46l-5.27-3A.89.89,0,0,0,321.06,270.68Zm-9.75,5.63-5.51,3.18c-.23.13-.26.34,0,.46l5.27,3a.89.89,0,0,0,.8,0l5.51-3.18c.23-.14.26-.34,0-.46l-5.27-3A.89.89,0,0,0,311.31,276.3ZM329.12,266l-5.51,3.18c-.23.13-.26.34,0,.46l5.27,3a.89.89,0,0,0,.8,0l5.51-3.18c.23-.14.26-.34,0-.46l-5.27-3A.89.89,0,0,0,329.12,266ZM284.6,307.38l5.51-3.18c.23-.14.26-.34,0-.46l-5.27-3a.89.89,0,0,0-.8,0l-5.51,3.18c-.23.14-.26.34,0,.46l5.27,3A.89.89,0,0,0,284.6,307.38Zm53.38-46a.89.89,0,0,0-.8,0l-5.51,3.18c-.23.14-.26.34,0,.46l5.27,3a.89.89,0,0,0,.8,0l5.51-3.18c.23-.14.26-.34,0-.46Zm-84,72.41,5.51-3.18c.23-.14.26-.34,0-.46l-5.27-3a.89.89,0,0,0-.8,0l-5.51,3.18c-.23.13-.26.34,0,.46l5.27,3A.89.89,0,0,0,254,333.76Zm98.78-57,5.51-3.18c.23-.14.26-.34,0-.46L353,270a.89.89,0,0,0-.8,0l-5.51,3.18c-.23.13-.26.34,0,.46l5.27,3A.89.89,0,0,0,352.75,276.73Zm-15.59.3,5.51-3.18c.23-.13.26-.34,0-.46l-5.27-3a.89.89,0,0,0-.8,0l-5.51,3.18c-.23.14-.26.34,0,.46l5.27,3A.89.89,0,0,0,337.16,277Zm8.34-11.34a.89.89,0,0,0-.8,0l-5.51,3.18c-.23.13-.26.34,0,.46l5.27,3a.89.89,0,0,0,.8,0l5.51-3.18c.23-.14.26-.34,0-.46Zm1.7-1,12.8,7.39a.89.89,0,0,0,.8,0l5.51-3.18c.23-.14.26-.34,0-.46L353.56,261a.89.89,0,0,0-.8,0l-5.51,3.18C347,264.39,347,264.6,347.2,264.72ZM328.59,275l-5.51,3.18c-.23.13-.26.34,0,.46l5.27,3a.89.89,0,0,0,.8,0l5.51-3.18c.23-.14.26-.34,0-.46l-5.27-3A.89.89,0,0,0,328.59,275ZM268,310l-5.51,3.18c-.23.14-.26.34,0,.46l5.27,3a.89.89,0,0,0,.8,0L274,313.5c.23-.14.25-.34,0-.46l-5.27-3A.89.89,0,0,0,268,310Zm75.92-28.61a.89.89,0,0,0,.8,0l5.51-3.18c.23-.14.26-.34,0-.46l-5.27-3a.89.89,0,0,0-.8,0l-5.51,3.18c-.23.13-.26.34,0,.46Zm-67.87,24-5.51,3.18c-.23.14-.26.34,0,.46l5.27,3a.89.89,0,0,0,.8,0l5.51-3.18c.23-.14.26-.34,0-.46l-5.27-3A.89.89,0,0,0,276,305.37ZM212.9,357a.89.89,0,0,0,.8,0l5.51-3.18c.23-.14.25-.34,0-.46l-5.27-3a.89.89,0,0,0-.8,0l-5.51,3.18c-.23.14-.26.34,0,.46Zm-9.37-9.81L198,350.41c-.23.13-.26.34,0,.46l5.27,3a.89.89,0,0,0,.8,0l5.51-3.18c.23-.14.26-.34,0-.46l-5.27-3A.89.89,0,0,0,203.54,347.23Zm18.22,5.14,5.51-3.18c.23-.14.26-.34,0-.46l-5.27-3a.89.89,0,0,0-.8,0l-5.51,3.18c-.23.13-.26.34,0,.46l5.27,3A.89.89,0,0,0,221.76,352.36Zm8.05-4.65,5.51-3.18c.23-.14.26-.34,0-.46l-5.27-3a.89.89,0,0,0-.8,0l-5.51,3.18c-.23.14-.26.34,0,.46l5.27,3A.89.89,0,0,0,229.81,347.71Zm8.05-4.65,5.51-3.18c.23-.14.26-.34,0-.46l-5.27-3a.89.89,0,0,0-.8,0l-5.51,3.18c-.23.14-.26.34,0,.46l5.27,3A.89.89,0,0,0,237.87,343.06Zm-26.28-.48-5.51,3.18c-.23.14-.26.34,0,.46l5.27,3a.89.89,0,0,0,.8,0l5.51-3.18c.23-.14.26-.34,0-.46l-5.27-3A.89.89,0,0,0,211.59,342.58Zm8.05-4.65-5.51,3.18c-.23.14-.26.34,0,.46l5.27,3a.89.89,0,0,0,.8,0l5.51-3.18c.23-.13.26-.34,0-.46l-5.27-3A.89.89,0,0,0,219.65,337.93Zm32.22-18.6-5.51,3.18c-.23.14-.26.34,0,.46l5.27,3a.89.89,0,0,0,.8,0l5.51-3.18c.23-.14.26-.34,0-.46l-5.27-3A.89.89,0,0,0,251.86,319.33ZM243.81,324l-5.51,3.18c-.23.13-.26.34,0,.46l5.27,3a.89.89,0,0,0,.8,0l5.51-3.18c.23-.14.26-.34,0-.46l-5.27-3A.89.89,0,0,0,243.81,324Zm16.11-9.3-5.51,3.18c-.23.14-.26.34,0,.46l5.27,3a.89.89,0,0,0,.8,0l5.51-3.18c.23-.13.25-.34,0-.46l-5.27-3A.89.89,0,0,0,259.92,314.67Zm-32.22,18.6-5.51,3.18c-.23.13-.26.34,0,.46l5.27,3a.89.89,0,0,0,.8,0l5.51-3.18c.23-.14.26-.34,0-.46l-5.27-3A.89.89,0,0,0,227.7,333.28Zm8.05-4.65-5.51,3.18c-.23.14-.26.34,0,.46l5.27,3a.89.89,0,0,0,.8,0l5.51-3.18c.23-.14.26-.34,0-.46l-5.27-3A.89.89,0,0,0,235.75,328.63Zm-10.28,30.29,5.51-3.18c.23-.14.26-.34,0-.46l-5.27-3a.89.89,0,0,0-.8,0l-5.51,3.18c-.23.14-.26.34,0,.46l5.27,3A.89.89,0,0,0,225.47,358.91Zm-42.47-2-5.27-3a.89.89,0,0,0-.8,0l-5.51,3.18c-.23.13-.26.34,0,.46l5.27,3a.89.89,0,0,0,.8,0l5.51-3.18C183.19,357.24,183.21,357,183,356.91Zm10.5,2.64-5.27-3a.89.89,0,0,0-.8,0l-8.48,4.89c-.23.14-.26.34,0,.46l5.27,3a.89.89,0,0,0,.8,0l8.48-4.9C193.69,359.87,193.71,359.66,193.5,359.54Zm-18.37-8.65-5.27-3a.89.89,0,0,0-.8,0l-6.78,3.92c-.23.13-.26.34,0,.46l5.27,3a.89.89,0,0,0,.8,0l6.78-3.92C175.32,351.22,175.34,351,175.13,350.9Zm5.2-3a.89.89,0,0,0,.8,0l5.51-3.18c.23-.13.26-.34,0-.46l-5.27-3a.89.89,0,0,0-.8,0l-5.51,3.18c-.23.14-.26.34,0,.46Zm22.82,14.77-5.27-3a.89.89,0,0,0-.8,0l-10.6,6.12c-.23.14-.26.34,0,.46l5.27,3a.89.89,0,0,0,.8,0l10.6-6.12C203.34,363,203.36,362.79,203.15,362.67Zm3.72,6.55-5.27-3a.89.89,0,0,0-.8,0L194,370.12c-.23.14-.26.34,0,.46l5.27,3a.89.89,0,0,0,.8,0l6.78-3.92C207.05,369.55,207.08,369.34,206.87,369.22Zm33.35-55.9a.89.89,0,0,0,.8,0l5.51-3.18c.23-.13.26-.34,0-.46l-5.27-3a.89.89,0,0,0-.8,0L235,309.81c-.23.14-.26.34,0,.46Zm-16.11,9.3a.89.89,0,0,0,.8,0l5.51-3.18c.23-.13.26-.34,0-.46l-5.27-3a.89.89,0,0,0-.8,0l-5.51,3.18c-.23.14-.26.34,0,.46Zm-35.72,20.62a.89.89,0,0,0,.8,0L194.7,340c.23-.14.26-.34,0-.46l-5.27-3a.89.89,0,0,0-.8,0l-5.51,3.18c-.23.13-.26.34,0,.46ZM232.16,318a.89.89,0,0,0,.8,0l5.51-3.18c.23-.13.26-.34,0-.46l-5.27-3a.89.89,0,0,0-.8,0l-5.51,3.18c-.23.14-.26.34,0,.46Zm-16.11,9.3a.89.89,0,0,0,.8,0l5.51-3.18c.23-.13.26-.34,0-.46l-5.27-3a.89.89,0,0,0-.8,0l-5.51,3.18c-.23.14-.26.34,0,.46Zm-5.23,42.28a.89.89,0,0,0-.8,0l-8.48,4.9c-.23.13-.26.34,0,.46l5.27,3a.89.89,0,0,0,.8,0l8.48-4.89c.23-.13.26-.34,0-.46Zm-6.33-35.6a.89.89,0,0,0,.8,0l5.51-3.18c.23-.14.26-.34,0-.46l-5.27-3a.89.89,0,0,0-.8,0l-5.51,3.18c-.23.14-.26.34,0,.46Zm-8.05,4.65a.89.89,0,0,0,.8,0l5.51-3.18c.23-.14.26-.34,0-.46l-5.27-3a.89.89,0,0,0-.8,0l-5.51,3.18c-.23.14-.26.34,0,.46ZM360,283.39a.89.89,0,0,0-.8,0l-13.57,7.83c-.23.14-.26.34,0,.46l5.27,3a.89.89,0,0,0,.8,0l13.57-7.83c.23-.13.26-.34,0-.46Zm-17.8,10.28a.89.89,0,0,0-.8,0l-5.51,3.18c-.23.14-.26.34,0,.46l5.27,3a.89.89,0,0,0,.8,0l5.51-3.18c.23-.13.26-.34,0-.46ZM233.53,354.26l5.51-3.18c.23-.14.26-.34,0-.46l-5.27-3a.89.89,0,0,0-.8,0l-5.51,3.18c-.23.14-.26.34,0,.46l5.27,3A.89.89,0,0,0,233.53,354.26ZM326.13,303a.89.89,0,0,0-.8,0l-5.51,3.18c-.23.14-.26.34,0,.46l5.27,3a.89.89,0,0,0,.8,0l5.51-3.18c.23-.14.26-.34,0-.46Zm42-24.23a.89.89,0,0,0-.8,0L361.79,282c-.23.13-.26.34,0,.46l5.27,3a.89.89,0,0,0,.8,0l5.51-3.18c.23-.14.26-.34,0-.46Zm13.33-1.61-12.8-7.39a.89.89,0,0,0-.8,0L362.31,273c-.23.14-.26.34,0,.46l12.8,7.39a.89.89,0,0,0,.8,0l5.51-3.18C381.61,277.46,381.64,277.26,381.43,277.14ZM296,320.35a.89.89,0,0,0-.8,0l-6.78,3.92c-.23.13-.26.34,0,.46l5.27,3a.89.89,0,0,0,.8,0l6.78-3.92c.23-.13.26-.34,0-.46Zm20.35-11.75a.89.89,0,0,0-.8,0l-8.48,4.9c-.23.13-.26.34,0,.46l5.27,3a.89.89,0,0,0,.8,0l8.48-4.9c.23-.14.26-.34,0-.46Zm-39,22.52a.89.89,0,0,0-.8,0l-45.36,26.19c-.23.14-.26.34,0,.46l5.27,3a.89.89,0,0,0,.8,0l45.36-26.19c.23-.14.26-.34,0-.46Zm-47.9,27.66a.89.89,0,0,0-.8,0l-6.78,3.92c-.23.13-.26.34,0,.46l5.27,3a.89.89,0,0,0,.8,0l6.78-3.92c.23-.13.25-.34,0-.46Zm57.23-33a.89.89,0,0,0-.8,0l-6.78,3.92c-.23.14-.26.34,0,.46l5.27,3a.89.89,0,0,0,.8,0l6.78-3.92c.23-.13.26-.34,0-.46Zm-66.56,38.43a.89.89,0,0,0-.8,0l-6.78,3.92c-.23.14-.26.34,0,.46l5.27,3a.89.89,0,0,0,.8,0l6.78-3.92c.23-.14.26-.34,0-.46ZM305.36,315a.89.89,0,0,0-.8,0l-6.78,3.92c-.23.14-.26.34,0,.46l5.27,3a.89.89,0,0,0,.8,0l6.78-3.92c.23-.14.26-.34,0-.46Zm28.83-16.64a.89.89,0,0,0-.8,0l-5.51,3.18c-.23.14-.26.34,0,.46l5.27,3a.89.89,0,0,0,.8,0l5.51-3.18c.23-.14.26-.34,0-.46Zm18-12.59,5.51-3.18c.23-.14.26-.34,0-.46l-5.27-3a.89.89,0,0,0-.8,0l-5.51,3.18c-.23.14-.26.34,0,.46l5.27,3A.89.89,0,0,0,352.23,285.73Zm-32.87,1.58,5.51-3.18c.23-.13.26-.34,0-.46l-5.27-3a.89.89,0,0,0-.8,0l-5.51,3.18c-.23.14-.26.34,0,.46l5.27,3A.89.89,0,0,0,319.36,287.31ZM298,317.06l16.11-9.3c.23-.14.25-.34,0-.46l-5.27-3a.89.89,0,0,0-.8,0l-16.11,9.3c-.23.13-.26.34,0,.46l5.27,3A.89.89,0,0,0,298,317.06Zm45.41-26.65a.89.89,0,0,0,.8,0l5.51-3.18c.23-.14.26-.34,0-.46l-5.27-3a.89.89,0,0,0-.8,0l-5.51,3.18c-.23.13-.25.34,0,.46ZM336.64,286l5.51-3.18c.23-.13.26-.34,0-.46l-5.27-3a.89.89,0,0,0-.8,0l-5.51,3.18c-.23.14-.26.34,0,.46l5.27,3A.89.89,0,0,0,336.64,286Zm-46.73,35.68,5.51-3.18c.23-.14.26-.34,0-.46l-5.27-3a.89.89,0,0,0-.8,0l-5.51,3.18c-.23.13-.26.34,0,.46l5.27,3A.89.89,0,0,0,289.91,321.71Zm35.66-21a.89.89,0,0,0,.8,0l5.51-3.18c.23-.13.26-.34,0-.46l-5.27-3a.89.89,0,0,0-.8,0l-5.51,3.18c-.23.14-.26.34,0,.46ZM249.64,345l5.51-3.18c.23-.13.25-.34,0-.46l-5.27-3a.89.89,0,0,0-.8,0l-5.51,3.18c-.23.14-.26.34,0,.46l5.27,3A.89.89,0,0,0,249.64,345Zm8.05-4.65,5.51-3.18c.23-.14.26-.34,0-.46l-5.27-3a.89.89,0,0,0-.8,0l-5.51,3.18c-.23.13-.26.34,0,.46l5.27,3A.89.89,0,0,0,257.69,340.31Zm-16.11,9.3,5.51-3.18c.23-.13.26-.34,0-.46l-5.27-3a.89.89,0,0,0-.8,0l-5.51,3.18c-.23.14-.26.34,0,.46l5.27,3A.89.89,0,0,0,241.58,349.61ZM273.8,331l5.51-3.18c.23-.14.26-.34,0-.46l-5.27-3a.89.89,0,0,0-.8,0l-5.51,3.18c-.23.13-.26.34,0,.46l5.27,3A.89.89,0,0,0,273.8,331Zm-8.05,4.65,5.51-3.18c.23-.13.26-.34,0-.46L266,329a.89.89,0,0,0-.8,0l-5.51,3.18c-.23.14-.26.34,0,.46l5.27,3A.89.89,0,0,0,265.75,335.66Zm16.11-9.3,5.51-3.18c.23-.13.26-.34,0-.46l-5.27-3a.89.89,0,0,0-.8,0l-5.51,3.18c-.23.13-.26.34,0,.46l5.27,3A.89.89,0,0,0,281.86,326.36Zm44-64.69a.89.89,0,0,0,.8,0l5.51-3.18c.23-.14.25-.34,0-.46l-1.4-.81a.89.89,0,0,0-.8,0l-5.51,3.18c-.23.13-.25.34,0,.46Zm-40,25.35a.89.89,0,0,0,.8,0l5.51-3.18c.23-.13.26-.34,0-.46l-5.27-3a.89.89,0,0,0-.8,0l-5.51,3.18c-.23.14-.26.34,0,.46Zm16.11-9.3a.89.89,0,0,0,.8,0l5.51-3.18c.23-.14.26-.34,0-.46L303,271a.89.89,0,0,0-.8,0l-5.51,3.18c-.23.13-.26.34,0,.46Zm-25.94,15a.89.89,0,0,0,.8,0l5.51-3.18c.23-.13.26-.34,0-.46L277,286a.89.89,0,0,0-.8,0l-5.51,3.18c-.23.14-.26.34,0,.46Zm17.89-10.33a.89.89,0,0,0,.8,0l5.51-3.18c.23-.13.26-.34,0-.46l-5.27-3a.89.89,0,0,0-.8,0l-5.51,3.18c-.23.14-.26.34,0,.46Zm-34,19.63a.89.89,0,0,0,.8,0l5.51-3.18c.23-.14.26-.34,0-.46l-5.27-3a.89.89,0,0,0-.8,0l-5.51,3.18c-.23.14-.25.34,0,.46Zm8.05-4.65a.89.89,0,0,0,.8,0l5.51-3.18c.23-.14.25-.34,0-.46l-5.27-3a.89.89,0,0,0-.8,0l-5.51,3.18c-.23.14-.26.34,0,.46ZM309.7,271a.89.89,0,0,0,.8,0l5.51-3.18c.23-.13.25-.34,0-.46l-1.4-.81a.89.89,0,0,0-.8,0l-5.51,3.18c-.23.14-.26.34,0,.46Zm24.16-14a.89.89,0,0,0,.8,0l5.51-3.18c.23-.14.26-.34,0-.46l-1.4-.81a.89.89,0,0,0-.8,0l-5.51,3.18c-.23.14-.26.34,0,.46Zm11.08,6.39a.89.89,0,0,0,.8,0l5.51-3.18c.23-.14.26-.34,0-.46l-5.27-3a.89.89,0,0,0-.8,0l-5.51,3.18c-.23.14-.26.34,0,.46Zm15.34,17.67,5.51-3.18c.23-.13.26-.34,0-.46l-5.27-3a.89.89,0,0,0-.8,0l-5.51,3.18c-.23.14-.26.34,0,.46l5.27,3A.89.89,0,0,0,360.28,281.08Zm-42.53-14.76a.89.89,0,0,0,.8,0l5.51-3.18c.23-.14.26-.34,0-.46l-1.4-.81a.89.89,0,0,0-.8,0L316.4,265c-.23.14-.26.34,0,.46Zm-66,40.33a.89.89,0,0,0,.8,0l5.51-3.18c.23-.14.26-.34,0-.46l-5.27-3a.89.89,0,0,0-.8,0l-5.51,3.18c-.23.13-.25.34,0,.46Z" transform="translate(-26.6 -67.41)"/></g><polygon id="_Path_17" data-name="&lt;Path&gt;" class="cls-7" points="249.02 280.77 250.15 281.43 280.16 298.75 333.54 267.93 334.65 267.3 303.5 249.32 249.02 280.77"/><g id="_Group_11" data-name="&lt;Group&gt;"><polygon id="_Path_18" data-name="&lt;Path&gt;" class="cls-9" points="250.15 281.43 280.16 298.75 333.54 267.93 303.5 250.61 250.15 281.43"/></g></g></g><g id="Mail_Box" data-name="Mail Box"><g id="MailBox"><path class="cls-3" d="M107.06,213.2l-12.23-7.06c-.54-.31-.94-.39-1.15-.27l-1.49.86c-.26.15-.26.59.07,1.27l3,6.16-2.22,2a1.73,1.73,0,0,0,.32,2.94l12.23,7.06,1.49-.86Z" transform="translate(-26.6 -67.41)"/><path class="cls-11" d="M107.06,213.2l-12.23-7.06c-.54-.31-.94-.39-1.15-.27l-1.49.86c-.26.15-.26.59.07,1.27l3,6.16-2.22,2a1.73,1.73,0,0,0,.32,2.94l12.23,7.06,1.49-.86Z" transform="translate(-26.6 -67.41)"/><path id="_Path_19" data-name="&lt;Path&gt;" class="cls-3" d="M93.34,207c-1.2-.69-1.68-.24-1.08,1l3,6.16-2.22,2a1.73,1.73,0,0,0,.32,2.94l12.23,7.06V214.07Z" transform="translate(-26.6 -67.41)"/><g id="_Group_12" data-name="&lt;Group&gt;"><path id="_Path_20" data-name="&lt;Path&gt;" class="cls-8" d="M107,252.11a1.44,1.44,0,0,1-1.44-1.44V210.05a1.44,1.44,0,1,1,2.87,0v40.62A1.44,1.44,0,0,1,107,252.11Z" transform="translate(-26.6 -67.41)"/></g><path id="_Path_21" data-name="&lt;Path&gt;" class="cls-9" d="M54.39,360.27v-2.54H55a10,10,0,0,1,4.11-4c6.32-3.65,16.56-3.65,22.88,0a10,10,0,0,1,4.11,4h.62v2.46c.05,2.43-1.52,4.86-4.73,6.72-6.32,3.65-16.56,3.65-22.88,0C55.95,365.08,54.37,362.67,54.39,360.27Z" transform="translate(-26.6 -67.41)"/><path id="_Path_22" data-name="&lt;Path&gt;" class="cls-8" d="M82,351.13c-6.32-3.65-16.56-3.65-22.88,0s-6.32,9.56,0,13.21,16.56,3.65,22.88,0S88.32,354.78,82,351.13Z" transform="translate(-26.6 -67.41)"/><path id="_Path_23" data-name="&lt;Path&gt;" class="cls-7" d="M74.73,269.77v86.85a2.07,2.07,0,0,1-1.22,1.7,6.51,6.51,0,0,1-5.89,0,2.07,2.07,0,0,1-1.22-1.7V269.77Z" transform="translate(-26.6 -67.41)"/><polygon id="_Path_24" data-name="&lt;Path&gt;" class="cls-9" points="39.8 212.87 39.8 221.04 48.13 225.83 48.13 217.69 39.8 212.87"/><path class="cls-3" d="M96.6,262l15.4,8.9a1.11,1.11,0,0,1-.3.31L84.76,286.77c-.23.13-.41,0-.41-.24V267.12a30.31,30.31,0,0,1,2.25-10.88Z" transform="translate(-26.6 -67.41)"/><path class="cls-12" d="M96.6,262l15.4,8.9a1.11,1.11,0,0,1-.3.31L84.76,286.77c-.23.13-.41,0-.41-.24V267.12a30.31,30.31,0,0,1,2.25-10.88Z" transform="translate(-26.6 -67.41)"/><path id="_Path_25" data-name="&lt;Path&gt;" class="cls-3" d="M112.12,249.25V271L86.6,256.24l.08-.21C89.42,249.19,94,243.4,99,240.52a11.68,11.68,0,0,1,5.77-1.79C109.31,238.73,112.12,242.76,112.12,249.25Z" transform="translate(-26.6 -67.41)"/><path id="_Path_26" data-name="&lt;Path&gt;" class="cls-4" d="M112.12,249.25V271L86.6,256.24l.08-.21C89.42,249.19,94,243.4,99,240.52a11.68,11.68,0,0,1,5.77-1.79C109.31,238.73,112.12,242.76,112.12,249.25Z" transform="translate(-26.6 -67.41)"/><g id="_Group_13" data-name="&lt;Group&gt;"><path id="_Path_27" data-name="&lt;Path&gt;" class="cls-3" d="M139.83,295.22v-1.94h-.18v.28a8.39,8.39,0,0,0-.51-1.57c-1-2.38-3.16-4.66-6.44-6.55l-18.23-10.53a3,3,0,0,0-2.75,0L83.84,291a4,4,0,0,1-.89-1v2h0a1,1,0,0,0,.57.79l18.23,10.53a34.84,34.84,0,0,0,17.44,4.12,30.3,30.3,0,0,0,14.51-3.53c4.1-2.36,6.12-5.48,6.12-8.67Z" transform="translate(-26.6 -67.41)"/><path id="_Path_28" data-name="&lt;Path&gt;" class="cls-12" d="M139.83,295.22v-1.94h-.18v.28a8.39,8.39,0,0,0-.51-1.57c-1-2.38-3.16-4.66-6.44-6.55l-18.23-10.53a3,3,0,0,0-2.75,0L83.84,291a4,4,0,0,1-.89-1v2h0a1,1,0,0,0,.57.79l18.23,10.53a34.84,34.84,0,0,0,17.44,4.12,30.3,30.3,0,0,0,14.51-3.53c4.1-2.36,6.12-5.48,6.12-8.67Z" transform="translate(-26.6 -67.41)"/><path id="_Compound_Path_2" data-name="&lt;Compound Path&gt;" class="cls-3" d="M139.14,292c-1-2.38-3.16-4.66-6.44-6.55l-18.23-10.53a3,3,0,0,0-2.75,0L83.84,291l17.91,10.34a34.84,34.84,0,0,0,17.44,4.12,30.38,30.38,0,0,0,14.51-3.53c3.68-2.12,5.69-4.85,6.06-7.7A8.14,8.14,0,0,0,139.14,292Z" transform="translate(-26.6 -67.41)"/><path id="_Compound_Path_3" data-name="&lt;Compound Path&gt;" class="cls-13" d="M139.14,292c-1-2.38-3.16-4.66-6.44-6.55l-18.23-10.53a3,3,0,0,0-2.75,0L83.84,291l17.91,10.34a34.84,34.84,0,0,0,17.44,4.12,30.38,30.38,0,0,0,14.51-3.53c3.68-2.12,5.69-4.85,6.06-7.7A8.14,8.14,0,0,0,139.14,292Z" transform="translate(-26.6 -67.41)"/><path id="_Path_29" data-name="&lt;Path&gt;" class="cls-3" d="M139.76,294.24a8.14,8.14,0,0,0-.63-2.26c-1-2.38-3.16-4.66-6.44-6.55l-18.23-10.53a3,3,0,0,0-2.75,0L83.84,291l-.32-.18a.84.84,0,0,1,0-1.59L111.72,273a3,3,0,0,1,2.75,0l18.23,10.53c3.28,1.89,5.42,4.17,6.44,6.55a8.2,8.2,0,0,1,.64,2.4A7.52,7.52,0,0,1,139.76,294.24Z" transform="translate(-26.6 -67.41)"/><path id="_Path_30" data-name="&lt;Path&gt;" class="cls-4" d="M139.76,294.24a8.14,8.14,0,0,0-.63-2.26c-1-2.38-3.16-4.66-6.44-6.55l-18.23-10.53a3,3,0,0,0-2.75,0L83.84,291l-.32-.18a.84.84,0,0,1,0-1.59L111.72,273a3,3,0,0,1,2.75,0l18.23,10.53c3.28,1.89,5.42,4.17,6.44,6.55a8.2,8.2,0,0,1,.64,2.4A7.52,7.52,0,0,1,139.76,294.24Z" transform="translate(-26.6 -67.41)"/></g><polygon id="_Path_31" data-name="&lt;Path&gt;" class="cls-3" points="57.54 221.55 85.73 205.27 85.11 203.8 58.17 219.35 57.54 221.55"/><polygon id="_Path_32" data-name="&lt;Path&gt;" class="cls-14" points="57.54 221.55 85.73 205.27 85.11 203.8 58.17 219.35 57.54 221.55"/><g id="Letter"><g id="_Group_14" data-name="&lt;Group&gt;"><g id="_Group_15" data-name="&lt;Group&gt;"><path id="_Path_33" data-name="&lt;Path&gt;" class="cls-1" d="M109.63,248a1.48,1.48,0,0,0-.67-1.16L74.64,227a1.48,1.48,0,0,0-1.34,0l-.76.44a1.48,1.48,0,0,0-.67,1.16v26.31a1.49,1.49,0,0,0,.67,1.16l34.32,19.82a1.49,1.49,0,0,0,1.34,0l.76-.44a1.49,1.49,0,0,0,.67-1.16Z" transform="translate(-26.6 -67.41)"/></g></g><path id="_Path_34" data-name="&lt;Path&gt;" class="cls-2" d="M109.44,247.3l-1.9,1.1L72.07,227.92a1.39,1.39,0,0,1,.47-.5l.76-.43a1.47,1.47,0,0,1,1.34,0L109,246.8A1.37,1.37,0,0,1,109.44,247.3Z" transform="translate(-26.6 -67.41)"/><g id="_Group_16" data-name="&lt;Group&gt;"><g id="_Group_17" data-name="&lt;Group&gt;"><path class="cls-3" d="M107.38,276h0Z" transform="translate(-26.6 -67.41)"/><path class="cls-15" d="M107.54,248.39l-.35.21a.58.58,0,0,1,.35.57v26.31a.46.46,0,0,1-.21.44.44.44,0,0,1-.32,0l-.14-.06L72.54,256.05a1.5,1.5,0,0,1-.67-1.16V228.58a1.4,1.4,0,0,1,.2-.67Z" transform="translate(-26.6 -67.41)"/></g></g><path id="_Path_35" data-name="&lt;Path&gt;" class="cls-13" d="M107.53,248.4l-15.9,5.94a2.58,2.58,0,0,1-3.07-1L86,249.41,71.94,227.84l13.57,21.72L71.87,254.9a1.4,1.4,0,0,0,.21.67l13.47-5.95,3,4.75a2.58,2.58,0,0,0,3.23,1l2.11-.93,13.47,21.49a.46.46,0,0,0,.21-.44V275L93.93,254.4Z" transform="translate(-26.6 -67.41)"/></g><g id="Letter-2" data-name="Letter"><g id="_Group_18" data-name="&lt;Group&gt;"><g id="_Group_19" data-name="&lt;Group&gt;"><path id="_Path_36" data-name="&lt;Path&gt;" class="cls-1" d="M101.51,252.61a1.48,1.48,0,0,0-.67-1.16L66.51,231.64a1.48,1.48,0,0,0-1.34,0l-.76.44a1.48,1.48,0,0,0-.67,1.16v26.31a1.49,1.49,0,0,0,.67,1.16l34.32,19.82a1.49,1.49,0,0,0,1.34,0l.76-.44a1.49,1.49,0,0,0,.67-1.16Z" transform="translate(-26.6 -67.41)"/></g></g><path id="_Path_37" data-name="&lt;Path&gt;" class="cls-2" d="M101.31,252l-1.9,1.1L63.94,232.57a1.39,1.39,0,0,1,.47-.5l.76-.43a1.47,1.47,0,0,1,1.34,0l34.32,19.82A1.37,1.37,0,0,1,101.31,252Z" transform="translate(-26.6 -67.41)"/><g id="_Group_20" data-name="&lt;Group&gt;"><g id="_Group_21" data-name="&lt;Group&gt;"><path class="cls-3" d="M99.25,280.67h0Z" transform="translate(-26.6 -67.41)"/><path class="cls-15" d="M99.41,253l-.35.21a.58.58,0,0,1,.35.57v26.31a.46.46,0,0,1-.21.44.44.44,0,0,1-.32,0l-.14-.06L64.41,260.71a1.5,1.5,0,0,1-.67-1.16V233.24a1.4,1.4,0,0,1,.2-.67Z" transform="translate(-26.6 -67.41)"/></g></g><path id="_Path_38" data-name="&lt;Path&gt;" class="cls-13" d="M99.41,253.05,83.51,259a2.58,2.58,0,0,1-3.07-1l-2.55-3.91L63.81,232.5l13.57,21.72-13.64,5.34a1.4,1.4,0,0,0,.21.67l13.47-5.95,3,4.75a2.58,2.58,0,0,0,3.23,1l2.11-.93L99.2,280.58a.46.46,0,0,0,.21-.44v-.44L85.8,259.06Z" transform="translate(-26.6 -67.41)"/></g><g id="Letter-3" data-name="Letter"><g id="_Group_22" data-name="&lt;Group&gt;"><g id="_Group_23" data-name="&lt;Group&gt;"><path id="_Path_39" data-name="&lt;Path&gt;" class="cls-1" d="M93.38,257.27a1.48,1.48,0,0,0-.67-1.16L58.39,236.29a1.48,1.48,0,0,0-1.34,0l-.76.44a1.48,1.48,0,0,0-.67,1.16V264.2a1.49,1.49,0,0,0,.67,1.16l34.32,19.82a1.49,1.49,0,0,0,1.34,0l.76-.44a1.49,1.49,0,0,0,.67-1.16Z" transform="translate(-26.6 -67.41)"/></g></g><path id="_Path_40" data-name="&lt;Path&gt;" class="cls-2" d="M93.19,256.61l-1.9,1.1L55.82,237.23a1.39,1.39,0,0,1,.47-.5l.76-.43a1.47,1.47,0,0,1,1.34,0l34.32,19.82A1.37,1.37,0,0,1,93.19,256.61Z" transform="translate(-26.6 -67.41)"/><g id="_Group_24" data-name="&lt;Group&gt;"><g id="_Group_25" data-name="&lt;Group&gt;"><path class="cls-3" d="M91.13,285.33h0Z" transform="translate(-26.6 -67.41)"/><path class="cls-15" d="M91.29,257.71l-.35.21a.58.58,0,0,1,.35.57V284.8a.46.46,0,0,1-.21.44.44.44,0,0,1-.32,0l-.14-.06L56.29,265.37a1.5,1.5,0,0,1-.67-1.16V237.9a1.41,1.41,0,0,1,.2-.67Z" transform="translate(-26.6 -67.41)"/></g></g><path id="_Path_41" data-name="&lt;Path&gt;" class="cls-13" d="M91.28,257.71l-15.9,5.94a2.58,2.58,0,0,1-3.07-1l-2.55-3.91L55.69,237.16l13.57,21.72-13.64,5.34a1.4,1.4,0,0,0,.21.67l13.47-5.95,3,4.75a2.58,2.58,0,0,0,3.23,1l2.11-.93,13.47,21.49a.46.46,0,0,0,.21-.44v-.44L77.68,263.71Z" transform="translate(-26.6 -67.41)"/></g><path class="cls-3" d="M108.55,238c-2.73-1.43-6.35-1.18-10.31,1.11-4.45,2.56-8.46,7.19-11.27,12.51a39.23,39.23,0,0,0-1.76,3.78,31.9,31.9,0,0,0-2.45,11.68V289.3a2.89,2.89,0,0,1-1.37-.33L41.9,266.15a3.07,3.07,0,0,1-1.37-2.38V242.71c0-10.52,6.93-23,15.47-28,4-2.34,7.73-2.53,10.49-1v0Z" transform="translate(-26.6 -67.41)"/><path class="cls-13" d="M108.55,238c-2.73-1.43-6.35-1.18-10.31,1.11-4.45,2.56-8.46,7.19-11.27,12.51a39.23,39.23,0,0,0-1.76,3.78,31.9,31.9,0,0,0-2.45,11.68V289.3a2.89,2.89,0,0,1-1.37-.33L41.9,266.15a3.07,3.07,0,0,1-1.37-2.38V242.71c0-10.52,6.93-23,15.47-28,4-2.34,7.73-2.53,10.49-1v0Z" transform="translate(-26.6 -67.41)"/><path class="cls-14" d="M41.9,266.15,81.39,289a2.89,2.89,0,0,0,1.37.33V267.12a28.3,28.3,0,0,1,.74-6.21L41.26,236.51a28.39,28.39,0,0,0-.73,6.2v21.06A3.07,3.07,0,0,0,41.9,266.15Z" transform="translate(-26.6 -67.41)"/><path class="cls-3" d="M85.21,255.44a31.9,31.9,0,0,0-2.45,11.68V289.3a2.73,2.73,0,0,1-.5-.05c0-1.28,0-8.4,0-22.13,0-16.32,12.55-26.69,16-28-4.45,2.56-8.46,7.19-11.27,12.51A39.23,39.23,0,0,0,85.21,255.44Z" transform="translate(-26.6 -67.41)"/><path class="cls-12" d="M85.21,255.44a31.9,31.9,0,0,0-2.45,11.68V289.3a2.73,2.73,0,0,1-.5-.05c0-1.28,0-8.4,0-22.13,0-16.32,12.55-26.69,16-28-4.45,2.56-8.46,7.19-11.27,12.51A39.23,39.23,0,0,0,85.21,255.44Z" transform="translate(-26.6 -67.41)"/><path id="_Path_42" data-name="&lt;Path&gt;" class="cls-3" d="M84.76,286.77c-.23.13-.41,0-.41-.24V267.12a30.22,30.22,0,0,1,2.25-10.88l.08-.21a37.09,37.09,0,0,1,1.88-4C91.3,247,95,242.82,99,240.52a11.68,11.68,0,0,1,5.77-1.79,6.39,6.39,0,0,1,3,.73c2.7,1.44,4.28,4.92,4.28,9.79V270.5a.91.91,0,0,1-.41.71l.63,1.47.14-.09A2.65,2.65,0,0,0,113,272h0a3,3,0,0,0,.66-1.74V249.25c0-5.63-2-9.55-5.15-11.21-2.74-1.43-6.35-1.18-10.31,1.11-4.45,2.56-8.46,7.19-11.27,12.51a39.17,39.17,0,0,0-1.75,3.78,31.91,31.91,0,0,0-2.45,11.68v22.17H83a2.66,2.66,0,0,0,1.14-.32Z" transform="translate(-26.6 -67.41)"/><path id="_Path_43" data-name="&lt;Path&gt;" class="cls-14" d="M84.76,286.77c-.23.13-.41,0-.41-.24V267.12a30.22,30.22,0,0,1,2.25-10.88l.08-.21a37.09,37.09,0,0,1,1.88-4C91.3,247,95,242.82,99,240.52a11.68,11.68,0,0,1,5.77-1.79,6.39,6.39,0,0,1,3,.73c2.7,1.44,4.28,4.92,4.28,9.79V270.5a.91.91,0,0,1-.41.71l.63,1.47.14-.09A2.65,2.65,0,0,0,113,272h0a3,3,0,0,0,.66-1.74V249.25c0-5.63-2-9.55-5.15-11.21-2.74-1.43-6.35-1.18-10.31,1.11-4.45,2.56-8.46,7.19-11.27,12.51a39.17,39.17,0,0,0-1.75,3.78,31.91,31.91,0,0,0-2.45,11.68v22.17H83a2.66,2.66,0,0,0,1.14-.32Z" transform="translate(-26.6 -67.41)"/></g></g><g id="Envelopes"><g id="Envelope"><g id="Letter-4" data-name="Letter"><g id="_Group_26" data-name="&lt;Group&gt;"><g id="_Group_27" data-name="&lt;Group&gt;"><path id="_Path_44" data-name="&lt;Path&gt;" class="cls-3" d="M178.94,229.88a5.74,5.74,0,0,1,2.6-4.5l128.17-74a5.74,5.74,0,0,1,5.2,0l2.93,1.69a5.74,5.74,0,0,1,2.6,4.5V259.45a5.76,5.76,0,0,1-2.6,4.5l-128.17,74a5.76,5.76,0,0,1-5.2,0l-2.93-1.69a5.76,5.76,0,0,1-2.6-4.5Z" transform="translate(-26.6 -67.41)"/></g></g><g id="_Group_28" data-name="&lt;Group&gt;" class="cls-16"><g id="_Group_29" data-name="&lt;Group&gt;"><path id="_Path_45" data-name="&lt;Path&gt;" class="cls-5" d="M178.94,229.88a5.74,5.74,0,0,1,2.6-4.5l128.17-74a5.74,5.74,0,0,1,5.2,0l2.93,1.69a5.74,5.74,0,0,1,2.6,4.5V259.45a5.76,5.76,0,0,1-2.6,4.5l-128.17,74a5.76,5.76,0,0,1-5.2,0l-2.93-1.69a5.76,5.76,0,0,1-2.6-4.5Z" transform="translate(-26.6 -67.41)"/></g></g><path id="_Path_46" data-name="&lt;Path&gt;" class="cls-3" d="M179.7,227.32l7.37,4.25L319.67,155a5.37,5.37,0,0,0-1.83-1.94l-2.94-1.68a5.68,5.68,0,0,0-5.19,0l-128.17,74A5.3,5.3,0,0,0,179.7,227.32Z" transform="translate(-26.6 -67.41)"/><path id="_Path_47" data-name="&lt;Path&gt;" class="cls-17" d="M179.7,227.32l7.37,4.25L319.67,155a5.37,5.37,0,0,0-1.83-1.94l-2.94-1.68a5.68,5.68,0,0,0-5.19,0l-128.17,74A5.3,5.3,0,0,0,179.7,227.32Z" transform="translate(-26.6 -67.41)"/><path id="_Path_48" data-name="&lt;Path&gt;" class="cls-18" d="M178.94,229.87V331.75a5.73,5.73,0,0,0,2.61,4.5l2.93,1.7a4.19,4.19,0,0,0,.71.32,5.68,5.68,0,0,0,1.07.25,6.39,6.39,0,0,0,2.05-.07l.51-.13.32-.11a1.57,1.57,0,0,1-1.26,0,1.8,1.8,0,0,1-.8-1.71V234.57a2.28,2.28,0,0,1,1.35-2.21l-1.35-.79-7.37-4.25A5.34,5.34,0,0,0,178.94,229.87Z" transform="translate(-26.6 -67.41)"/><path id="_Path_49" data-name="&lt;Path&gt;" class="cls-19" d="M178.94,229.87V331.75a5.73,5.73,0,0,0,2.61,4.5l2.93,1.7a4.19,4.19,0,0,0,.71.32,5.68,5.68,0,0,0,1.07.25,6.39,6.39,0,0,0,2.05-.07l.51-.13.32-.11a1.57,1.57,0,0,1-1.26,0,1.8,1.8,0,0,1-.8-1.71V234.57a2.28,2.28,0,0,1,1.35-2.21l-1.35-.79-7.37-4.25A5.34,5.34,0,0,0,178.94,229.87Z" transform="translate(-26.6 -67.41)"/><path id="_Path_50" data-name="&lt;Path&gt;" class="cls-20" d="M187.07,231.57l61.55,23a10,10,0,0,0,11.87-3.91l9.88-15.14L319.67,155l-47.32,81.07,48.08,23.41a5.42,5.42,0,0,1-.81,2.59L272.2,236.32,260.72,254.7a10,10,0,0,1-12.52,3.85L240,254.94l-52.14,83.22a1.8,1.8,0,0,1-.8-1.71v-1.7l52.69-79.92Z" transform="translate(-26.6 -67.41)"/><path id="_Path_51" data-name="&lt;Path&gt;" class="cls-19" d="M187.07,231.57l61.55,23a10,10,0,0,0,11.87-3.91l9.88-15.14L319.67,155l-47.32,81.07,48.08,23.41a5.42,5.42,0,0,1-.81,2.59L272.2,236.32,260.72,254.7a10,10,0,0,1-12.52,3.85L240,254.94l-52.14,83.22a1.8,1.8,0,0,1-.8-1.71v-1.7l52.69-79.92Z" transform="translate(-26.6 -67.41)"/></g></g><g id="Envelope-2" data-name="Envelope"><g id="Letter-5" data-name="Letter"><g id="_Group_30" data-name="&lt;Group&gt;"><g id="_Group_31" data-name="&lt;Group&gt;"><path id="_Path_52" data-name="&lt;Path&gt;" class="cls-3" d="M211.44,248.66a5.74,5.74,0,0,1,2.6-4.5l128.17-74a5.74,5.74,0,0,1,5.2,0l2.93,1.69a5.74,5.74,0,0,1,2.6,4.5V278.23a5.76,5.76,0,0,1-2.6,4.5l-128.17,74a5.76,5.76,0,0,1-5.2,0L214,355a5.76,5.76,0,0,1-2.6-4.5Z" transform="translate(-26.6 -67.41)"/></g></g><g id="_Group_32" data-name="&lt;Group&gt;" class="cls-21"><g id="_Group_33" data-name="&lt;Group&gt;"><path id="_Path_53" data-name="&lt;Path&gt;" class="cls-5" d="M211.44,248.66a5.74,5.74,0,0,1,2.6-4.5l128.17-74a5.74,5.74,0,0,1,5.2,0l2.93,1.69a5.74,5.74,0,0,1,2.6,4.5V278.23a5.76,5.76,0,0,1-2.6,4.5l-128.17,74a5.76,5.76,0,0,1-5.2,0L214,355a5.76,5.76,0,0,1-2.6-4.5Z" transform="translate(-26.6 -67.41)"/></g></g><path id="_Path_54" data-name="&lt;Path&gt;" class="cls-3" d="M212.19,246.1l7.37,4.25,132.6-76.56a5.37,5.37,0,0,0-1.83-1.94l-2.94-1.68a5.68,5.68,0,0,0-5.19,0L214,244.16A5.3,5.3,0,0,0,212.19,246.1Z" transform="translate(-26.6 -67.41)"/><path id="_Path_55" data-name="&lt;Path&gt;" class="cls-22" d="M212.19,246.1l7.37,4.25,132.6-76.56a5.37,5.37,0,0,0-1.83-1.94l-2.94-1.68a5.68,5.68,0,0,0-5.19,0L214,244.16A5.3,5.3,0,0,0,212.19,246.1Z" transform="translate(-26.6 -67.41)"/><path id="_Path_56" data-name="&lt;Path&gt;" class="cls-14" d="M211.43,248.65V350.53A5.73,5.73,0,0,0,214,355l2.93,1.7a4.19,4.19,0,0,0,.71.32,5.68,5.68,0,0,0,1.07.25,6.39,6.39,0,0,0,2.05-.07l.5-.14.31-.12a1.54,1.54,0,0,1-1.24,0,1.8,1.8,0,0,1-.8-1.71V253.35a2.28,2.28,0,0,1,1.35-2.21l-1.35-.79-7.37-4.25A5.34,5.34,0,0,0,211.43,248.65Z" transform="translate(-26.6 -67.41)"/><path id="_Path_57" data-name="&lt;Path&gt;" class="cls-23" d="M219.57,250.35l61.55,23A10,10,0,0,0,293,269.44l9.88-15.14,49.29-80.5-47.32,81.07,48.08,23.41a5.42,5.42,0,0,1-.81,2.59L304.7,255.1l-11.49,18.38a10,10,0,0,1-12.52,3.85l-8.18-3.61-52.14,83.22a1.8,1.8,0,0,1-.8-1.71v-1.7l52.69-79.92Z" transform="translate(-26.6 -67.41)"/><path id="_Path_58" data-name="&lt;Path&gt;" class="cls-19" d="M219.57,250.35l61.55,23A10,10,0,0,0,293,269.44l9.88-15.14,49.29-80.5-47.32,81.07,48.08,23.41a5.42,5.42,0,0,1-.81,2.59L304.7,255.1l-11.49,18.38a10,10,0,0,1-12.52,3.85l-8.18-3.61-52.14,83.22a1.8,1.8,0,0,1-.8-1.71v-1.7l52.69-79.92Z" transform="translate(-26.6 -67.41)"/></g></g></g><g id="Open_Envelope" data-name="Open Envelope"><g id="Open_Envelope-2" data-name="Open Envelope"><g id="_Group_34" data-name="&lt;Group&gt;"><path id="_Path_59" data-name="&lt;Path&gt;" class="cls-3" d="M244.2,268.26l133.38-77,5.34,3.08a5.57,5.57,0,0,1,2.51,4.35v98.39a5.57,5.57,0,0,1-2.51,4.35L254.56,375.52a5.57,5.57,0,0,1-5,0l-2.83-1.63a5.57,5.57,0,0,1-2.51-4.35Z" transform="translate(-26.6 -67.41)"/><path id="_Path_60" data-name="&lt;Path&gt;" class="cls-13" d="M244.2,268.26l133.38-77,5.34,3.08a5.57,5.57,0,0,1,2.51,4.35v98.39a5.57,5.57,0,0,1-2.51,4.35L254.56,375.52a5.57,5.57,0,0,1-5,0l-2.83-1.63a5.57,5.57,0,0,1-2.51-4.35Z" transform="translate(-26.6 -67.41)"/><path id="_Path_61" data-name="&lt;Path&gt;" class="cls-3" d="M376.85,182.6l.55-.3-2.07-1.2h0a3.54,3.54,0,0,0-.55-.26l-58.7-21.75a4,4,0,0,0-4.51,1.43L245.9,256.41a11.36,11.36,0,0,0-1.69,5.47c0,2.74,0,6.37,0,6.37l2,1.18,131.35-78.19v-6.37A4.3,4.3,0,0,0,376.85,182.6Z" transform="translate(-26.6 -67.41)"/><path id="_Path_62" data-name="&lt;Path&gt;" class="cls-14" d="M314.28,161a3.32,3.32,0,0,0-.68.72l-65.67,95.89a10.2,10.2,0,0,0-1.22,2.74l-2-1.18a13.1,13.1,0,0,1,.53-1.45l0,0c.09-.2.18-.39.28-.58l0-.09a5.23,5.23,0,0,1,.35-.58l65.66-95.89a3.19,3.19,0,0,1,.33-.4l.35-.32Z" transform="translate(-26.6 -67.41)"/><path id="_Path_63" data-name="&lt;Path&gt;" class="cls-24" d="M377.37,182.29a3.2,3.2,0,0,0-.56-.27L318.1,160.26a4,4,0,0,0-3.82.72l-2-1.18a4.07,4.07,0,0,1,3.83-.72l58.7,21.75a3.12,3.12,0,0,1,.55.27Z" transform="translate(-26.6 -67.41)"/><g id="_Group_35" data-name="&lt;Group&gt;"><path id="_Path_64" data-name="&lt;Path&gt;" class="cls-3" d="M245.55,257a6.68,6.68,0,0,1,.35-.58C245.78,256.59,245.66,256.78,245.55,257Z" transform="translate(-26.6 -67.41)"/><path id="_Path_65" data-name="&lt;Path&gt;" class="cls-3" d="M311.89,160.12a4.22,4.22,0,0,1,.35-.32A3.58,3.58,0,0,0,311.89,160.12Z" transform="translate(-26.6 -67.41)"/><path id="_Path_66" data-name="&lt;Path&gt;" class="cls-3" d="M244.67,259.15a12.62,12.62,0,0,1,.53-1.45A12.48,12.48,0,0,0,244.67,259.15Z" transform="translate(-26.6 -67.41)"/><path id="_Path_67" data-name="&lt;Path&gt;" class="cls-3" d="M245.22,257.66c.09-.2.18-.39.28-.57C245.4,257.27,245.31,257.46,245.22,257.66Z" transform="translate(-26.6 -67.41)"/><path id="_Path_68" data-name="&lt;Path&gt;" class="cls-13" d="M245.2,257.7l0,0Z" transform="translate(-26.6 -67.41)"/><polygon id="_Path_69" data-name="&lt;Path&gt;" class="cls-13" points="218.07 191.74 218.07 191.74 218.07 191.74 218.07 191.74"/><polygon id="_Path_70" data-name="&lt;Path&gt;" class="cls-13" points="285.64 92.39 285.64 92.39 285.64 92.39 285.64 92.39"/><path id="_Path_71" data-name="&lt;Path&gt;" class="cls-13" d="M245.5,257.08l0-.1Z" transform="translate(-26.6 -67.41)"/><path id="_Path_72" data-name="&lt;Path&gt;" class="cls-13" d="M311.56,160.52a3.3,3.3,0,0,1,.33-.4A2.93,2.93,0,0,0,311.56,160.52Z" transform="translate(-26.6 -67.41)"/></g><path id="_Path_73" data-name="&lt;Path&gt;" class="cls-3" d="M313.6,161.7l-65.66,95.89a11.36,11.36,0,0,0-1.69,5.47c0,2.74,0,6.37,0,6.37l133.38-77v-6.36a4.63,4.63,0,0,0-2.81-4l-58.7-21.75A4,4,0,0,0,313.6,161.7Z" transform="translate(-26.6 -67.41)"/><path id="_Path_74" data-name="&lt;Path&gt;" class="cls-19" d="M379.62,186.06a4.28,4.28,0,0,0-.71-2.24l-132.2,76.51v0a10,10,0,0,0-.46,2.71v6.37l133.38-77Z" transform="translate(-26.6 -67.41)"/></g><path class="cls-25" d="M373.92,159a1.53,1.53,0,0,0-.63-1.4l-4.07-2.35a1.52,1.52,0,0,0-1.53.15L258.29,218.6a4.78,4.78,0,0,0-2.17,3.75v131a1.52,1.52,0,0,0,.63,1.4l4.06,2.35a1.52,1.52,0,0,0,1.53-.15l109.4-63.16a4.79,4.79,0,0,0,2.17-3.75Z" transform="translate(-26.6 -67.41)"/><path class="cls-10" d="M262.35,357l109.4-63.16a4.79,4.79,0,0,0,2.17-3.75V159c0-1.38-1-1.94-2.16-1.25l-109.4,63.16a4.79,4.79,0,0,0-2.17,3.75v131C260.19,357.1,261.16,357.66,262.35,357Z" transform="translate(-26.6 -67.41)"/><g id="_Group_36" data-name="&lt;Group&gt;"><path id="_Compound_Path_4" data-name="&lt;Compound Path&gt;" class="cls-3" d="M332.47,233a19.16,19.16,0,0,1-.82,4.36,18.72,18.72,0,0,1-1.58,3.66,14,14,0,0,1-2.06,2.79,8.88,8.88,0,0,1-2.29,1.76,4.83,4.83,0,0,1-3.15.76,2.85,2.85,0,0,1-1.63-1c-.24.51-.48,1-.75,1.56a9.71,9.71,0,0,1-1,1.57,9.91,9.91,0,0,1-1.47,1.52,11.22,11.22,0,0,1-2.15,1.39,4.18,4.18,0,0,1-2.72.54,3.21,3.21,0,0,1-2-1.41,8.19,8.19,0,0,1-1.2-3.18,21.24,21.24,0,0,1-.27-4.77,30.15,30.15,0,0,1,.65-5.25,24.37,24.37,0,0,1,1.43-4.52,15,15,0,0,1,2.14-3.56,8.77,8.77,0,0,1,2.77-2.3,3.26,3.26,0,0,1,2.48-.53,2.65,2.65,0,0,1,1.28,1.2l0-.54a3,3,0,0,1,.37-1.31,2,2,0,0,1,.8-.88l2.14-1.09a.6.6,0,0,1,.76.08,1.26,1.26,0,0,1,.28,1L324,237.54c0,1,.14,1.59.55,1.9a1.26,1.26,0,0,0,1.43,0,3.67,3.67,0,0,0,1.45-1.54,7.61,7.61,0,0,0,.79-3.08q.15-1.66.22-3.44t0-3.27a20,20,0,0,0-.79-5.3,5.83,5.83,0,0,0-2-3.07,4.69,4.69,0,0,0-3.35-.73,14.62,14.62,0,0,0-4.88,1.67,16.74,16.74,0,0,0-4.31,3.18,21.91,21.91,0,0,0-3.36,4.42,27.12,27.12,0,0,0-2.35,5.35,31.84,31.84,0,0,0-1.28,5.89q-.11.82-.19,2.12t-.13,2.71q-.06,1.41-.09,2.72t0,2.11a16,16,0,0,0,.86,4.74,7,7,0,0,0,2,3.06,4.82,4.82,0,0,0,3.14,1.1,9.26,9.26,0,0,0,4.24-1.2,24.94,24.94,0,0,0,2.93-1.73,19.49,19.49,0,0,0,2.18-1.77,17.75,17.75,0,0,0,1.62-1.74q.68-.85,1.23-1.66t.75-1.06a2.18,2.18,0,0,1,.73-.58l3-1.56a.67.67,0,0,1,.78,0,1.2,1.2,0,0,1,.26,1.07,2.45,2.45,0,0,1-.32,1q-.91,1.7-2.06,3.58a27.17,27.17,0,0,1-2.7,3.68,29.94,29.94,0,0,1-3.68,3.53,28.22,28.22,0,0,1-5,3.21,12.59,12.59,0,0,1-6.23,1.69,6.77,6.77,0,0,1-4.42-1.8,10.47,10.47,0,0,1-2.7-4.56,23.46,23.46,0,0,1-1-6.56q0-.82,0-2.22t.1-2.93q.06-1.53.14-2.92t.15-2.19a40.56,40.56,0,0,1,1.54-7.82,38.1,38.1,0,0,1,3.18-7.6,33,33,0,0,1,4.79-6.6,23,23,0,0,1,6.37-4.82,16.16,16.16,0,0,1,7.05-2.14,6.6,6.6,0,0,1,4.63,1.63,9.34,9.34,0,0,1,2.55,4.64,29.92,29.92,0,0,1,.87,6.85q0,1.52-.06,3.59T332.47,233Zm-18.78,7.31a8.11,8.11,0,0,0,.6,4.16q.72,1.22,2.15.49a5.15,5.15,0,0,0,2.35-2.76,14.62,14.62,0,0,0,.94-5,8.57,8.57,0,0,0-.58-4.2q-.7-1.26-2.22-.48a5.14,5.14,0,0,0-2.29,2.79A14.64,14.64,0,0,0,313.69,240.28Z" transform="translate(-26.6 -67.41)"/></g><path class="cls-2" d="M260.18,355.72a1.63,1.63,0,0,0,.51,1.32l-3.93-2.26a1.51,1.51,0,0,1-.64-1.4v-131a4.34,4.34,0,0,1,.64-2.13l4.06,2.34a4.37,4.37,0,0,0-.64,2.14Z" transform="translate(-26.6 -67.41)"/><g id="_Group_37" data-name="&lt;Group&gt;"><path id="_Path_75" data-name="&lt;Path&gt;" class="cls-3" d="M382,298.38a1.21,1.21,0,0,1-.14.2L326.32,281a9.57,9.57,0,0,0-12,3.7L254.89,373l-2.2,1.27h0a1.79,1.79,0,0,1-1.7.19l61.11-91a9.6,9.6,0,0,1,12-3.71Z" transform="translate(-26.6 -67.41)"/><path id="_Path_76" data-name="&lt;Path&gt;" class="cls-26" d="M308.84,293.32l.14-.12L254.89,373l-2.2,1.27h0a1.82,1.82,0,0,1-1.7.19L306.7,292Z" transform="translate(-26.6 -67.41)"/><path id="_Path_77" data-name="&lt;Path&gt;" class="cls-26" d="M382,298.38a1.21,1.21,0,0,1-.14.2L326.32,281a9.57,9.57,0,0,0-12,3.7l-2.2-1.28a9.6,9.6,0,0,1,12-3.68Z" transform="translate(-26.6 -67.41)"/><path id="_Path_78" data-name="&lt;Path&gt;" class="cls-3" d="M385.38,198h0c-.12-.72-.5-.92-1-.58a2.89,2.89,0,0,0-.64.66l-.28.39L328.61,281.9l-8.19,11.41a4.67,4.67,0,0,1-4.51,1.69l-7.07-1.68-54-19.87a2.75,2.75,0,0,0-1.1,0,2,2,0,0,0-.41.13l2-1.18,51.74,19,6.81,2.43a4.65,4.65,0,0,0,4.51-1.69l8.19-11.4,55.12-83.78a2.2,2.2,0,0,1,.62-.57l-4.77-2.75,2-1.15,3.3,1.9A5.72,5.72,0,0,1,385.38,198Z" transform="translate(-26.6 -67.41)"/><path id="_Path_79" data-name="&lt;Path&gt;" class="cls-26" d="M328.61,281.9l-8.19,11.41a4.67,4.67,0,0,1-4.51,1.69l-7.07-1.68.14-.12.34-.54,4.63,1.1a4.65,4.65,0,0,0,4.51-1.69l8.11-11.28Z" transform="translate(-26.6 -67.41)"/><path id="_Path_80" data-name="&lt;Path&gt;" class="cls-14" d="M382.92,194.32l-3.3-1.9-2,1.15,4.77,2.75h0a2.19,2.19,0,0,0-.62.57l-55.12,83.77-.08.11h0l2,1.11,54.85-83.39.28-.39a2.89,2.89,0,0,1,.64-.66c.49-.34.87-.14,1,.58h0A5.72,5.72,0,0,0,382.92,194.32Z" transform="translate(-26.6 -67.41)"/><path id="_Path_81" data-name="&lt;Path&gt;" class="cls-3" d="M256,275.05l-11.77-6.8V369.55a5.57,5.57,0,0,0,2.51,4.35l2.83,1.63a5.57,5.57,0,0,0,5,0l1.41-.82Z" transform="translate(-26.6 -67.41)"/><path id="_Path_82" data-name="&lt;Path&gt;" class="cls-6" d="M256,275.05l-11.77-6.8V369.55a5.57,5.57,0,0,0,2.51,4.35l2.83,1.63a5.57,5.57,0,0,0,5,0l1.41-.82Z" transform="translate(-26.6 -67.41)"/><path id="_Path_83" data-name="&lt;Path&gt;" class="cls-3" d="M385.43,198.68v98.39a5.11,5.11,0,0,1-.78,2.54,5.48,5.48,0,0,1-1.47,1.65l-.1,0a1.53,1.53,0,0,1-.16.11l-128.36,74.1h0a1.79,1.79,0,0,1-1.71.2,1.52,1.52,0,0,1-.75-1.2,3.19,3.19,0,0,1,0-.45v-98.4a2.18,2.18,0,0,1,2.82-2.22l54,19.87,7.07,1.68a4.67,4.67,0,0,0,4.51-1.69l8.19-11.41,54.85-83.39.28-.39C384.67,196.84,385.43,197.08,385.43,198.68Z" transform="translate(-26.6 -67.41)"/><path id="_Path_84" data-name="&lt;Path&gt;" class="cls-3" d="M382.92,301.42l.16-.11.1-.06a5.38,5.38,0,0,0,1.47-1.64,5.14,5.14,0,0,0,.78-2.5l-56.81-15.21,38,28.9Z" transform="translate(-26.6 -67.41)"/><path id="_Path_85" data-name="&lt;Path&gt;" class="cls-13" d="M382.92,301.42l.16-.11.1-.06a5.38,5.38,0,0,0,1.47-1.64,5.14,5.14,0,0,0,.78-2.5l-56.81-15.21,38,28.9Z" transform="translate(-26.6 -67.41)"/><path id="_Path_86" data-name="&lt;Path&gt;" class="cls-3" d="M252.05,374.07a1.73,1.73,0,0,0,.78,1.65,1.79,1.79,0,0,0,1.71-.19h0L298.75,350l10.09-56.69-56.79,79.12Z" transform="translate(-26.6 -67.41)"/><path id="_Path_87" data-name="&lt;Path&gt;" class="cls-6" d="M314.29,284.64l-61.46,91.08a1.73,1.73,0,0,1-.78-1.65v-1.63l60-89,0,0Z" transform="translate(-26.6 -67.41)"/><path id="_Path_88" data-name="&lt;Path&gt;" class="cls-3" d="M384.65,299.61a5.38,5.38,0,0,1-1.47,1.64l-.1.06L254.56,375.52h0a1.79,1.79,0,0,1-1.71.19l61.47-91.1a9.66,9.66,0,0,1,12.08-3.71Z" transform="translate(-26.6 -67.41)"/><path id="_Path_89" data-name="&lt;Path&gt;" class="cls-6" d="M244.67,259.15l2,1.18a10,10,0,0,0-.47,2.74v6.36l-2-1.18v-6.37A10,10,0,0,1,244.67,259.15Z" transform="translate(-26.6 -67.41)"/><polygon id="_Path_90" data-name="&lt;Path&gt;" class="cls-3" points="228.8 204.96 226.77 206.13 224.71 204.94 219.64 202.02 221.61 200.85 228.8 204.96"/><path id="_Path_91" data-name="&lt;Path&gt;" class="cls-14" d="M255.49,272.41l-7.28-4.14-2,1.17,5.07,2.92,2.06,1.19h0a2,2,0,0,1,.39-.12,2.75,2.75,0,0,1,1.1,0L259,275l47.11,17.34.74-1.09Z" transform="translate(-26.6 -67.41)"/></g></g></g><g id="Clouds"><g id="Clouds-2" data-name="Clouds"><g id="Cloud"><path id="_Path_92" data-name="&lt;Path&gt;" class="cls-25" d="M145,102.07l-7.62,4.4a9.21,9.21,0,0,0,.06-1v-2.21c0-3.93-2.76-5.52-6.16-3.56a11.92,11.92,0,0,0-3.67,3.53c-.56-4.94-4.43-6.78-9.14-4.06-5.09,2.94-9.21,10.08-9.21,16v3.3a8.7,8.7,0,0,0,.78,3.83l-6.33,3.65a7.55,7.55,0,0,0-3.42,5.92c0,2.18,1.53,3.06,3.42,2L145,110a7.55,7.55,0,0,0,3.42-5.92C148.44,101.87,146.91,101,145,102.07Z" transform="translate(-26.6 -67.41)"/></g><g id="Cloud-2" data-name="Cloud"><path id="_Path_93" data-name="&lt;Path&gt;" class="cls-25" d="M108.14,77l-9.38,5.41a11.33,11.33,0,0,0,.08-1.24V78.41c0-4.84-3.39-6.8-7.58-4.38a14.67,14.67,0,0,0-4.52,4.35c-.69-6.08-5.46-8.34-11.25-5C69.23,77,64.15,85.8,64.15,93v4.06a10.71,10.71,0,0,0,1,4.71l-7.79,4.5a9.3,9.3,0,0,0-4.21,7.28c0,2.68,1.88,3.77,4.21,2.43l50.82-29.34a9.3,9.3,0,0,0,4.21-7.28C112.35,76.7,110.47,75.62,108.14,77Z" transform="translate(-26.6 -67.41)"/></g></g></g><g id="Paper_Plane" data-name="Paper Plane"><g id="Paper_Plane-2" data-name="Paper Plane"><polygon id="_Path_94" data-name="&lt;Path&gt;" class="cls-3" points="378.36 97.31 413.74 74.66 429.32 79.66 378.36 97.31"/><polygon id="_Path_95" data-name="&lt;Path&gt;" class="cls-3" points="378.36 97.31 408.94 71.81 402.14 63.97 378.36 97.31"/><polygon id="_Path_96" data-name="&lt;Path&gt;" class="cls-3" points="408.94 71.81 408.94 77.73 378.36 97.31 408.94 71.81"/><polygon id="_Path_97" data-name="&lt;Path&gt;" class="cls-27" points="408.94 71.81 408.94 77.73 378.36 97.31 408.94 71.81"/><g id="_Group_38" data-name="&lt;Group&gt;"><path class="cls-2" d="M440.63,138.73a.75.75,0,0,1-.51-1.3,25.79,25.79,0,0,0,2.89-3.15.75.75,0,0,1,1.19.92,27.35,27.35,0,0,1-3.06,3.34A.75.75,0,0,1,440.63,138.73Zm5.63-7.47a.75.75,0,0,1-.67-1.09,25.15,25.15,0,0,0,2-5.46.75.75,0,1,1,1.46.35,26.59,26.59,0,0,1-2.1,5.79A.75.75,0,0,1,446.26,131.26ZM449,120.69h0a.75.75,0,0,1-.72-.78q0-.6,0-1.21a27.73,27.73,0,0,0-.39-4.61.75.75,0,0,1,1.48-.25,29.17,29.17,0,0,1,.41,4.86q0,.64,0,1.28A.75.75,0,0,1,449,120.69Zm-1.61-10.81a.75.75,0,0,1-.71-.5,31.88,31.88,0,0,0-2.42-5.33.75.75,0,0,1,1.3-.74,33.47,33.47,0,0,1,2.54,5.58.75.75,0,0,1-.46,1A.74.74,0,0,1,447.38,109.88Zm-5.25-9.61a.75.75,0,0,1-.59-.29,38.73,38.73,0,0,0-3.94-4.36.75.75,0,0,1,1-1.09,40.3,40.3,0,0,1,4.1,4.53.75.75,0,0,1-.59,1.21Zm-7.83-7.68a.75.75,0,0,1-.45-.15,48.24,48.24,0,0,0-4.92-3.25.75.75,0,1,1,.75-1.3,49.84,49.84,0,0,1,5.08,3.36.75.75,0,0,1-.45,1.35Zm-78.59-2.9a.75.75,0,0,1-.38-1.4c1.74-1,3.54-1.95,5.37-2.81a.75.75,0,1,1,.64,1.36c-1.79.84-3.56,1.77-5.26,2.75A.75.75,0,0,1,355.7,89.69ZM424.87,87a.74.74,0,0,1-.33-.07c-1.78-.86-3.61-1.65-5.45-2.36a.75.75,0,0,1,.54-1.4c1.88.72,3.75,1.53,5.56,2.41a.75.75,0,0,1-.33,1.43Zm-59.27-2a.75.75,0,0,1-.27-1.45c1.87-.73,3.8-1.4,5.73-2a.75.75,0,0,1,.43,1.44c-1.89.57-3.78,1.22-5.61,1.94A.75.75,0,0,1,365.6,84.94Zm49-2a.74.74,0,0,1-.22,0c-1.88-.57-3.81-1.08-5.74-1.5A.75.75,0,1,1,409,80c2,.43,3.94.94,5.86,1.53a.75.75,0,0,1-.22,1.47ZM376.1,81.69a.75.75,0,0,1-.17-1.48c2-.45,4-.83,6-1.12a.75.75,0,1,1,.22,1.48c-2,.29-3.92.66-5.84,1.1Zm27.82-1.15h-.11c-1.95-.29-3.93-.49-5.91-.62a.75.75,0,0,1,.1-1.5c2,.13,4,.34,6,.63a.75.75,0,0,1-.11,1.49ZM387,80a.75.75,0,0,1-.06-1.5c2-.16,4-.25,6.05-.25h0a.75.75,0,0,1,0,1.5c-2,0-4,.09-5.93.25Z" transform="translate(-26.6 -67.41)"/></g></g></g></svg>