<svg xmlns="http://www.w3.org/2000/svg" viewBox="0 0 471.22 456.94"><defs><style>.cls-1{fill:#f0f0f0;}.cls-2{fill:#e0e0e0;}.cls-3{fill:#27debf;}.cls-4{opacity:0.6;}.cls-5{opacity:0.3;}.cls-13,.cls-6{opacity:0.5;}.cls-7{fill:#263238;}.cls-8{opacity:0.7;}.cls-9{fill:#fafafa;}.cls-10,.cls-16{opacity:0.4;}.cls-11,.cls-13,.cls-16{fill:#fff;}.cls-12,.cls-22{opacity:0.15;}.cls-14{fill:#455a64;}.cls-15{fill:#37474f;}.cls-17{opacity:0.2;}.cls-18{opacity:0.1;}.cls-19{fill:#e6e6e6;}.cls-20{fill:#ffa8a7;}.cls-21{fill:#f28f8f;}.cls-22{fill:none;stroke:#000;stroke-miterlimit:10;}</style></defs><title>login</title><g id="Floor"><path id="Floor-2" data-name="Floor" class="cls-1" d="M415.65,253.84c92,53.12,92,139.25,0,192.37s-241.19,53.12-333.2,0-92-139.25,0-192.37S323.64,200.72,415.65,253.84Z" transform="translate(-13.44 -29.11)"/></g><g id="Shadow"><path id="Shadow-2" data-name="Shadow" class="cls-2" d="M384.36,397.22c-15.45-8.92-15.45-23.38,0-32.3s40.5-8.92,55.95,0,15.45,23.38,0,32.3S399.81,406.14,384.36,397.22Z" transform="translate(-13.44 -29.11)"/><path id="Shadow-3" data-name="Shadow" class="cls-2" d="M70.12,398.46,29.48,375c-2.29-1.32-2.29-3.47,0-4.79L265.87,233.73a9.17,9.17,0,0,1,8.3,0l40.64,23.46c2.29,1.32,2.29,3.47,0,4.79L78.42,398.46A9.17,9.17,0,0,1,70.12,398.46Z" transform="translate(-13.44 -29.11)"/></g><g id="Device"><g id="Device-2" data-name="Device"><g id="_Group_" data-name="&lt;Group&gt;"><g id="_Group_2" data-name="&lt;Group&gt;"><path id="_Path_" data-name="&lt;Path&gt;" class="cls-3" d="M216.2,356.64l34.94-20.2c3.6-2.08,5.4-4.8,5.4-7.53s0-4.86,0-4.86l-36.25-20.44a7.69,7.69,0,0,1-3.48-6V254.52l-61,35.26v43.07a7.69,7.69,0,0,0,3.48,6l30.84,17.77C197.32,360.8,209,360.8,216.2,356.64Z" transform="translate(-13.44 -29.11)"/></g><g id="_Group_3" data-name="&lt;Group&gt;" class="cls-4"><path id="_Path_2" data-name="&lt;Path&gt;" d="M216.2,356.64l34.94-20.2c3.6-2.08,5.4-4.8,5.4-7.53s0-4.86,0-4.86l-36.25-20.44a7.69,7.69,0,0,1-3.48-6V254.52l-61,35.26v43.07a7.69,7.69,0,0,0,3.48,6l30.84,17.77C197.32,360.8,209,360.8,216.2,356.64Z" transform="translate(-13.44 -29.11)"/></g><path id="_Path_3" data-name="&lt;Path&gt;" class="cls-5" d="M170.45,340.48v4.84l-11.18-6.45a7.69,7.69,0,0,1-3.47-6V289.78l11.63-6.71c.24,3,.5,6,.74,9L160,296.77v33.65a7.64,7.64,0,0,0,3.47,6Z" transform="translate(-13.44 -29.11)"/><path id="_Path_4" data-name="&lt;Path&gt;" class="cls-3" d="M160,330.43a7.69,7.69,0,0,0,3.48,6l26.62,15.33c7.2,4.16,18.88,4.16,26.09,0l35-20.2c7.2-4.16,7.2-10.9,0-15.06l-26.64-15.35a7.69,7.69,0,0,1-3.48-6V261.51l-61,35.26Z" transform="translate(-13.44 -29.11)"/><path id="_Path_5" data-name="&lt;Path&gt;" class="cls-5" d="M160,330.43a7.69,7.69,0,0,0,3.48,6l26.62,15.33c7.2,4.16,18.88,4.16,26.09,0l35-20.2c7.2-4.16,7.2-10.9,0-15.06l-26.64-15.35a7.69,7.69,0,0,1-3.48-6V261.51l-61,35.26Z" transform="translate(-13.44 -29.11)"/><path id="_Path_6" data-name="&lt;Path&gt;" class="cls-6" d="M231.6,305.28h0l-7.08-4.09a7.69,7.69,0,0,1-3.48-6V261.51l-61,35.26v33.66a7.69,7.69,0,0,0,3.48,6l7,4Z" transform="translate(-13.44 -29.11)"/><path id="_Path_7" data-name="&lt;Path&gt;" class="cls-3" d="M256.55,324.06v4.86c0,2.73-1.81,5.44-5.4,7.53L216.2,356.64a26.15,26.15,0,0,1-12.45,3.09v-4.84a26.15,26.15,0,0,0,12.45-3.09l34.94-20.21C254.74,329.52,256.55,326.79,256.55,324.06Z" transform="translate(-13.44 -29.11)"/><path id="_Path_8" data-name="&lt;Path&gt;" class="cls-6" d="M256.55,324.06v4.86c0,2.73-1.81,5.44-5.4,7.53L216.2,356.64a26.15,26.15,0,0,1-12.45,3.09v-4.84a26.15,26.15,0,0,0,12.45-3.09l34.94-20.21C254.74,329.52,256.55,326.79,256.55,324.06Z" transform="translate(-13.44 -29.11)"/></g><path id="_Path_9" data-name="&lt;Path&gt;" class="cls-3" d="M62,372.26a9.32,9.32,0,0,0,8.43-.16l236-136.25a9.61,9.61,0,0,0,4.35-7.53V37.41A9.32,9.32,0,0,0,306.72,30a9.32,9.32,0,0,0-8.43.16L62.3,166.45A9.61,9.61,0,0,0,58,174V364.89A9.32,9.32,0,0,0,62,372.26Z" transform="translate(-13.44 -29.11)"/><path id="_Path_10" data-name="&lt;Path&gt;" class="cls-3" d="M70.46,372.1l236-136.25a9.61,9.61,0,0,0,4.35-7.53V37.41c0-2.77-1.95-3.9-4.35-2.51l-236,136.25a9.61,9.61,0,0,0-4.35,7.53V369.59C66.11,372.36,68.06,373.49,70.46,372.1Z" transform="translate(-13.44 -29.11)"/><path id="_Path_11" data-name="&lt;Path&gt;" class="cls-6" d="M70.46,372.1l236-136.25a9.61,9.61,0,0,0,4.35-7.53V37.41c0-2.77-1.95-3.9-4.35-2.51l-236,136.25a9.61,9.61,0,0,0-4.35,7.53V369.59C66.11,372.36,68.06,373.49,70.46,372.1Z" transform="translate(-13.44 -29.11)"/><path id="_Path_12" data-name="&lt;Path&gt;" class="cls-3" d="M69.82,377.06A9.39,9.39,0,0,1,62,376.9,9.34,9.34,0,0,1,58,369.51V352.13l8.15,4.72v17.38C66.1,376.76,67.71,377.91,69.82,377.06Z" transform="translate(-13.44 -29.11)"/><path id="_Path_13" data-name="&lt;Path&gt;" class="cls-6" d="M69.82,377.06A9.39,9.39,0,0,1,62,376.9,9.34,9.34,0,0,1,58,369.51V352.13l8.15,4.72v17.38C66.1,376.76,67.71,377.91,69.82,377.06Z" transform="translate(-13.44 -29.11)"/><path id="_Path_14" data-name="&lt;Path&gt;" class="cls-3" d="M66.1,356.85v17.38c0,2.77,1.95,3.9,4.35,2.51l236-136.25A9.61,9.61,0,0,0,310.8,233V215.54Z" transform="translate(-13.44 -29.11)"/><path id="_Path_15" data-name="&lt;Path&gt;" class="cls-5" d="M66.11,356.81v17.41c0,2.77,1.95,3.9,4.35,2.51l236-136.25A9.61,9.61,0,0,0,310.8,233V215.54Z" transform="translate(-13.44 -29.11)"/><path id="_Path_16" data-name="&lt;Path&gt;" class="cls-3" d="M74.26,335V181.39a5.77,5.77,0,0,1,2.61-4.52L300,48c1.44-.83,2.61-.16,2.61,1.51V203.19a5.76,5.76,0,0,1-2.61,4.52L76.87,336.55C75.43,337.38,74.26,336.7,74.26,335Z" transform="translate(-13.44 -29.11)"/><path id="_Path_17" data-name="&lt;Path&gt;" class="cls-7" d="M74.26,335V181.39a5.77,5.77,0,0,1,2.61-4.52L300,48c1.44-.83,2.61-.16,2.61,1.51V203.19a5.76,5.76,0,0,1-2.61,4.52L76.87,336.55C75.43,337.38,74.26,336.7,74.26,335Z" transform="translate(-13.44 -29.11)"/><path id="_Path_18" data-name="&lt;Path&gt;" class="cls-3" d="M188.45,291.73a9,9,0,0,0-4.08,7.07c0,2.6,1.83,3.66,4.08,2.35a9,9,0,0,0,4.08-7.07C192.53,291.48,190.7,290.43,188.45,291.73Z" transform="translate(-13.44 -29.11)"/><path id="_Path_19" data-name="&lt;Path&gt;" class="cls-8" d="M67.39,174.38a9.23,9.23,0,0,0-1.28,4.3V356.85L58,352.13V174a9,9,0,0,1,1.28-4.3Z" transform="translate(-13.44 -29.11)"/><path id="_Path_20" data-name="&lt;Path&gt;" class="cls-5" d="M310.76,36.69c-.31-2.24-2.12-3.05-4.31-1.8l-236,136.26a9,9,0,0,0-3.07,3.23l-8.15-4.71a8.94,8.94,0,0,1,3.07-3.23L298.3,30.2a9.31,9.31,0,0,1,8.43-.15A9.35,9.35,0,0,1,310.76,36.69Z" transform="translate(-13.44 -29.11)"/></g></g><g id="Window"><g id="Window-2" data-name="Window"><g id="Window-3" data-name="Window"><g id="Window-4" data-name="Window"><g id="_Group_4" data-name="&lt;Group&gt;"><path class="cls-3" d="M323.49,60.19a2.14,2.14,0,0,0-2.22.18L98.59,188.95a6.73,6.73,0,0,0-3,5.27V346.94a3,3,0,0,0,1.28,2.65c.5.27,3.11,1.79,3.89,2.21a1.75,1.75,0,0,0,1.77-.1L325.16,223.06a6.72,6.72,0,0,0,3-5.27V64.33a2.11,2.11,0,0,0-.94-2C326.72,62,324.05,60.52,323.49,60.19Z" transform="translate(-13.44 -29.11)"/></g><g id="_Group_5" data-name="&lt;Group&gt;"><g id="_Group_6" data-name="&lt;Group&gt;"><path class="cls-9" d="M101.48,351.49c-.85,0-1.54-1-1.54-2.34V196.43a6.29,6.29,0,0,1,2.8-4.84L325.42,63a2.29,2.29,0,0,1,1.11-.35c.74,0,1.19.63,1.19,1.67V217.79a6.27,6.27,0,0,1-2.8,4.84L102.23,351.26A1.53,1.53,0,0,1,101.48,351.49Z" transform="translate(-13.44 -29.11)"/><path class="cls-2" d="M326.53,63.15h0c.6,0,.69.74.69,1.17V217.79a5.71,5.71,0,0,1-2.55,4.41L102,350.83a1,1,0,0,1-.51.16c-.56,0-1-.86-1-1.84V196.43A5.72,5.72,0,0,1,103,192L325.67,63.44a1.76,1.76,0,0,1,.86-.28m0-1a2.76,2.76,0,0,0-1.36.42L102.48,191.16a6.73,6.73,0,0,0-3,5.28V349.15c0,1.54.85,2.84,2,2.84a2,2,0,0,0,1-.29L325.16,223.06a6.72,6.72,0,0,0,3-5.27V64.33c0-1.38-.69-2.17-1.69-2.17Z" transform="translate(-13.44 -29.11)"/></g><path id="_Path_21" data-name="&lt;Path&gt;" class="cls-1" d="M96.82,349.59c.33.18,2.7,1.53,3.74,2.12a3.1,3.1,0,0,1-1.12-2.56V206.4l-3.9-2.28V346.94A3,3,0,0,0,96.82,349.59Z" transform="translate(-13.44 -29.11)"/></g><g id="_Group_7" data-name="&lt;Group&gt;"><path id="_Path_22" data-name="&lt;Path&gt;" class="cls-3" d="M328.21,64.3c0-1.92-1.37-2.7-3-1.74L102.48,191.16a6.73,6.73,0,0,0-3,5.28v10L328.21,74.3Z" transform="translate(-13.44 -29.11)"/><g id="_Group_8" data-name="&lt;Group&gt;" class="cls-10"><path class="cls-11" d="M325.17,62.57,102.48,191.15a6.26,6.26,0,0,0-2.15,2.26l-3.87-2.24a6.09,6.09,0,0,1,2.12-2.22L321.27,60.36a2.14,2.14,0,0,1,2.21-.18c.55.34,3.08,1.77,3.72,2.12A2.2,2.2,0,0,0,325.17,62.57Z" transform="translate(-13.44 -29.11)"/></g><path id="_Path_23" data-name="&lt;Path&gt;" class="cls-12" d="M95.54,204.13v-9.9a6.28,6.28,0,0,1,.93-3l3.88,2.23a6.16,6.16,0,0,0-.91,3v10Z" transform="translate(-13.44 -29.11)"/></g></g></g><g id="_Group_9" data-name="&lt;Group&gt;"><g id="_Group_10" data-name="&lt;Group&gt;"><path id="_Path_24" data-name="&lt;Path&gt;" class="cls-3" d="M281.25,179.42l-133.37,77a4.92,4.92,0,0,0-2.23,3.86v38.24a4.91,4.91,0,0,0,2.23,3.85l3.9,2.24a4.93,4.93,0,0,0,4.45,0l133.36-77a4.92,4.92,0,0,0,2.23-3.86l0-38.25a4.91,4.91,0,0,0-2.23-3.85l-3.9-2.24A4.93,4.93,0,0,0,281.25,179.42Z" transform="translate(-13.44 -29.11)"/><path id="_Path_25" data-name="&lt;Path&gt;" class="cls-13" d="M291.81,185.15c-.15-1.15-1.09-1.57-2.21-.93l-133.37,77a4.47,4.47,0,0,0-1.57,1.67l-8.35-4.82a4.55,4.55,0,0,1,1.56-1.64l133.38-77a4.92,4.92,0,0,1,4.45,0l3.9,2.24A5,5,0,0,1,291.81,185.15Z" transform="translate(-13.44 -29.11)"/><path id="_Path_26" data-name="&lt;Path&gt;" class="cls-7" d="M155.85,304.79a5,5,0,0,1-4.07-.17l-3.9-2.24a4.91,4.91,0,0,1-2.23-3.86V260.28a4.61,4.61,0,0,1,.66-2.21l8.35,4.82a4.46,4.46,0,0,0-.66,2.19v38.24C154,304.6,154.8,305.19,155.85,304.79Z" transform="translate(-13.44 -29.11)"/><path id="_Path_27" data-name="&lt;Path&gt;" class="cls-3" d="M156.23,261.23l133.37-77c1.23-.71,2.23-.13,2.22,1.29l0,38.25a4.92,4.92,0,0,1-2.23,3.86l-133.36,77c-1.23.71-2.23.13-2.23-1.29V265.09A4.92,4.92,0,0,1,156.23,261.23Z" transform="translate(-13.44 -29.11)"/><path id="_Path_28" data-name="&lt;Path&gt;" class="cls-14" d="M245.89,199.84l-98,56.59a4.55,4.55,0,0,0-1.56,1.64l8.35,4.82a4.47,4.47,0,0,1,1.57-1.67l98-56.58Z" transform="translate(-13.44 -29.11)"/><path id="_Path_29" data-name="&lt;Path&gt;" class="cls-15" d="M254.23,204.65l-98,56.58a4.92,4.92,0,0,0-2.23,3.86v38.24c0,1.42,1,2,2.23,1.29l98-56.58Z" transform="translate(-13.44 -29.11)"/></g><g id="_Group_11" data-name="&lt;Group&gt;"><path id="_Path_30" data-name="&lt;Path&gt;" class="cls-3" d="M178.83,256.58l50.57-29.2c2.1-1.21,3.8-.35,3.8,1.92a8.14,8.14,0,0,1-3.8,6.3L178.83,264.8c-2.1,1.21-3.8.35-3.8-1.92A8.14,8.14,0,0,1,178.83,256.58Z" transform="translate(-13.44 -29.11)"/></g><g id="_Group_12" data-name="&lt;Group&gt;"><path id="_Compound_Path_" data-name="&lt;Compound Path&gt;" class="cls-9" d="M189.19,266.24a.1.1,0,0,1,.15,0,.34.34,0,0,1,.06.23v5.69a9.11,9.11,0,0,1-.14,1.64,6.62,6.62,0,0,1-.42,1.44,4.82,4.82,0,0,1-.7,1.18,3.57,3.57,0,0,1-1,.83,1.79,1.79,0,0,1-1,.3,1,1,0,0,1-.7-.37,2.24,2.24,0,0,1-.42-1,6.94,6.94,0,0,1-.14-1.48v-5.69a.75.75,0,0,1,.06-.3.39.39,0,0,1,.15-.2l.63-.37a.1.1,0,0,1,.15,0,.35.35,0,0,1,.06.23v5.63a4,4,0,0,0,.09.92,1.14,1.14,0,0,0,.24.52.47.47,0,0,0,.38.16,1.07,1.07,0,0,0,.48-.16,2,2,0,0,0,.48-.4,2.25,2.25,0,0,0,.38-.59,3.69,3.69,0,0,0,.25-.8,5.29,5.29,0,0,0,.09-1v-5.62a.76.76,0,0,1,.06-.3.4.4,0,0,1,.15-.2Z" transform="translate(-13.44 -29.11)"/><path id="_Compound_Path_2" data-name="&lt;Compound Path&gt;" class="cls-9" d="M193.11,271.62a.34.34,0,0,0-.06-.22.25.25,0,0,0-.19-.07,1.58,1.58,0,0,0-.36,0l-.58.11a1.17,1.17,0,0,1-.57,0,.71.71,0,0,1-.36-.28,1.3,1.3,0,0,1-.19-.52,4.48,4.48,0,0,1-.05-.74,3.85,3.85,0,0,1,.11-.88,4.4,4.4,0,0,1,.32-.9,4.05,4.05,0,0,1,.5-.8,2.47,2.47,0,0,1,.68-.59,1.61,1.61,0,0,1,.68-.24.84.84,0,0,1,.51.11.85.85,0,0,1,.33.39,1.59,1.59,0,0,1,.13.58.65.65,0,0,1-.06.3.41.41,0,0,1-.15.2l-.6.35c-.08,0-.14.05-.18,0l-.13-.1a.34.34,0,0,0-.19-.06.71.71,0,0,0-.35.13,1.43,1.43,0,0,0-.41.36.86.86,0,0,0-.18.55.5.5,0,0,0,0,.23.19.19,0,0,0,.16.09,1.32,1.32,0,0,0,.34,0l.56-.11a.89.89,0,0,1,1,.26,2.13,2.13,0,0,1,.29,1.23,3.58,3.58,0,0,1-.12.88,4.39,4.39,0,0,1-.34.9,4,4,0,0,1-.55.82,2.83,2.83,0,0,1-.73.61,1.6,1.6,0,0,1-.73.25.86.86,0,0,1-.53-.14,1,1,0,0,1-.34-.43,1.65,1.65,0,0,1-.13-.61.65.65,0,0,1,.06-.3.42.42,0,0,1,.15-.2l.6-.35c.08,0,.14,0,.18,0l.13.15a.34.34,0,0,0,.21.1.71.71,0,0,0,.4-.13l.24-.17a1.68,1.68,0,0,0,.23-.22,1.31,1.31,0,0,0,.18-.27A.67.67,0,0,0,193.11,271.62Z" transform="translate(-13.44 -29.11)"/><path id="_Compound_Path_3" data-name="&lt;Compound Path&gt;" class="cls-9" d="M195.15,268.91a9,9,0,0,1,.13-1.54,7.64,7.64,0,0,1,.38-1.42,5.12,5.12,0,0,1,.61-1.15,2.56,2.56,0,0,1,.79-.75,1.11,1.11,0,0,1,.79-.17,1,1,0,0,1,.61.42,2.49,2.49,0,0,1,.39.9,5.51,5.51,0,0,1,.14,1.28v.62a.74.74,0,0,1-.06.3.39.39,0,0,1-.15.2l-2.61,1.51a1.51,1.51,0,0,0,.08.52.62.62,0,0,0,.2.3.41.41,0,0,0,.29.08.77.77,0,0,0,.34-.11,1.54,1.54,0,0,0,.41-.32,1.88,1.88,0,0,0,.26-.38,2.13,2.13,0,0,1,.14-.23.48.48,0,0,1,.15-.13l.63-.36a.11.11,0,0,1,.15,0,.31.31,0,0,1,.06.23,2.46,2.46,0,0,1-.12.57,4.41,4.41,0,0,1-.34.79,4.91,4.91,0,0,1-.56.82,2.84,2.84,0,0,1-.77.65,1.18,1.18,0,0,1-.79.19,1,1,0,0,1-.61-.42,2.68,2.68,0,0,1-.38-1A6.89,6.89,0,0,1,195.15,268.91Zm1.91-3.19a1.32,1.32,0,0,0-.39.34,2.27,2.27,0,0,0-.27.46,2.8,2.8,0,0,0-.17.51,3.44,3.44,0,0,0-.08.48l1.77-1a3.27,3.27,0,0,0-.06-.4.85.85,0,0,0-.14-.34.39.39,0,0,0-.26-.16A.66.66,0,0,0,197.07,265.72Z" transform="translate(-13.44 -29.11)"/><path id="_Compound_Path_4" data-name="&lt;Compound Path&gt;" class="cls-9" d="M202.13,262.93a1.57,1.57,0,0,0-.68.76,3.45,3.45,0,0,0-.21,1.32v3.61a.77.77,0,0,1-.06.3.39.39,0,0,1-.15.2l-.59.34a.11.11,0,0,1-.15,0,.34.34,0,0,1-.06-.23v-6.47a.75.75,0,0,1,.06-.3.4.4,0,0,1,.15-.2l.59-.34a.11.11,0,0,1,.15,0,.35.35,0,0,1,.06.23v.32a4.23,4.23,0,0,1,.43-.76,1.93,1.93,0,0,1,.61-.53l.35-.2a.11.11,0,0,1,.15,0,.35.35,0,0,1,.06.23v.92a.77.77,0,0,1-.06.3.39.39,0,0,1-.15.2Z" transform="translate(-13.44 -29.11)"/><path id="_Compound_Path_5" data-name="&lt;Compound Path&gt;" class="cls-9" d="M209.59,262.45a.11.11,0,0,1,.15,0,.35.35,0,0,1,.06.23v1a.77.77,0,0,1-.06.3.4.4,0,0,1-.15.2l-3.42,2a.11.11,0,0,1-.15,0,.35.35,0,0,1-.06-.23v-9a.77.77,0,0,1,.06-.3.39.39,0,0,1,.15-.2l.63-.37a.11.11,0,0,1,.15,0,.34.34,0,0,1,.06.23v7.61Z" transform="translate(-13.44 -29.11)"/><path id="_Compound_Path_6" data-name="&lt;Compound Path&gt;" class="cls-9" d="M212.66,255.05a1.31,1.31,0,0,1,.78-.21.93.93,0,0,1,.6.31,1.9,1.9,0,0,1,.41.74,4,4,0,0,1,.18,1.09c0,.08,0,.18,0,.32v.77c0,.12,0,.23,0,.32a7.27,7.27,0,0,1-.18,1.3,6.28,6.28,0,0,1-.4,1.2,4.73,4.73,0,0,1-.6,1,2.76,2.76,0,0,1-.78.68,1.31,1.31,0,0,1-.78.21.94.94,0,0,1-.6-.3,1.82,1.82,0,0,1-.4-.73,4.36,4.36,0,0,1-.18-1.09c0-.08,0-.18,0-.31s0-.25,0-.38,0-.26,0-.39,0-.24,0-.33a6.79,6.79,0,0,1,.18-1.3,6.72,6.72,0,0,1,.41-1.21,4.69,4.69,0,0,1,.6-1A2.75,2.75,0,0,1,212.66,255.05Zm.95,2.58a2.21,2.21,0,0,0-.11-.65.67.67,0,0,0-.22-.32.38.38,0,0,0-.29-.06,1,1,0,0,0-.32.12,1.6,1.6,0,0,0-.32.25,1.65,1.65,0,0,0-.29.4,2.62,2.62,0,0,0-.22.58,3.91,3.91,0,0,0-.11.78c0,.08,0,.17,0,.29s0,.23,0,.35,0,.24,0,.35,0,.2,0,.27a2.25,2.25,0,0,0,.11.65.66.66,0,0,0,.22.32.38.38,0,0,0,.29.06,1,1,0,0,0,.32-.12,1.61,1.61,0,0,0,.32-.25,1.65,1.65,0,0,0,.29-.4,2.62,2.62,0,0,0,.22-.58,3.84,3.84,0,0,0,.11-.78c0-.07,0-.16,0-.28v-.7C213.61,257.79,213.61,257.7,213.6,257.63Z" transform="translate(-13.44 -29.11)"/><path id="_Compound_Path_7" data-name="&lt;Compound Path&gt;" class="cls-9" d="M217.68,260.9a1.41,1.41,0,0,0,.34-.28,2.1,2.1,0,0,0,.31-.46,3,3,0,0,0,.23-.63,3,3,0,0,0,.09-.75v-.51c0,.11-.1.23-.16.37a3.22,3.22,0,0,1-.25.41,3.09,3.09,0,0,1-.34.4,2,2,0,0,1-.43.33.92.92,0,0,1-.71.14,1,1,0,0,1-.54-.41,2.55,2.55,0,0,1-.35-.84,5.29,5.29,0,0,1-.15-1.15c0-.14,0-.3,0-.48s0-.35,0-.49a7.94,7.94,0,0,1,.15-1.31,7.33,7.33,0,0,1,.35-1.24,4.79,4.79,0,0,1,.54-1,2.23,2.23,0,0,1,.71-.68,1.22,1.22,0,0,1,.43-.17.81.81,0,0,1,.34,0,.63.63,0,0,1,.25.13,1,1,0,0,1,.16.18v-.32a.75.75,0,0,1,.06-.3.39.39,0,0,1,.15-.2l.59-.34a.11.11,0,0,1,.15,0,.34.34,0,0,1,.06.23V258a6.84,6.84,0,0,1-.53,2.84,3.59,3.59,0,0,1-1.46,1.69,1.59,1.59,0,0,1-.74.24,1,1,0,0,1-.59-.16,1.18,1.18,0,0,1-.4-.48,1.82,1.82,0,0,1-.16-.72.62.62,0,0,1,.06-.3.41.41,0,0,1,.15-.2l.53-.31a.13.13,0,0,1,.19,0l.13.17a.46.46,0,0,0,.28.23A.8.8,0,0,0,217.68,260.9Zm-.94-4.85a6.33,6.33,0,0,0,0,.78,1.71,1.71,0,0,0,.31,1.12.51.51,0,0,0,.65,0,1.69,1.69,0,0,0,.64-.78,3.5,3.5,0,0,0,.3-1.33c0-.14,0-.32,0-.54s0-.39,0-.52a1.5,1.5,0,0,0-.3-1,.48.48,0,0,0-.64,0,1.7,1.7,0,0,0-.65.77A3.88,3.88,0,0,0,216.74,256.05Z" transform="translate(-13.44 -29.11)"/><path id="_Compound_Path_8" data-name="&lt;Compound Path&gt;" class="cls-9" d="M222,247.17a.1.1,0,0,1,.15,0,.35.35,0,0,1,.06.23v1.08a.75.75,0,0,1-.06.3.4.4,0,0,1-.15.2l-.67.39a.11.11,0,0,1-.15,0,.35.35,0,0,1-.06-.23v-1.08a.76.76,0,0,1,.06-.3.39.39,0,0,1,.15-.2Zm.17,9.38a.74.74,0,0,1-.06.3.4.4,0,0,1-.15.2l-.59.34a.11.11,0,0,1-.15,0,.34.34,0,0,1-.06-.23v-6.47a.74.74,0,0,1,.06-.3.39.39,0,0,1,.15-.2l.59-.34a.11.11,0,0,1,.15,0,.34.34,0,0,1,.06.23Z" transform="translate(-13.44 -29.11)"/><path id="_Compound_Path_9" data-name="&lt;Compound Path&gt;" class="cls-9" d="M227.43,253.51a.78.78,0,0,1-.06.3.4.4,0,0,1-.15.2l-.59.34a.11.11,0,0,1-.15,0,.34.34,0,0,1-.06-.23v-3.53a2.49,2.49,0,0,0-.22-1.21q-.22-.37-.67-.11a1.61,1.61,0,0,0-.65.88,4.19,4.19,0,0,0-.24,1.47v3.53a.77.77,0,0,1-.06.3.39.39,0,0,1-.15.2l-.59.34a.11.11,0,0,1-.15,0,.34.34,0,0,1-.06-.23v-6.47a.75.75,0,0,1,.06-.3.4.4,0,0,1,.15-.2l.59-.34a.1.1,0,0,1,.15,0,.35.35,0,0,1,.06.23V249a4.84,4.84,0,0,1,.48-.87,2,2,0,0,1,.65-.61,1.11,1.11,0,0,1,.8-.2.82.82,0,0,1,.51.41,2.46,2.46,0,0,1,.28.87,8.11,8.11,0,0,1,.08,1.2Z" transform="translate(-13.44 -29.11)"/></g><g id="_Group_13" data-name="&lt;Group&gt;"><path id="_Path_31" data-name="&lt;Path&gt;" class="cls-14" d="M277.87,224.4,268.16,230l1.51-13.62c-1.16-.61-1.9-2.13-1.9-4.3,0-3.87,2.35-8.36,5.25-10s5.25.1,5.25,4a13.2,13.2,0,0,1-1.9,6.49Z" transform="translate(-13.44 -29.11)"/><polygon id="_Path_32" data-name="&lt;Path&gt;" class="cls-15" points="264.44 195.29 255.89 190.36 254.72 200.9 264.44 195.29"/><path id="_Path_33" data-name="&lt;Path&gt;" class="cls-15" d="M273,202.05a11.47,11.47,0,0,0-4.48,5.95l7.83,4.52h0a13.2,13.2,0,0,0,1.9-6.49C278.27,202.15,275.92,200.38,273,202.05Z" transform="translate(-13.44 -29.11)"/></g></g><g id="_Group_14" data-name="&lt;Group&gt;"><g id="_Group_15" data-name="&lt;Group&gt;"><g id="_Group_16" data-name="&lt;Group&gt;"><path id="_Path_34" data-name="&lt;Path&gt;" class="cls-3" d="M225.8,156.7c-3.32-1.92-7.91-1.65-13,1.28-10.14,5.85-18.36,20.09-18.36,31.8,0,5.87,2.07,10,5.42,11.9l6.47,3.75c3.32,1.92,7.91,1.65,13-1.28,10.14-5.85,18.36-20.09,18.36-31.8,0-5.85-2.05-10-5.37-11.88" transform="translate(-13.44 -29.11)"/><path id="_Path_35" data-name="&lt;Path&gt;" class="cls-3" d="M219.32,161.75c-10.14,5.86-18.36,20.09-18.36,31.8s8.22,16.45,18.36,10.6,18.37-20.09,18.36-31.8S229.45,155.9,219.32,161.75Z" transform="translate(-13.44 -29.11)"/><path id="_Path_36" data-name="&lt;Path&gt;" class="cls-3" d="M229.45,187.73v1.34a29.46,29.46,0,0,1-10.14,10.62c-4,2.28-7.52,2.53-10.14,1.07V198a18,18,0,0,1,8.26-14.31l2.67-1.53c2.37-1.37,4.66-1.54,6.46-.5S229.45,184.92,229.45,187.73Z" transform="translate(-13.44 -29.11)"/><path id="_Path_37" data-name="&lt;Path&gt;" class="cls-16" d="M225.8,156.7l6.51,3.77c-3.32-1.92-7.91-1.65-13,1.28-6.64,3.84-12.45,11.27-15.68,19.23l-6.51-3.77c3.22-8,9-15.39,15.68-19.22C217.89,155.06,222.48,154.78,225.8,156.7Z" transform="translate(-13.44 -29.11)"/><path id="_Path_38" data-name="&lt;Path&gt;" class="cls-17" d="M206.1,205.29l-6.23-3.61c-3.34-1.91-5.42-6-5.42-11.9l6.51,3.77C201,199.26,202.92,203.32,206.1,205.29Z" transform="translate(-13.44 -29.11)"/><path id="_Path_39" data-name="&lt;Path&gt;" class="cls-18" d="M197.13,177.21l6.51,3.77A34.07,34.07,0,0,0,201,193.55h0l-6.51-3.77A34.12,34.12,0,0,1,197.13,177.21Z" transform="translate(-13.44 -29.11)"/></g></g><g id="_Group_17" data-name="&lt;Group&gt;"><g id="_Group_18" data-name="&lt;Group&gt;"><path id="_Compound_Path_10" data-name="&lt;Compound Path&gt;" class="cls-11" d="M217,181.52a3.5,3.5,0,0,1-1.77-.46,4.33,4.33,0,0,1-1.92-4,11.43,11.43,0,0,1,5.24-9.08h0a3.92,3.92,0,0,1,6.33,3.66,11.44,11.44,0,0,1-5.24,9.08A5.35,5.35,0,0,1,217,181.52Z" transform="translate(-13.44 -29.11)"/></g><g id="_Group_19" data-name="&lt;Group&gt;"><path id="_Compound_Path_11" data-name="&lt;Compound Path&gt;" class="cls-11" d="M226.57,181.65c-1.8-1-4.1-.87-6.46.5l-2.67,1.53A18,18,0,0,0,209.18,198v2.77c2.61,1.45,6.19,1.21,10.14-1.07a29.46,29.46,0,0,0,10.14-10.62v-1.34C229.45,184.92,228.41,182.71,226.57,181.65Z" transform="translate(-13.44 -29.11)"/></g></g></g></g></g><g id="Plants"><g id="Plants-2" data-name="Plants"><g id="_Group_20" data-name="&lt;Group&gt;"><g id="_Group_21" data-name="&lt;Group&gt;"><path id="_Path_40" data-name="&lt;Path&gt;" class="cls-3" d="M432.15,354.65s1.33-11.68,7.14-20.74,13.79-14.72,21.24-15.31,13.46,6.26,5.49,11-22.13,9.51-28.64,27.11Z" transform="translate(-13.44 -29.11)"/><path id="_Path_41" data-name="&lt;Path&gt;" class="cls-18" d="M432.15,354.65s1.33-11.68,7.14-20.74,13.79-14.72,21.24-15.31,13.46,6.26,5.49,11-22.13,9.51-28.64,27.11Z" transform="translate(-13.44 -29.11)"/></g><g id="_Group_22" data-name="&lt;Group&gt;"><path id="_Path_42" data-name="&lt;Path&gt;" class="cls-11" d="M434.34,351.61l-.08,0a.4.4,0,0,1-.22-.52c7.86-19.36,22.82-27.44,29.64-29a.4.4,0,1,1,.18.78c-6.68,1.54-21.34,9.48-29.08,28.53A.4.4,0,0,1,434.34,351.61Z" transform="translate(-13.44 -29.11)"/></g></g><g id="_Group_23" data-name="&lt;Group&gt;"><g id="_Group_24" data-name="&lt;Group&gt;"><g id="_Group_25" data-name="&lt;Group&gt;"><path id="_Path_43" data-name="&lt;Path&gt;" class="cls-3" d="M474.12,351.84c-.67,1.52-2.33,2.31-3.88,2.93s-3.22,1.29-4.05,2.73c-1.68,2.9,1.08,7-.73,9.81a5.2,5.2,0,0,1-3.55,2.06,34.6,34.6,0,0,1-3.49.31,13.92,13.92,0,0,1-1.66-.13,7.54,7.54,0,0,0-4.8.51c-2.31,1.3-3,4.21-4.42,6.46a11,11,0,0,1-7.77,4.88c-1,.14-3,.32-4-.27l-.22-.14,0,0c-.15-.16-.33-.37-.41-.49a.2.2,0,0,1,0-.07c-.41-1.51.26-3.07.29-4.63,0-.1,0-.19,0-.28-.06-1.81-.12-3.61-.16-5.41q-.13-5-.1-10c0-2.16-.24-4.52.68-6.55,1-2.23,3.52-2.28,4.47-4.48.38-.87.58-1.81,1-2.69a7.73,7.73,0,0,1,6.58-4.59c4.39-.22,8.32,3.33,12.71,3a33,33,0,0,0,3.36-.64c3.55-.67,7.66.35,9.66,3.35A4.6,4.6,0,0,1,474.12,351.84Z" transform="translate(-13.44 -29.11)"/></g></g><g id="_Group_26" data-name="&lt;Group&gt;"><path id="_Path_44" data-name="&lt;Path&gt;" class="cls-11" d="M434.7,373.52h0a.37.37,0,0,1-.26-.46c6.06-22.74,30-26,35.63-25.63a.37.37,0,1,1-.05.75c-5.48-.4-28.92,2.82-34.86,25.07A.37.37,0,0,1,434.7,373.52Z" transform="translate(-13.44 -29.11)"/></g><g id="_Group_27" data-name="&lt;Group&gt;"><path id="_Path_45" data-name="&lt;Path&gt;" class="cls-11" d="M461.33,362a.37.37,0,0,1-.2-.1,19.92,19.92,0,0,0-16.31-4.59.37.37,0,1,1-.11-.74,20.68,20.68,0,0,1,16.95,4.81.37.37,0,0,1-.33.63Z" transform="translate(-13.44 -29.11)"/></g></g></g></g><g id="Clouds"><g id="Clouds-2" data-name="Clouds"><path id="_Path_46" data-name="&lt;Path&gt;" class="cls-19" d="M377.12,80l3.18,1.22v-7c0-5.56,4.43-6.89,9.25-4.11h0c4.81,2.78,8.71,9.54,8.71,15.09v1a4.67,4.67,0,0,1,4,.62h0a13.86,13.86,0,0,1,6.27,10.86v.46l4.44,2.56a9.13,9.13,0,0,1,4.13,7.15c0,2.63-1.85,3.7-4.13,2.38l-35.9-20.72A9.13,9.13,0,0,1,373,82.39C373,79.76,374.83,78.69,377.12,80Z" transform="translate(-13.44 -29.11)"/><path id="_Path_47" data-name="&lt;Path&gt;" class="cls-19" d="M419.71,74.46l5.77,3.33a7,7,0,0,1,0-.76V75.36c0-3,2.09-4.18,4.66-2.69a9,9,0,0,1,2.78,2.67c.42-3.74,3.36-5.13,6.92-3.08a15.42,15.42,0,0,1,7,12.09v2.5a6.58,6.58,0,0,1-.59,2.9L451,92.51A5.72,5.72,0,0,1,453.56,97c0,1.65-1.16,2.32-2.59,1.49l-31.26-18A5.72,5.72,0,0,1,417.12,76C417.12,74.31,418.28,73.64,419.71,74.46Z" transform="translate(-13.44 -29.11)"/></g></g><g id="Character"><g id="Character-2" data-name="Character"><g id="_Group_28" data-name="&lt;Group&gt;"><g id="_Group_29" data-name="&lt;Group&gt;"><path id="_Path_48" data-name="&lt;Path&gt;" class="cls-20" d="M397.37,226.23c-4.2,7.1-8.24,13.27-11.08,16.23-5.39,2.51-18,6.36-23,7a3.68,3.68,0,0,1-2.49-.59c-1.95-1.28-3.45-1.48-5.51-2.19-1.61-.56-2.29-1.32-2.59-1a1.83,1.83,0,0,0,.17,2.55,13.3,13.3,0,0,0,2.54,1.9,15.06,15.06,0,0,1-6.7.11c-4.29-1.13-6.31.94-3.41,5.59,1,1.67,5.13,4.34,13.41,3.62a73.6,73.6,0,0,0,8.8-1c7.95-1.7,16.78-3.34,22.21-5a14.09,14.09,0,0,0,5.27-3.66c9.13-10.41,12.16-17.83,16.16-24.57l-.35-11C404.34,214,400.88,220.29,397.37,226.23Z" transform="translate(-13.44 -29.11)"/><path id="_Path_49" data-name="&lt;Path&gt;" class="cls-14" d="M411.93,214a10.43,10.43,0,0,0-9.9,4.23c-4.45,5.69-12.31,19.35-12.31,19.35s2.58,6.85,9.52,8l11.15-15.06S415.67,220.06,411.93,214Z" transform="translate(-13.44 -29.11)"/><g id="_Group_30" data-name="&lt;Group&gt;"><rect id="_Path_50" data-name="&lt;Path&gt;" class="cls-20" x="415.33" y="338.43" width="7.27" height="12.96"/><polygon id="_Path_51" data-name="&lt;Path&gt;" class="cls-20" points="397.4 337.74 390.14 338 389.77 324.28 397.4 324.02 397.4 337.74"/><path id="_Path_52" data-name="&lt;Path&gt;" class="cls-15" d="M437.06,255.35c0,7.23-1.06,65.4-1.06,65.4.17,2.08,2,5.91,1.64,13.9-.55,10.85-1.28,39.37-1.28,39.37a9.22,9.22,0,0,1-8.09.17s-5.89-40-7.19-50.71c-1.14-9.39-4-40.52-4-40.52l-3.94,36.74a44.75,44.75,0,0,1,.9,12c-.34,5-2.68,30.88-2.68,30.88a9.59,9.59,0,0,1-8.39.67s-4.13-39-4.22-43.58c-.1-5.2,2.42-64.42,2.42-64.42Z" transform="translate(-13.44 -29.11)"/><path id="_Path_53" data-name="&lt;Path&gt;" class="cls-7" d="M428.77,376.76v-1.08c-.7.32-2.31,6.74-5.19,9.48-2.29,2.18-5.42,4.69-6.21,7.12s4.35,3.92,6.5,3.52c2.49-.46,6.8-2.28,7.88-4s1.59-4.19,2.47-5.43,2.91-2.62,3.38-4.06a9.51,9.51,0,0,0-.42-4c-.34-1.34-.7-2.81-1.14-2.68,0,.16,0,.83,0,.83a5.61,5.61,0,0,1-3.63,1.28C431.34,377.82,428.76,377.6,428.77,376.76Z" transform="translate(-13.44 -29.11)"/><path id="_Path_54" data-name="&lt;Path&gt;" class="cls-7" d="M403.5,364.77c-.38,0-.68.57-1.52,1.51a15.92,15.92,0,0,1-4.28,3.2c-2.72,1.42-8,3.6-10.41,4.72-1.5.7-1.43,2.58.12,3.65s5.28,1.84,9.76.8c2.44-.57,5.62-2.92,7.63-2.79s5.78.1,7.26-1,.89-3.34.47-5.3c-.46-2.14-1-5.47-1.71-5.32V365c-.87,1.38-5.38,1.94-7.3.92Z" transform="translate(-13.44 -29.11)"/><path id="_Path_55" data-name="&lt;Path&gt;" class="cls-7" d="M417,282.95a26.6,26.6,0,0,1-10.12-6s2,3.81,7.76,7.35l-1.24,32.81Z" transform="translate(-13.44 -29.11)"/></g><g id="_Group_31" data-name="&lt;Group&gt;"><path id="_Path_56" data-name="&lt;Path&gt;" class="cls-3" d="M433,215.06s6,1.38,5.57,12.22l-1.26,17.26,0,25.9c-5.34,6.06-29,5.61-37.15-.48,0,0,.92-30.65,1.47-42.44C402,219.12,404,214.9,412.22,214l10.13.45Z" transform="translate(-13.44 -29.11)"/></g><g id="_Group_32" data-name="&lt;Group&gt;"><path id="_Path_57" data-name="&lt;Path&gt;" class="cls-7" d="M425.36,192.54a11.05,11.05,0,0,1-10.82,11.27c-6,0-9.51-5.18-10.82-11.27-2.39-11.13,4.84-11.27,10.82-11.27A11.05,11.05,0,0,1,425.36,192.54Z" transform="translate(-13.44 -29.11)"/><g id="_Group_33" data-name="&lt;Group&gt;"><path id="_Path_58" data-name="&lt;Path&gt;" class="cls-7" d="M430.88,197.09s-1.66,8.12-2.32,9.45a3.54,3.54,0,0,1-2,1.71l.12-5.71Z" transform="translate(-13.44 -29.11)"/><path id="_Path_59" data-name="&lt;Path&gt;" class="cls-7" d="M428.79,185.46s1.19-.3,2.45,1.68c1.08,1.69,1.33,5.5-.37,10l-3.13.37Z" transform="translate(-13.44 -29.11)"/><path id="_Path_60" data-name="&lt;Path&gt;" class="cls-7" d="M429.94,187.11l3.83.07a1.81,1.81,0,0,0-1.75-2A2.12,2.12,0,0,0,429.94,187.11Z" transform="translate(-13.44 -29.11)"/><path id="_Path_61" data-name="&lt;Path&gt;" class="cls-7" d="M430.41,186.2l2.84-2.73a1.83,1.83,0,0,0-2.69-.11A2.09,2.09,0,0,0,430.41,186.2Z" transform="translate(-13.44 -29.11)"/><path id="_Path_62" data-name="&lt;Path&gt;" class="cls-20" d="M426.81,197.47c.63.39,1.52-.86,2.29-1.71s3.2-1.64,4.46,1.12-.89,5.49-2.69,6.39c-3.23,1.6-4.25-.73-4.25-.73l-.26,12.86c-4.55,7-14.84,6.78-11.14-.34v-3.91a20.74,20.74,0,0,1-4.62.25c-2.52-.41-4.1-2.47-4.87-5.31-1.23-4.56-1.69-8.24-.65-17.21,1.14-9.83,12.12-9.93,18-6S426.81,197.47,426.81,197.47Z" transform="translate(-13.44 -29.11)"/><path id="_Path_63" data-name="&lt;Path&gt;" class="cls-7" d="M413.13,187.35c2.62-.26,5.21-.8,7.84-1a5.09,5.09,0,0,1,1.7.08c2,.54,1.75,2.88,2.07,4.52.55,2.82,1,7.59,2.07,7.61.32,0,1.51-2.07,2.29-2.8a4.08,4.08,0,0,0,.7-2.15c.2-1.17.31-2.35.4-3.53.08-1,.18-2,.17-3a13.81,13.81,0,0,0-.26-3.37,5.86,5.86,0,0,0-1.4-2.52l-.2-.22a13.28,13.28,0,0,0-4.69-3.16,28.27,28.27,0,0,0-7.94-1.73,81,81,0,0,1-8.09-1,.85.85,0,0,0-.47,0,.75.75,0,0,0-.38.6,3.33,3.33,0,0,0,1.36,3.29c-1.81.14-3.89-.8-5.64-1.27a1.15,1.15,0,0,0-.89,0,.89.89,0,0,0-.35.51,3.31,3.31,0,0,0,0,1.45,8.34,8.34,0,0,0,1.56,4,9.79,9.79,0,0,0,5.4,3.53A15.71,15.71,0,0,0,413.13,187.35Z" transform="translate(-13.44 -29.11)"/><path id="_Path_64" data-name="&lt;Path&gt;" class="cls-21" d="M415.24,211.16s5.62-1.18,7.59-2.27a6.62,6.62,0,0,0,2.72-2.8,9.41,9.41,0,0,1-1.54,3.3c-1.44,1.91-8.76,3.32-8.76,3.32Z" transform="translate(-13.44 -29.11)"/></g><g id="_Group_34" data-name="&lt;Group&gt;"><ellipse id="_Path_65" data-name="&lt;Path&gt;" class="cls-7" cx="417.71" cy="196" rx="1.13" ry="1.22" transform="translate(-13.99 -27.92) rotate(-0.16)"/><path id="_Path_66" data-name="&lt;Path&gt;" class="cls-7" d="M418.39,191.15l2.41,1.38a1.54,1.54,0,0,0-.56-2A1.32,1.32,0,0,0,418.39,191.15Z" transform="translate(-13.44 -29.11)"/><path id="_Path_67" data-name="&lt;Path&gt;" class="cls-21" d="M415.74,204.11l-2.57,1a1.34,1.34,0,0,0,1.75.89A1.52,1.52,0,0,0,415.74,204.11Z" transform="translate(-13.44 -29.11)"/><path id="_Path_68" data-name="&lt;Path&gt;" class="cls-7" d="M406.25,192.18l2.2-1.76a1.3,1.3,0,0,0-1.91-.31A1.56,1.56,0,0,0,406.25,192.18Z" transform="translate(-13.44 -29.11)"/><ellipse id="_Path_69" data-name="&lt;Path&gt;" class="cls-7" cx="408.35" cy="195.67" rx="1.13" ry="1.22" transform="translate(-14 -27.93) rotate(-0.17)"/><polygon id="_Path_70" data-name="&lt;Path&gt;" class="cls-21" points="399.81 165.62 399.68 172.74 395.64 171.81 399.81 165.62"/></g></g></g></g><g id="_Group_35" data-name="&lt;Group&gt;"><g id="_Group_36" data-name="&lt;Group&gt;"><polyline id="_Path_71" data-name="&lt;Path&gt;" class="cls-3" points="303.87 225.17 310.14 221.55 312.62 218.54 306.36 222.16 303.87 225.17"/><polyline id="_Path_72" data-name="&lt;Path&gt;" class="cls-10" points="303.87 225.17 310.14 221.55 312.62 218.54 306.36 222.16 303.87 225.17"/></g><g id="_Group_37" data-name="&lt;Group&gt;"><polyline id="_Path_73" data-name="&lt;Path&gt;" class="cls-3" points="320.92 235.01 327.19 231.39 332.42 226.76 326.16 230.38 320.92 235.01"/><polyline id="_Path_74" data-name="&lt;Path&gt;" class="cls-10" points="320.92 235.01 327.19 231.39 332.42 226.76 326.16 230.38 320.92 235.01"/></g><path id="_Compound_Path_12" data-name="&lt;Compound Path&gt;" class="cls-3" d="M387.62,276.61a13.36,13.36,0,0,1,2.59,6.82A13.36,13.36,0,0,1,387.62,276.61Zm14.56.19c-2.11-14.35-9.82-28.55-19-33.85-4.41-2.55-8.49-2.64-11.76-.73l-5.9,3.4a3.46,3.46,0,0,0-.33.2,8.63,8.63,0,0,0-.76.48,10.6,10.6,0,0,0-1.36,1.12l-.2.19c-.19.19-.37.39-.54.6s-.43.5-.63.77a14.53,14.53,0,0,0-1.15,1.77c-.17.31-.35.64-.51,1L308.52,222l-6.26,3.61v4l.53.31.49.29V231l-1,.6v2.32l7.57,16,7.48,4.33,2.49-3,6.6,3.95,3.79,6.5,4.17,2.41,5.23-4.64,6.43,3.71,2.16,8.9,10.76,6.21a59.2,59.2,0,0,0,2,6.69c.07.23.15.45.25.7,3.58,9.41,9.27,17.46,15.69,21.17a16.63,16.63,0,0,0,2.42,1.16,12.21,12.21,0,0,0,1.35.45,10.1,10.1,0,0,0,1.2.27,10.33,10.33,0,0,0,3.81,0l.52-.12a4.55,4.55,0,0,0,.73-.22l.56-.22a4.18,4.18,0,0,0,.58-.27,5.3,5.3,0,0,0,.53-.28l.27-.15a.39.39,0,0,0,.12-.07l5.91-3.4c4.76-2.76,7.84-9.74,7.84-19.6A51.41,51.41,0,0,0,402.19,276.8Z" transform="translate(-13.44 -29.11)"/><path id="_Compound_Path_13" data-name="&lt;Compound Path&gt;" class="cls-3" d="M385.79,288.72c-2.47-1.43-4.47-5.67-4.47-9.47s2-5.73,4.47-4.31,4.47,5.67,4.47,9.47S388.26,290.15,385.79,288.72Zm10.14-8.31c-2.11-14.34-9.82-28.54-19-33.84-4.26-2.46-8.19-2.64-11.4-.95a3.46,3.46,0,0,0-.33.2,8.63,8.63,0,0,0-.76.48,10.6,10.6,0,0,0-1.36,1.12l-.2.19c-.19.19-.37.39-.54.6s-.43.5-.63.77a14.53,14.53,0,0,0-1.15,1.77c-.17.31-.35.64-.51,1a24.75,24.75,0,0,0-2,6.09l-55.79-32.22v4l.53.31.49.29V231l-1,.6v2.32l7.57,16,7.48,4.33,2.49-3,6.6,3.95,3.79,6.5,4.17,2.41,5.23-4.64,6.43,3.71,2.16,8.9,10.76,6.21a59.2,59.2,0,0,0,2,6.69c.07.23.15.45.25.7,3.58,9.41,9.27,17.46,15.69,21.17a16.63,16.63,0,0,0,2.42,1.16,12.21,12.21,0,0,0,1.35.45,10.1,10.1,0,0,0,1.2.27,10.33,10.33,0,0,0,3.81,0l.52-.12a4.55,4.55,0,0,0,.73-.22l.56-.22a4.18,4.18,0,0,0,.58-.27,5.3,5.3,0,0,0,.53-.28l.27-.15a.39.39,0,0,0,.12-.07c4.56-2.88,7.49-9.76,7.49-19.39A53.1,53.1,0,0,0,395.92,280.41Z" transform="translate(-13.44 -29.11)"/><path id="_Path_75" data-name="&lt;Path&gt;" class="cls-10" d="M390.26,284.41c0,3.8-2,5.74-4.47,4.31s-4.48-5.66-4.48-9.47,2-5.74,4.48-4.31a6.33,6.33,0,0,1,1.83,1.68,13.44,13.44,0,0,0,2.59,6.82A7.86,7.86,0,0,1,390.26,284.41Z" transform="translate(-13.44 -29.11)"/><path id="_Path_76" data-name="&lt;Path&gt;" class="cls-16" d="M402.76,284.4c0,9.87-3.08,16.85-7.84,19.6l-5.91,3.4c4.56-2.88,7.49-9.76,7.49-19.39a53.1,53.1,0,0,0-.58-7.61c-2.11-14.34-9.82-28.54-19-33.84-4.26-2.46-8.19-2.64-11.4-.95l5.9-3.4c3.27-1.91,7.35-1.82,11.76.73,9.19,5.3,16.9,19.5,19,33.85A51.41,51.41,0,0,1,402.76,284.4Z" transform="translate(-13.44 -29.11)"/><g id="_Group_38" data-name="&lt;Group&gt;"><path id="_Path_77" data-name="&lt;Path&gt;" class="cls-3" d="M396.5,288c0,9.63-2.93,16.51-7.49,19.39l5.91-3.4c4.76-2.76,7.84-9.74,7.84-19.6,0-.36,0-.73,0-1.1l-6.26,3.61C396.49,287.29,396.5,287.65,396.5,288Z" transform="translate(-13.44 -29.11)"/><path id="_Path_78" data-name="&lt;Path&gt;" class="cls-18" d="M396.5,288c0,9.63-2.93,16.51-7.49,19.39l5.91-3.4c4.76-2.76,7.84-9.74,7.84-19.6,0-.36,0-.73,0-1.1l-6.26,3.61C396.49,287.29,396.5,287.65,396.5,288Z" transform="translate(-13.44 -29.11)"/></g><g id="_Group_39" data-name="&lt;Group&gt;"><polygon id="_Path_79" data-name="&lt;Path&gt;" class="cls-12" points="344.84 232.81 344.84 234.85 288.82 202.5 289.85 201.91 289.85 201.06 344.84 232.81"/><polygon id="_Path_80" data-name="&lt;Path&gt;" class="cls-12" points="344.84 233.65 344.84 234.85 288.82 202.5 289.85 201.91 289.85 201.9 344.84 233.65"/></g><path id="_Path_81" data-name="&lt;Path&gt;" class="cls-22" d="M360.61,267.3c0,13.87,7.3,29.32,16.31,34.52s16.31-1.83,16.31-15.69-7.3-29.32-16.31-34.52S360.61,253.43,360.61,267.3Z" transform="translate(-13.44 -29.11)"/><path id="_Path_82" data-name="&lt;Path&gt;" class="cls-16" d="M360,251.72a24.75,24.75,0,0,0-2,6.09l-55.79-32.22,6.26-3.61Z" transform="translate(-13.44 -29.11)"/></g><g id="_Group_40" data-name="&lt;Group&gt;"><path id="_Path_83" data-name="&lt;Path&gt;" class="cls-20" d="M432.51,254.85c2.93-5.53,6.26-18,7.92-24.22,2.36-8.9-1.46-14.5-5.79-14.73-2.72.41-11.64,32.89-11.64,32.89-1,.79-14.57,7.67-18.94,9.4a3.4,3.4,0,0,1-2.42,0c-2.1-.76-3.52-.62-5.57-.83-1.61-.16-2.42-.73-2.62-.39a1.83,1.83,0,0,0,.79,2.37,12.85,12.85,0,0,0,2.8,1.22,17,17,0,0,1-5.41.74c-4.19-.09-5.71,1.73-2.45,6,2,2.66,5.32,3.5,12.7,1,2.13-.74,5-2.17,7.69-3.14,5.55-2,7-2.23,11.23-3.67C426.93,259.37,431.21,257.31,432.51,254.85Z" transform="translate(-13.44 -29.11)"/><path id="_Path_84" data-name="&lt;Path&gt;" class="cls-14" d="M433,215.06c2.55.35,5,.93,6.51,3s2.72,5,1.24,13a123.45,123.45,0,0,1-4.54,16.47s-5.94,2.54-12.25-3.9l4.34-16.78S429,215.9,433,215.06Z" transform="translate(-13.44 -29.11)"/></g></g></g></svg>