<svg xmlns="http://www.w3.org/2000/svg" viewBox="0 0 444.24 314.93"><defs><style>.cls-1,.cls-16{fill:#fafafa;}.cls-2{fill:#27debf;}.cls-3{fill:#455a64;}.cls-10,.cls-4,.cls-5,.cls-6,.cls-9{fill:none;stroke-linecap:round;}.cls-16,.cls-4,.cls-5,.cls-6{stroke:#e0e0e0;}.cls-10,.cls-16,.cls-4,.cls-5,.cls-6,.cls-9{stroke-miterlimit:10;}.cls-4,.cls-5,.cls-6{stroke-width:1.5px;}.cls-5{stroke-dasharray:5.86 4.88;}.cls-6{stroke-dasharray:6 5;}.cls-7{fill:#37474f;}.cls-8{fill:#263238;}.cls-9{stroke:#263238;stroke-width:1.2px;}.cls-10{stroke:#fff;}.cls-11{opacity:0.2;}.cls-12,.cls-15{opacity:0.3;}.cls-13{opacity:0.5;}.cls-14{opacity:0.6;}.cls-15,.cls-21{fill:#fff;}.cls-17{opacity:0.1;}.cls-18{fill:#e0e0e0;}.cls-19{fill:#f28f8f;}.cls-20{opacity:0.4;}.cls-22{fill:#ebebeb;}.cls-23{fill:#ffa8a7;}</style></defs><title>password_reset_email</title><g id="Floor"><path id="_Path_" data-name="&lt;Path&gt;" class="cls-1" d="M90.72,374.39c83.79,43.77,219.63,43.77,303.41,0s83.79-114.74,0-158.51-219.63-43.77-303.41,0S6.93,330.62,90.72,374.39Z" transform="translate(-27.88 -92.28)"/></g><g id="Paperplanes"><g id="_Group_" data-name="&lt;Group&gt;"><g id="_Group_2" data-name="&lt;Group&gt;"><polygon id="_Path_2" data-name="&lt;Path&gt;" class="cls-2" points="56.43 59.74 109.23 43.33 68.61 71.47 56.43 59.74"/><polygon id="_Path_3" data-name="&lt;Path&gt;" class="cls-2" points="109.23 43.33 52.36 52.71 40.18 40.98 109.23 43.33"/><polygon id="_Path_4" data-name="&lt;Path&gt;" class="cls-3" points="52.36 52.71 52.36 66.78 56.43 59.74 109.23 43.33 52.36 52.71"/><polygon id="_Path_5" data-name="&lt;Path&gt;" class="cls-2" points="52.36 66.78 60.49 63.65 56.43 59.74 52.36 66.78"/><polygon id="_Path_6" data-name="&lt;Path&gt;" class="cls-3" points="56.43 59.74 60.49 63.65 59.19 64.15 56.43 59.74"/></g><g id="_Group_3" data-name="&lt;Group&gt;"><path class="cls-4" d="M74.15,154.82c-.87.41-1.76.87-2.67,1.37" transform="translate(-27.88 -92.28)"/><path class="cls-5" d="M67.33,158.73c-9.68,6.52-19.85,17.71-22.19,33.94-2.41,16.74,2.93,35.63,19.19,45.64" transform="translate(-27.88 -92.28)"/><path class="cls-4" d="M66.45,239.53q1.3.7,2.69,1.33" transform="translate(-27.88 -92.28)"/></g></g><g id="_Group_4" data-name="&lt;Group&gt;"><polygon id="_Path_7" data-name="&lt;Path&gt;" class="cls-2" points="383.31 113.04 425.61 85.95 444.24 91.94 383.31 113.04"/><polygon id="_Path_8" data-name="&lt;Path&gt;" class="cls-2" points="383.31 113.04 419.87 82.55 411.74 73.17 383.31 113.04"/><polygon id="_Path_9" data-name="&lt;Path&gt;" class="cls-3" points="419.87 82.55 419.87 89.63 383.31 113.04 419.87 82.55"/><path id="_Path_10" data-name="&lt;Path&gt;" class="cls-6" d="M352.29,114.72c26-15,59.91-16.38,87.51-.76,27.23,15.41,30.54,44.12,14,59.39" transform="translate(-27.88 -92.28)"/></g></g><g id="Mailbox"><g id="_Group_5" data-name="&lt;Group&gt;"><path id="_Path_11" data-name="&lt;Path&gt;" class="cls-7" d="M396.44,219.94v-1.6H396a6.28,6.28,0,0,0-2.59-2.54,15.93,15.93,0,0,0-14.42,0,6.28,6.28,0,0,0-2.59,2.54h-.39v1.55c0,1.53,1,3.07,3,4.23a15.93,15.93,0,0,0,14.42,0C395.46,223,396.45,221.46,396.44,219.94Z" transform="translate(-27.88 -92.28)"/><path id="_Path_12" data-name="&lt;Path&gt;" class="cls-3" d="M379,214.18a15.93,15.93,0,0,1,14.42,0c4,2.3,4,6,0,8.32a15.93,15.93,0,0,1-14.42,0C375.06,220.21,375.06,216.48,379,214.18Z" transform="translate(-27.88 -92.28)"/><path id="_Path_13" data-name="&lt;Path&gt;" class="cls-7" d="M383.63,169.3v48.34a1.31,1.31,0,0,0,.77,1.07,4.1,4.1,0,0,0,3.71,0,1.31,1.31,0,0,0,.77-1.07V169.3Z" transform="translate(-27.88 -92.28)"/><path id="_Path_14" data-name="&lt;Path&gt;" class="cls-3" d="M398,133.11c-2.55-1.47-4.87-1.59-6.61-.62h0L359,151.21l16.25,32.59,32.5-18.8V150.74C407.75,144.11,403.38,136.22,398,133.11Z" transform="translate(-27.88 -92.28)"/><path id="_Path_15" data-name="&lt;Path&gt;" class="cls-7" d="M375.25,169.53V183.8l-19.5-11.26V158.28c0-6.62,4.36-9.48,9.74-6.37,3.45,2,6.48,5.94,8.21,10.26A20.1,20.1,0,0,1,375.25,169.53Z" transform="translate(-27.88 -92.28)"/><path id="_Path_16" data-name="&lt;Path&gt;" class="cls-8" d="M375.25,169.53V183.8l-19.5-11.26,18-10.37A20.1,20.1,0,0,1,375.25,169.53Z" transform="translate(-27.88 -92.28)"/><path id="_Path_17" data-name="&lt;Path&gt;" class="cls-3" d="M372,174.42c-1.79-5.18-7.61-11.9-13-15s-8.29-1.43-6.5,3.75l3.25,9.38,19.5,11.26Z" transform="translate(-27.88 -92.28)"/><g id="_Group_6" data-name="&lt;Group&gt;"><path id="_Path_18" data-name="&lt;Path&gt;" class="cls-8" d="M385.41,170.07l-1.09-.63h0a1.46,1.46,0,0,0-1.45.15,4.57,4.57,0,0,0-2.07,3.58,1.46,1.46,0,0,0,.6,1.34h0l1,.58.18-.31a2.09,2.09,0,0,0,.59-.23,4.57,4.57,0,0,0,2.07-3.58,2.19,2.19,0,0,0-.07-.53Z" transform="translate(-27.88 -92.28)"/><path id="_Path_19" data-name="&lt;Path&gt;" class="cls-7" d="M383.9,170.19a4.57,4.57,0,0,0-2.07,3.58c0,1.32.93,1.85,2.07,1.19a4.57,4.57,0,0,0,2.07-3.58C386,170.06,385,169.53,383.9,170.19Z" transform="translate(-27.88 -92.28)"/></g><line id="_Path_20" data-name="&lt;Path&gt;" class="cls-9" x1="356.02" y1="80.26" x2="356.02" y2="59.62"/><polygon id="_Path_21" data-name="&lt;Path&gt;" class="cls-7" points="356.56 60.17 356.56 65.55 362.33 59.62 356.56 60.17"/></g></g><g id="Plants"><g id="_Group_7" data-name="&lt;Group&gt;"><path id="_Path_22" data-name="&lt;Path&gt;" class="cls-2" d="M81.08,330.91c-.5.27-9.67,2.88-13.07-1.62s2.24-11.49-.95-14.07-12.13,0-14.28-5.42,4.23-7.76.64-13.23c-2.26-3.45-8.58-5.35-8.29-8.56.42-4.69,9.06-6,16.6-.93s11.06.91,13.45.57,7.55.41,7.39,8.81S81.08,330.91,81.08,330.91Z" transform="translate(-27.88 -92.28)"/><path id="_Path_23" data-name="&lt;Path&gt;" class="cls-10" d="M50.53,286.35C60,289.09,79,302.23,81.69,318.46" transform="translate(-27.88 -92.28)"/><path id="_Path_24" data-name="&lt;Path&gt;" class="cls-10" d="M59.83,305.11s7.17-4.26,14.07-2.34" transform="translate(-27.88 -92.28)"/></g><g id="_Group_8" data-name="&lt;Group&gt;"><path id="_Path_25" data-name="&lt;Path&gt;" class="cls-2" d="M342.5,246.42c3.94.54,10.65-1.75,11.13-8.31s3.2-8.34,8.17-9.41,6.43-2.8,7-5.92-3.21-6.86-2.15-11.55,4.6-4.69,8.08-10c2.23-3.42-2.33-8.63-9.94-6.4s-7,7.15-14.62,7.78-12.38,5.25-12.52,11S342.5,246.42,342.5,246.42Z" transform="translate(-27.88 -92.28)"/><path id="_Path_26" data-name="&lt;Path&gt;" class="cls-11" d="M342.5,246.42c3.94.54,10.65-1.75,11.13-8.31s3.2-8.34,8.17-9.41,6.43-2.8,7-5.92-3.21-6.86-2.15-11.55,4.6-4.69,8.08-10c2.23-3.42-2.33-8.63-9.94-6.4s-7,7.15-14.62,7.78-12.38,5.25-12.52,11S342.5,246.42,342.5,246.42Z" transform="translate(-27.88 -92.28)"/><path id="_Path_27" data-name="&lt;Path&gt;" class="cls-10" d="M369.38,197.17c-5.21,1.81-24.74,18.48-28.32,36.16" transform="translate(-27.88 -92.28)"/></g></g><g id="Envelopes"><g id="_Group_9" data-name="&lt;Group&gt;"><g id="_Group_10" data-name="&lt;Group&gt;"><path id="_Path_28" data-name="&lt;Path&gt;" class="cls-2" d="M76.88,227.39a5.74,5.74,0,0,1,2.6-4.5l132.91-76.74a5.74,5.74,0,0,1,5.2,0l2.93,1.69a5.74,5.74,0,0,1,2.6,4.5V254.23a5.76,5.76,0,0,1-2.6,4.5L87.6,335.46a5.76,5.76,0,0,1-5.2,0l-2.93-1.69a5.76,5.76,0,0,1-2.6-4.5Z" transform="translate(-27.88 -92.28)"/><path id="_Path_29" data-name="&lt;Path&gt;" class="cls-12" d="M76.88,227.39a5.74,5.74,0,0,1,2.6-4.5l132.91-76.74a5.74,5.74,0,0,1,5.2,0l2.93,1.69a5.74,5.74,0,0,1,2.6,4.5V254.23a5.76,5.76,0,0,1-2.6,4.5L87.6,335.46a5.76,5.76,0,0,1-5.2,0l-2.93-1.69a5.76,5.76,0,0,1-2.6-4.5Z" transform="translate(-27.88 -92.28)"/><path id="_Path_30" data-name="&lt;Path&gt;" class="cls-2" d="M89.06,231.43l-11.42-6.6a5.31,5.31,0,0,0-.76,2.56V329.27a5.76,5.76,0,0,0,2.6,4.5l2.93,1.69a5.76,5.76,0,0,0,5.2,0l1.46-.84Z" transform="translate(-27.88 -92.28)"/><path id="_Path_31" data-name="&lt;Path&gt;" class="cls-13" d="M89.06,231.43l-11.42-6.6a5.31,5.31,0,0,0-.76,2.56V329.27a5.76,5.76,0,0,0,2.6,4.5l2.93,1.69a5.76,5.76,0,0,0,5.2,0l1.46-.84Z" transform="translate(-27.88 -92.28)"/><path id="_Path_32" data-name="&lt;Path&gt;" class="cls-2" d="M223.11,152.35V254.23a5.3,5.3,0,0,1-.81,2.63,5.58,5.58,0,0,1-1.52,1.7l-.1.06-.17.11L87.6,335.46h0a1.85,1.85,0,0,1-1.77.2A1.79,1.79,0,0,1,85,334V232.08a2.26,2.26,0,0,1,2.92-2.3l55.89,13.29,7.32,1.74a4.82,4.82,0,0,0,4.67-1.75l8.48-11.81,57.08-79.47C222.32,150.44,223.11,150.69,223.11,152.35Z" transform="translate(-27.88 -92.28)"/><path id="_Path_33" data-name="&lt;Path&gt;" class="cls-11" d="M223.11,152.35V254.23a5.3,5.3,0,0,1-.81,2.63,5.58,5.58,0,0,1-1.52,1.7l-.1.06-.17.11L87.6,335.46h0a1.85,1.85,0,0,1-1.77.2A1.79,1.79,0,0,1,85,334V232.08a2.26,2.26,0,0,1,2.92-2.3l55.89,13.29,7.32,1.74a4.82,4.82,0,0,0,4.67-1.75l8.48-11.81,57.08-79.47C222.32,150.44,223.11,150.69,223.11,152.35Z" transform="translate(-27.88 -92.28)"/><path id="_Path_34" data-name="&lt;Path&gt;" class="cls-2" d="M220.51,258.73l.17-.11.1-.06a5.58,5.58,0,0,0,1.52-1.7,5.33,5.33,0,0,0,.81-2.59l-58.83-23,39.39,37.2Z" transform="translate(-27.88 -92.28)"/><path id="_Path_35" data-name="&lt;Path&gt;" class="cls-14" d="M220.51,258.73l.17-.11.1-.06a5.58,5.58,0,0,0,1.52-1.7,5.33,5.33,0,0,0,.81-2.59l-58.83-23,39.39,37.2Z" transform="translate(-27.88 -92.28)"/><path id="_Path_36" data-name="&lt;Path&gt;" class="cls-2" d="M85,334a1.79,1.79,0,0,0,.81,1.71,1.85,1.85,0,0,0,1.77-.2h0L133.36,309l10.45-66L85,332.27Z" transform="translate(-27.88 -92.28)"/><path id="_Path_37" data-name="&lt;Path&gt;" class="cls-14" d="M85,334a1.79,1.79,0,0,0,.81,1.71,1.85,1.85,0,0,0,1.77-.2h0L133.36,309l10.45-66L85,332.27Z" transform="translate(-27.88 -92.28)"/><path id="_Path_38" data-name="&lt;Path&gt;" class="cls-2" d="M222.3,256.86a5.58,5.58,0,0,1-1.52,1.7l-.1.06L87.6,335.46h0a1.85,1.85,0,0,1-1.77.2l63.65-101.6A10,10,0,0,1,162,230.23Z" transform="translate(-27.88 -92.28)"/><path id="_Path_39" data-name="&lt;Path&gt;" class="cls-11" d="M222.3,256.86a5.58,5.58,0,0,1-1.52,1.7l-.1.06L87.6,335.46h0a1.85,1.85,0,0,1-1.77.2l63.65-101.6A10,10,0,0,1,162,230.23Z" transform="translate(-27.88 -92.28)"/></g><path id="_Path_40" data-name="&lt;Path&gt;" class="cls-2" d="M85,229.08l61.13,27a10,10,0,0,0,12.52-3.85L222.84,149.5Z" transform="translate(-27.88 -92.28)"/><path id="_Path_41" data-name="&lt;Path&gt;" class="cls-14" d="M85,229.08l61.13,27a10,10,0,0,0,12.52-3.85L222.84,149.5Z" transform="translate(-27.88 -92.28)"/><path id="_Path_42" data-name="&lt;Path&gt;" class="cls-2" d="M85,229.08l61.56,23a10,10,0,0,0,11.87-3.9l64.41-98.68Z" transform="translate(-27.88 -92.28)"/><path id="_Path_43" data-name="&lt;Path&gt;" class="cls-11" d="M85,229.08l61.56,23a10,10,0,0,0,11.87-3.9l64.41-98.68Z" transform="translate(-27.88 -92.28)"/></g><g id="_Group_11" data-name="&lt;Group&gt;"><g id="_Group_12" data-name="&lt;Group&gt;"><path id="_Path_44" data-name="&lt;Path&gt;" class="cls-3" d="M99.58,239.94a5.74,5.74,0,0,1,2.6-4.5L235.09,158.7a5.74,5.74,0,0,1,5.2,0l2.93,1.69a5.74,5.74,0,0,1,2.6,4.5V266.77a5.77,5.77,0,0,1-2.6,4.5L110.3,348a5.77,5.77,0,0,1-5.2,0l-2.93-1.69a5.76,5.76,0,0,1-2.6-4.5Z" transform="translate(-27.88 -92.28)"/><path id="_Path_45" data-name="&lt;Path&gt;" class="cls-3" d="M99.58,239.94a5.74,5.74,0,0,1,2.6-4.5L235.09,158.7a5.74,5.74,0,0,1,5.2,0l2.93,1.69a5.74,5.74,0,0,1,2.6,4.5V266.77a5.77,5.77,0,0,1-2.6,4.5L110.3,348a5.77,5.77,0,0,1-5.2,0l-2.93-1.69a5.76,5.76,0,0,1-2.6-4.5Z" transform="translate(-27.88 -92.28)"/><path id="_Path_46" data-name="&lt;Path&gt;" class="cls-8" d="M111.77,244l-11.42-6.6a5.31,5.31,0,0,0-.76,2.56V341.82a5.76,5.76,0,0,0,2.6,4.5l2.93,1.69a5.77,5.77,0,0,0,5.2,0l1.46-.84Z" transform="translate(-27.88 -92.28)"/><path id="_Path_47" data-name="&lt;Path&gt;" class="cls-7" d="M245.82,164.89V266.77a5.3,5.3,0,0,1-.81,2.63,5.56,5.56,0,0,1-1.52,1.7l-.1.06-.17.11L110.31,348h0a1.85,1.85,0,0,1-1.77.2,1.79,1.79,0,0,1-.81-1.71V244.62a2.26,2.26,0,0,1,2.92-2.3l55.89,13.29,7.32,1.74a4.83,4.83,0,0,0,4.67-1.75L187,243.79l57.08-79.47C245,163,245.82,163.23,245.82,164.89Z" transform="translate(-27.88 -92.28)"/><path id="_Path_48" data-name="&lt;Path&gt;" class="cls-8" d="M243.22,271.27l.17-.11.1-.06a5.56,5.56,0,0,0,1.52-1.7,5.32,5.32,0,0,0,.81-2.59l-58.83-23L226.38,281Z" transform="translate(-27.88 -92.28)"/><path id="_Path_49" data-name="&lt;Path&gt;" class="cls-8" d="M107.71,346.5a1.79,1.79,0,0,0,.81,1.71,1.85,1.85,0,0,0,1.77-.2h0l45.76-26.42,10.45-66-58.81,89.2Z" transform="translate(-27.88 -92.28)"/><path id="_Path_50" data-name="&lt;Path&gt;" class="cls-7" d="M245,269.4a5.56,5.56,0,0,1-1.52,1.7l-.1.06L110.31,348h0a1.85,1.85,0,0,1-1.77.2l63.64-101.6a10,10,0,0,1,12.51-3.84Z" transform="translate(-27.88 -92.28)"/></g><path id="_Path_51" data-name="&lt;Path&gt;" class="cls-8" d="M107.71,241.63l61.13,27a10,10,0,0,0,12.52-3.85L245.54,162Z" transform="translate(-27.88 -92.28)"/><path id="_Path_52" data-name="&lt;Path&gt;" class="cls-7" d="M107.71,241.63l61.56,23a10,10,0,0,0,11.87-3.9L245.54,162Z" transform="translate(-27.88 -92.28)"/></g><g id="_Group_13" data-name="&lt;Group&gt;"><path id="_Path_53" data-name="&lt;Path&gt;" class="cls-2" d="M197.07,320.81V218.93a10.94,10.94,0,0,1,1.75-5.44l63.39-88.27a10,10,0,0,1,10.43-3.9l59.61,14.17a24.73,24.73,0,0,1,5.52,2.19l2.93,1.69a5.76,5.76,0,0,1,2.6,4.5V245.77a5.77,5.77,0,0,1-2.6,4.5L207.79,327a5.77,5.77,0,0,1-5.2,0l-2.93-1.69A5.76,5.76,0,0,1,197.07,320.81Z" transform="translate(-27.88 -92.28)"/><path id="_Path_54" data-name="&lt;Path&gt;" class="cls-15" d="M197.07,320.81V218.93a10.94,10.94,0,0,1,1.75-5.44l63.39-88.27a10,10,0,0,1,10.43-3.9l59.61,14.17a24.73,24.73,0,0,1,5.52,2.19l2.93,1.69a5.76,5.76,0,0,1,2.6,4.5V245.77a5.77,5.77,0,0,1-2.6,4.5L207.79,327a5.77,5.77,0,0,1-5.2,0l-2.93-1.69A5.76,5.76,0,0,1,197.07,320.81Z" transform="translate(-27.88 -92.28)"/><path id="_Path_55" data-name="&lt;Path&gt;" class="cls-16" d="M209.25,169.69v130c0,1.66,1.16,2.33,2.6,1.5l124.79-72a5.74,5.74,0,0,0,2.6-4.5v-130c0-1.66-1.16-2.33-2.6-1.5l-124.79,72A5.74,5.74,0,0,0,209.25,169.69Z" transform="translate(-27.88 -92.28)"/><path id="_Path_56" data-name="&lt;Path&gt;" class="cls-2" d="M206.56,221.41l-9-5.2a9.65,9.65,0,0,0-.48,2.72V320.81a5.76,5.76,0,0,0,2.6,4.5L202.6,327a5.76,5.76,0,0,0,5.2,0l1.25-.72Z" transform="translate(-27.88 -92.28)"/><g class="cls-17"><path id="_Path_57" data-name="&lt;Path&gt;" d="M206.56,221.41l-9-5.2a9.65,9.65,0,0,0-.48,2.72V320.81a5.76,5.76,0,0,0,2.6,4.5L202.6,327a5.76,5.76,0,0,0,5.2,0l1.25-.72Z" transform="translate(-27.88 -92.28)"/></g><path id="_Path_58" data-name="&lt;Path&gt;" class="cls-2" d="M343.31,143.89V245.77a5.3,5.3,0,0,1-.81,2.63,5.58,5.58,0,0,1-1.52,1.7l-.1.06-.17.11L207.8,327h0a1.85,1.85,0,0,1-1.77.2,1.79,1.79,0,0,1-.81-1.71V223.62a2.26,2.26,0,0,1,2.92-2.3L264,234.61l7.32,1.74A4.82,4.82,0,0,0,276,234.6l8.48-11.81,57.08-79.47C342.52,142,343.31,142.23,343.31,143.89Z" transform="translate(-27.88 -92.28)"/><path id="_Path_59" data-name="&lt;Path&gt;" class="cls-15" d="M343.31,143.89V245.77a5.3,5.3,0,0,1-.81,2.63,5.58,5.58,0,0,1-1.52,1.7l-.1.06-.17.11L207.8,327h0a1.85,1.85,0,0,1-1.77.2,1.79,1.79,0,0,1-.81-1.71V223.62a2.26,2.26,0,0,1,2.92-2.3L264,234.61l7.32,1.74A4.82,4.82,0,0,0,276,234.6l8.48-11.81,57.08-79.47C342.52,142,343.31,142.23,343.31,143.89Z" transform="translate(-27.88 -92.28)"/><path id="_Path_60" data-name="&lt;Path&gt;" class="cls-2" d="M340.71,250.27l.17-.11.1-.06a5.58,5.58,0,0,0,1.52-1.7,5.33,5.33,0,0,0,.81-2.59l-58.83-23L323.87,260Z" transform="translate(-27.88 -92.28)"/><path id="_Path_61" data-name="&lt;Path&gt;" class="cls-2" d="M205.2,325.5a1.79,1.79,0,0,0,.81,1.71,1.85,1.85,0,0,0,1.77-.2h0l45.76-26.42,10.45-66-58.81,89.2Z" transform="translate(-27.88 -92.28)"/><path id="_Path_62" data-name="&lt;Path&gt;" class="cls-2" d="M342.5,248.4a5.58,5.58,0,0,1-1.52,1.7l-.1.06L207.8,327h0a1.85,1.85,0,0,1-1.77.2l63.65-101.61a10,10,0,0,1,12.51-3.84Z" transform="translate(-27.88 -92.28)"/><path id="_Path_63" data-name="&lt;Path&gt;" class="cls-15" d="M342.5,248.4a5.58,5.58,0,0,1-1.52,1.7l-.1.06L207.8,327h0a1.85,1.85,0,0,1-1.77.2l63.65-101.61a10,10,0,0,1,12.51-3.84Z" transform="translate(-27.88 -92.28)"/><g id="_Group_14" data-name="&lt;Group&gt;"><path id="_Compound_Path_" data-name="&lt;Compound Path&gt;" class="cls-18" d="M264.2,199.63a7.29,7.29,0,0,1-6.41-2.2q-2.28-2.54-2.28-7.81a27.91,27.91,0,0,1,2.44-11.48,34.7,34.7,0,0,1,6.87-10A47.46,47.46,0,0,1,275.26,160q5.62-3.24,9.61-3.6t6.06,2.06q2.06,2.41,2.06,7.32a19.28,19.28,0,0,1-2.24,9.35,15.61,15.61,0,0,1-5.92,6.25,4.38,4.38,0,0,1-3,.79,2,2,0,0,1-1.56-1.51,18.42,18.42,0,0,1-3.14,4.29,19.76,19.76,0,0,1-4.28,3.33q-4.08,2.31-6.5,1.47T264,184.9a16.86,16.86,0,0,1,3-9.49,24,24,0,0,1,8.16-7.48,15.48,15.48,0,0,1,4.39-1.77,6.83,6.83,0,0,1,3.51,0v10.53q0,1.27.44,1.57t1.45-.29a6.45,6.45,0,0,0,2.66-3.51,17.39,17.39,0,0,0,.94-6.07q0-3.95-1.71-5.73a5.37,5.37,0,0,0-4.72-1.45,18.17,18.17,0,0,0-6.87,2.56,33.67,33.67,0,0,0-11.15,10A22.87,22.87,0,0,0,260,187q0,4.3,1.78,6.28a5.47,5.47,0,0,0,4.87,1.69,17.92,17.92,0,0,0,7-2.58,28.84,28.84,0,0,0,4.15-2.92,21.76,21.76,0,0,0,3.27-3.34,1.56,1.56,0,0,1,.35-.33c.09-.05.17,0,.26.11l1.1,2a1.15,1.15,0,0,1,.09.26,1,1,0,0,1-.31.57,29.92,29.92,0,0,1-4,4,34.32,34.32,0,0,1-4.89,3.44A23.62,23.62,0,0,1,264.2,199.63Zm13-18.81a6.67,6.67,0,0,0,1.58-4v-6.1a8.63,8.63,0,0,0-4,1.38,13.79,13.79,0,0,0-4.74,4.4,10.17,10.17,0,0,0-1.76,5.67q0,2.55,1.27,3t4-1.07A12.43,12.43,0,0,0,277.24,180.83Z" transform="translate(-27.88 -92.28)"/></g></g></g><g id="Notifications"><g id="_Group_15" data-name="&lt;Group&gt;"><path id="_Path_64" data-name="&lt;Path&gt;" class="cls-19" d="M136.84,209.65,127.09,204h0l-.07,0h0c-3.34-1.88-7.92-1.6-13,1.32-10.2,5.89-18.48,20.22-18.48,32,0,5.88,2.06,10,5.4,12h0l9.07,5.2,1.63-2.74a18.77,18.77,0,0,0,5.3-2.06c10.2-5.89,18.48-20.22,18.48-32a19.83,19.83,0,0,0-.58-4.72Z" transform="translate(-27.88 -92.28)"/><path id="_Path_65" data-name="&lt;Path&gt;" class="cls-2" d="M136.84,209.65,127.09,204h0l-.07,0h0c-3.34-1.88-7.92-1.6-13,1.32-10.2,5.89-18.48,20.22-18.48,32,0,5.88,2.06,10,5.4,12h0l9.07,5.2,1.63-2.74a18.77,18.77,0,0,0,5.3-2.06c10.2-5.89,18.48-20.22,18.48-32a19.83,19.83,0,0,0-.58-4.72Z" transform="translate(-27.88 -92.28)"/><path id="_Path_66" data-name="&lt;Path&gt;" class="cls-20" d="M136.84,209.65,127.09,204h0l-.07,0h0c-3.34-1.88-7.92-1.6-13,1.32-10.2,5.89-18.48,20.22-18.48,32,0,5.88,2.06,10,5.4,12h0l9.07,5.2,1.63-2.74a18.77,18.77,0,0,0,5.3-2.06c10.2-5.89,18.48-20.22,18.48-32a19.83,19.83,0,0,0-.58-4.72Z" transform="translate(-27.88 -92.28)"/><path id="_Path_67" data-name="&lt;Path&gt;" class="cls-2" d="M123.39,210.7c-10.21,5.89-18.48,20.22-18.48,32s8.27,16.56,18.48,10.67,18.48-20.22,18.48-32S133.6,204.81,123.39,210.7Z" transform="translate(-27.88 -92.28)"/></g><g id="_Group_16" data-name="&lt;Group&gt;"><path id="_Compound_Path_2" data-name="&lt;Compound Path&gt;" class="cls-21" d="M116.17,245.52c-.19,0-.29-.11-.29-.28a1.41,1.41,0,0,1,.16-.54l.92-2.09a.73.73,0,0,1,.79-.62,9,9,0,0,0,2.44-.48,15.84,15.84,0,0,0,3-1.39A12,12,0,0,0,127,236.9a5.94,5.94,0,0,0,1.23-3.49q0-3.31-4-1L121.55,234c-.42.24-.73.33-.91.25s-.27-.31-.27-.72v-.83a1.73,1.73,0,0,1,.27-1,2.63,2.63,0,0,1,.91-.78l2.61-1.51a7.07,7.07,0,0,0,2.58-2.4,5.33,5.33,0,0,0,.86-2.8q0-3.21-4.52-.6a19.7,19.7,0,0,0-4.93,4,2.62,2.62,0,0,1-.45.42c-.11.06-.22,0-.35-.08l-.89-1a.5.5,0,0,1-.16-.36,1.06,1.06,0,0,1,.29-.61,18.74,18.74,0,0,1,3-3,30.62,30.62,0,0,1,4.11-2.82,12.71,12.71,0,0,1,4.25-1.69,2.88,2.88,0,0,1,3.74,3.22,8.18,8.18,0,0,1-.72,3.18,11.2,11.2,0,0,1-2.05,3.16,2.69,2.69,0,0,1,2.56.48,3.55,3.55,0,0,1,.84,2.62,10.53,10.53,0,0,1-2.21,6.1,19.5,19.5,0,0,1-6.29,5.46Q118.62,245.76,116.17,245.52Z" transform="translate(-27.88 -92.28)"/></g></g><g id="Character"><g id="_Group_17" data-name="&lt;Group&gt;"><path id="_Path_68" data-name="&lt;Path&gt;" class="cls-22" d="M291.83,315.13c-19.71,11.38-19.71,29.82,0,41.2s51.66,11.38,71.36,0,19.71-29.82,0-41.2S311.53,303.75,291.83,315.13Z" transform="translate(-27.88 -92.28)"/><path id="_Compound_Path_3" data-name="&lt;Compound Path&gt;" class="cls-23" d="M325.87,354.09h0l.19-.17c.14-.12.28-.24.42-.37l.45-.44.45-.43a10.9,10.9,0,0,0,.76-.78l3.56,2.66,2.37,1.77,0,0a11.61,11.61,0,0,0-2.08,3.16s-.71,1.15-3.12.57C325.88,359.38,325.41,355,325.87,354.09Z" transform="translate(-27.88 -92.28)"/><g id="_Group_18" data-name="&lt;Group&gt;"><path id="_Path_69" data-name="&lt;Path&gt;" class="cls-2" d="M291,352.87c-2.72-3.16-.3-8.41,2.34-15.22,2.9-7.49,7.38-20.22,7.38-20.22l31.81-6.57s33.89-.66,37,5.83c2.52,5.18-19.8,13-23,13.28L326.94,331l-2.06,1-13.76,17.42Z" transform="translate(-27.88 -92.28)"/><g id="_Group_19" data-name="&lt;Group&gt;"><path id="_Path_70" data-name="&lt;Path&gt;" class="cls-2" d="M349.61,322a81,81,0,0,0-6.88,8c-5.73,8-14.8,22.53-14.8,22.53s1.42,4.61,5.74,4.4c0,0,29.8-27.83,32.24-30.4,3.7-3.9,6.65-10.33.27-10.86S352.09,319.32,349.61,322Z" transform="translate(-27.88 -92.28)"/></g><path id="_Path_71" data-name="&lt;Path&gt;" class="cls-2" d="M342.56,330.16s5.31-7.79,10.83-11c0,0-5.48,1.08-13.77,11.19Z" transform="translate(-27.88 -92.28)"/><path id="_Path_72" data-name="&lt;Path&gt;" class="cls-17" d="M342.56,330.16s5.31-7.79,10.83-11c0,0-5.48,1.08-13.77,11.19Z" transform="translate(-27.88 -92.28)"/><g id="_Group_20" data-name="&lt;Group&gt;"><path id="_Path_73" data-name="&lt;Path&gt;" class="cls-23" d="M346.18,340l-2.09.39,1.94,7.17s1.88-.18,2.53-.14a10.49,10.49,0,0,0,2.72-1.05l-.51-4.38-2.3-2.4Z" transform="translate(-27.88 -92.28)"/><path id="_Path_74" data-name="&lt;Path&gt;" class="cls-8" d="M362.68,341.69a7.83,7.83,0,0,1,4.38,4.46,21.94,21.94,0,0,1,1.09,3.24c.33,1.16.17,3.14-1.3,3.45a2.49,2.49,0,0,1-1.39-.25c-2.94-1.15-5.83-2.46-8.85-3.42a29.12,29.12,0,0,0-8.05-1.76,5.56,5.56,0,0,0-.24-6.41,3.85,3.85,0,0,0-2.13-1c.76-.34,1.47-.78,2.2-1.19a6.66,6.66,0,0,1,4.67-1.16c1.26.28,2.22,1.28,3.29,2C358.38,341,360.35,340.91,362.68,341.69Z" transform="translate(-27.88 -92.28)"/><path id="_Path_75" data-name="&lt;Path&gt;" class="cls-2" d="M295.29,346c2.63-.81,6.83-1.52,19.29-2.16s29.51-3.44,29.51-3.44c2.9,2.79,1.94,7.17,1.94,7.17s-22.13,7-29.34,7.93c-11.47,1.48-15.44,1.37-20.62.26C290.25,354.5,286.58,348.67,295.29,346Z" transform="translate(-27.88 -92.28)"/></g></g><polygon id="_Path_76" data-name="&lt;Path&gt;" class="cls-19" points="312.95 194.37 322.31 216.73 315.61 220.86 302.73 199.05 312.95 194.37"/><path id="_Path_77" data-name="&lt;Path&gt;" class="cls-18" d="M321.47,265.57c5.12.05,10.75,1.91,12.69,5.92s8,16.5,8,16.5-4.52,6.62-11.69,6.15Z" transform="translate(-27.88 -92.28)"/><g id="_Group_21" data-name="&lt;Group&gt;"><path id="_Path_78" data-name="&lt;Path&gt;" class="cls-23" d="M287.43,300.34c.06-.87,1.31-5.12,2.65-9.7L299.8,294l-2.61,8.22L289,310A12.88,12.88,0,0,1,287.43,300.34Z" transform="translate(-27.88 -92.28)"/><path id="_Path_79" data-name="&lt;Path&gt;" class="cls-1" d="M311,265.88c-6.1,1.47-14.41,3.38-16.82,10s-5.86,18.31-5.86,18.31c1.34,2.32,8.69,4.25,11.24,2.9l1.2-4v24.32c4.77,5.19,28.3,3.86,31.81-6.57V277.71c0-5.3-2.94-11.66-11.07-12.13Z" transform="translate(-27.88 -92.28)"/><polygon id="_Path_80" data-name="&lt;Path&gt;" class="cls-18" points="272.85 200.83 275.91 191.2 272.85 205.14 272.85 200.83"/><g id="_Group_22" data-name="&lt;Group&gt;"><g id="_Group_23" data-name="&lt;Group&gt;"><path id="_Path_81" data-name="&lt;Path&gt;" class="cls-8" d="M308.68,238.77a3.62,3.62,0,0,0-3,1.05c-1.29,1.32-1,3.76,0,9.36l4,.46Z" transform="translate(-27.88 -92.28)"/><path id="_Path_82" data-name="&lt;Path&gt;" class="cls-8" d="M331.89,237.15a6.23,6.23,0,0,0,2.49-.51c1.22-.7,1.54.69.87,1.89a5.69,5.69,0,0,1-4.62,3.08c0-.17-1.14-3.11-1.14-3.11Z" transform="translate(-27.88 -92.28)"/><path id="_Path_83" data-name="&lt;Path&gt;" class="cls-23" d="M310.55,249.64c-.59.35-1.43-.78-2.16-1.54a2.56,2.56,0,0,0-4.29.7c-1.21,2.55,1.54,5.94,3.15,7.06a2.83,2.83,0,0,0,3.31.29l.42,9.75a10.39,10.39,0,0,0,7.84,5.95c5.72.78,4.54-3.94,2.67-6.26V262a13.57,13.57,0,0,0,4.35.22c.75-.2,2.53-2.35,3.68-4.76,1.29-2.7,3.44-7.51,1.53-15.63-2.05-8.72-11.42-9-17-5.47S310.55,249.64,310.55,249.64Z" transform="translate(-27.88 -92.28)"/><path id="_Path_84" data-name="&lt;Path&gt;" class="cls-8" d="M310.55,250.63c-.3,0-1.43-1.87-2.16-2.54-1-.93.3-9.33.3-9.33s-1-3.19,1-5.3,5.92-1.76,8.77-1.86a25.65,25.65,0,0,0,10.21-2c4.05-1.76,4.36-2,4.86-.19s.69,5.86-1.73,8.59l-1.31,2.15s-1.23,1-5,1.5-10.23-1.57-11-1.68c-1.1-.15-1.33.91-1.92,3.82C312,246.29,311.55,250.61,310.55,250.63Z" transform="translate(-27.88 -92.28)"/><path id="_Path_85" data-name="&lt;Path&gt;" class="cls-8" d="M308.69,239.42l-3.57-1.92a2,2,0,0,1,2.71-.89A2.13,2.13,0,0,1,308.69,239.42Z" transform="translate(-27.88 -92.28)"/><path id="_Path_86" data-name="&lt;Path&gt;" class="cls-19" d="M321.46,262s-5.3-1.07-7.15-2.05a6.11,6.11,0,0,1-2.56-2.53,8.36,8.36,0,0,0,1.46,3c1.36,1.73,8.26,3,8.26,3Z" transform="translate(-27.88 -92.28)"/></g><g id="_Group_24" data-name="&lt;Group&gt;"><ellipse id="_Path_87" data-name="&lt;Path&gt;" class="cls-8" cx="320.57" cy="249.44" rx="1.1" ry="1.06" transform="translate(42.52 477.16) rotate(-89.87)"/><path id="_Path_88" data-name="&lt;Path&gt;" class="cls-8" d="M320.51,245.44l-2.27,1.25a1.36,1.36,0,0,1,.53-1.81A1.27,1.27,0,0,1,320.51,245.44Z" transform="translate(-27.88 -92.28)"/><path id="_Path_89" data-name="&lt;Path&gt;" class="cls-19" d="M321,256.54l2.42.91a1.27,1.27,0,0,1-1.65.8A1.36,1.36,0,0,1,321,256.54Z" transform="translate(-27.88 -92.28)"/><path id="_Path_90" data-name="&lt;Path&gt;" class="cls-8" d="M331.1,246.32l-2.07-1.6a1.26,1.26,0,0,1,1.8-.28A1.37,1.37,0,0,1,331.1,246.32Z" transform="translate(-27.88 -92.28)"/><ellipse id="_Path_91" data-name="&lt;Path&gt;" class="cls-8" cx="329.4" cy="249.14" rx="1.1" ry="1.06" transform="translate(51.47 485.57) rotate(-89.84)"/><polygon id="_Path_92" data-name="&lt;Path&gt;" class="cls-19" points="297.58 156.73 296.58 163.05 300.08 162.64 297.58 156.73"/></g></g></g><g id="_Group_25" data-name="&lt;Group&gt;"><g id="_Group_26" data-name="&lt;Group&gt;"><path id="_Path_93" data-name="&lt;Path&gt;" class="cls-7" d="M361.94,320.78l-21.55-12.44a1.24,1.24,0,0,0-1.24,0l-37.79,21.82L323.52,343Z" transform="translate(-27.88 -92.28)"/><polygon id="_Path_94" data-name="&lt;Path&gt;" class="cls-8" points="295.44 248.85 283.82 242.15 317.8 222.53 329.48 229.19 295.44 248.85"/><polygon id="_Path_95" data-name="&lt;Path&gt;" class="cls-8" points="289.73 230.2 289.95 230.33 295.64 233.62 305.77 227.77 305.98 227.65 300.07 224.24 289.73 230.2"/><polygon id="_Path_96" data-name="&lt;Path&gt;" class="cls-8" points="289.95 230.33 295.64 233.62 305.77 227.77 300.07 224.48 289.95 230.33"/><path id="_Path_97" data-name="&lt;Path&gt;" class="cls-8" d="M301.36,330.16v.51a2.08,2.08,0,0,0,1,1.8l20.08,11.59a2.09,2.09,0,0,0,2.08,0l36.34-21a2.08,2.08,0,0,0,1-1.8v-.5L323.52,343Z" transform="translate(-27.88 -92.28)"/><path id="_Path_98" data-name="&lt;Path&gt;" class="cls-8" d="M323.52,343v1.38a2.07,2.07,0,0,0,1-.28l36.34-21a2.08,2.08,0,0,0,1-1.8v-.5Z" transform="translate(-27.88 -92.28)"/><path id="_Path_99" data-name="&lt;Path&gt;" class="cls-8" d="M324.11,343.27a2.47,2.47,0,0,0,2.12-.16l36.18-20.89a2.46,2.46,0,0,0,1.2-1.72l4-23.62a2.54,2.54,0,0,0,0-.4,2.46,2.46,0,0,0-.73-1.75l-37.6,21.71a1.83,1.83,0,0,0-.88,1.27Z" transform="translate(-27.88 -92.28)"/><path id="_Path_100" data-name="&lt;Path&gt;" class="cls-3" d="M323.52,343l.25.14.34.16,4.28-25.56a1.83,1.83,0,0,1,.88-1.27l37.6-21.71a2.47,2.47,0,0,0-.5-.38L328.7,316.09a1.82,1.82,0,0,0-.88,1.27Z" transform="translate(-27.88 -92.28)"/><path id="_Path_101" data-name="&lt;Path&gt;" class="cls-7" d="M344.48,321.46a8,8,0,0,1,3.65-4.69c1.75-1,3-.55,2.69,1a8,8,0,0,1-3.65,4.69C345.42,323.51,344.22,323,344.48,321.46Z" transform="translate(-27.88 -92.28)"/></g></g><path id="_Path_102" data-name="&lt;Path&gt;" class="cls-23" d="M297.19,302.21s6.49,25,9.23,26.79,7.84,3.1,10.28,4,3.55,2.13,3.13,2.47-3.94.71-5.17,1.15.37,2.4,3.06,4.49,5,1.9,4.7,3.29-6.32,2.78-11.4-.19-6.62-7-9.65-10.41S291.43,316.2,289,310c0,0,.23-11.52,4-10.79S297.19,302.21,297.19,302.21Z" transform="translate(-27.88 -92.28)"/><path id="_Path_103" data-name="&lt;Path&gt;" class="cls-2" d="M328.07,352.87c.46,1.11,2.05,4.17,5.59,4l8.7-8.14Z" transform="translate(-27.88 -92.28)"/><path id="_Path_104" data-name="&lt;Path&gt;" class="cls-17" d="M328.07,352.87c.46,1.11,2.05,4.17,5.59,4l8.7-8.14Z" transform="translate(-27.88 -92.28)"/><g id="_Group_27" data-name="&lt;Group&gt;"><path id="_Path_105" data-name="&lt;Path&gt;" class="cls-8" d="M333.32,357.84l0,.1Z" transform="translate(-27.88 -92.28)"/><path id="_Path_106" data-name="&lt;Path&gt;" class="cls-8" d="M330.7,367.19a20.13,20.13,0,0,1,1.27-7.68h0a3.19,3.19,0,0,1-2.91.39c-2.91-.87-3.64-4.94-3.18-5.82h0c-.42.37-.86.72-1.29,1.08a6.66,6.66,0,0,0-2.75,3.94c-.2,1.28.39,2.53.69,3.79.56,2.4,0,4.9-.09,7.36a7.83,7.83,0,0,0,2.59,5.68,22,22,0,0,0,2.63,2.18,3,3,0,0,0,3.69,0,2.91,2.91,0,0,0,.64-1.8C331.61,373.23,330.88,370.44,330.7,367.19Z" transform="translate(-27.88 -92.28)"/><path id="_Path_107" data-name="&lt;Path&gt;" class="cls-7" d="M334,356.35c-.27.5-.51,1-.72,1.49Q333.63,357.11,334,356.35Z" transform="translate(-27.88 -92.28)"/><path id="_Path_108" data-name="&lt;Path&gt;" class="cls-7" d="M325.86,354.08h0l.19-.17Z" transform="translate(-27.88 -92.28)"/></g></g></g></svg>