<svg xmlns="http://www.w3.org/2000/svg" viewBox="0 0 464.22 402"><defs><style>.cls-1{fill:#f5f5f5;}.cls-2{fill:#ebebeb;}.cls-3{fill:#27debf;}.cls-4{opacity:0.1;}.cls-5,.cls-9{fill:#fff;}.cls-11,.cls-6{fill:#fafafa;}.cls-7{fill:#e0e0e0;}.cls-8{fill:#455a64;}.cls-9{opacity:0.4;}.cls-10{opacity:0.2;}.cls-11{stroke:#e0e0e0;stroke-miterlimit:10;stroke-width:1.17px;}.cls-12{fill:#37474f;}</style></defs><title>register</title><g id="Floor"><path id="Floor-2" data-name="Floor" class="cls-1" d="M85.45,418c88.76,45.38,232.66,45.38,321.42,0s88.76-119,0-164.33-232.66-45.38-321.42,0S-3.3,372.63,85.45,418Z" transform="translate(-18.89 -50.04)"/></g><g id="Shadows"><path id="Shadow" class="cls-2" d="M375.73,345.51c4.86,2.81,14.42,1.84,21.35-2.16L437,320.16c6.93-4,8.59-9.52,3.72-12.34S426.3,306,419.37,310l-39.9,23.2C372.54,337.18,370.87,342.7,375.73,345.51Z" transform="translate(-18.89 -50.04)"/><polygon id="Shadow-2" data-name="Shadow" class="cls-2" points="116.42 316.86 75.81 293.41 116.42 269.95 116.42 316.86"/><polygon id="Shadow-3" data-name="Shadow" class="cls-2" points="231.23 330.89 165.76 293.07 231.25 255.32 231.23 330.89"/></g><g id="Plants"><g id="Plants-2" data-name="Plants"><g id="_Group_" data-name="&lt;Group&gt;"><g id="_Group_2" data-name="&lt;Group&gt;"><path id="_Path_" data-name="&lt;Path&gt;" class="cls-3" d="M80.36,312.07c.11-9.5-6.52-29.26-16.23-41.72S39,248.69,28,252.32c-10.3,3.38-9.35,16.85,3,25.92s30.9,20.49,36.19,36l11.25,19Z" transform="translate(-18.89 -50.04)"/><path id="_Path_2" data-name="&lt;Path&gt;" class="cls-4" d="M80.36,312.07c.11-9.5-6.52-29.26-16.23-41.72S39,248.69,28,252.32c-10.3,3.38-9.35,16.85,3,25.92s30.9,20.49,36.19,36l11.25,19Z" transform="translate(-18.89 -50.04)"/></g><g id="_Group_3" data-name="&lt;Group&gt;"><path id="_Path_3" data-name="&lt;Path&gt;" class="cls-5" d="M80.91,325.08a.7.7,0,0,1-.62-.57c-6-32.51-31.89-59.19-47.53-65.2a.69.69,0,0,1-.4-.9.69.69,0,0,1,.9-.4c15.93,6.13,42.33,33.24,48.39,66.25a.69.69,0,0,1-.56.81Z" transform="translate(-18.89 -50.04)"/></g></g><g id="_Group_4" data-name="&lt;Group&gt;"><g id="_Group_5" data-name="&lt;Group&gt;"><path id="_Path_4" data-name="&lt;Path&gt;" class="cls-3" d="M75.82,345.78c-1.46-5.36-7.88-14.25-18.34-21.66C45.9,315.93,31.18,312,27.85,305.74c-4-7.58,2.43-14.62,14.4-13S75.1,311,78.18,335.66Z" transform="translate(-18.89 -50.04)"/></g><g id="_Group_6" data-name="&lt;Group&gt;"><path id="_Path_5" data-name="&lt;Path&gt;" class="cls-5" d="M78.21,340.2a.69.69,0,0,1-.59-.47c-9.61-27.9-30.69-37.91-40.5-39.3a.69.69,0,0,1-.59-.78.68.68,0,0,1,.78-.59c10.84,1.54,31.8,11.74,41.62,40.23a.7.7,0,0,1-.43.88A.69.69,0,0,1,78.21,340.2Z" transform="translate(-18.89 -50.04)"/></g></g></g><g id="Plants-3" data-name="Plants"><g id="_Group_7" data-name="&lt;Group&gt;"><path id="_Path_6" data-name="&lt;Path&gt;" class="cls-3" d="M434.93,285s1.33-20,13.14-34.9,11.08-21,2.94-24S424,241,428.16,265,434.93,285,434.93,285Z" transform="translate(-18.89 -50.04)"/><path id="_Path_7" data-name="&lt;Path&gt;" class="cls-4" d="M434.93,285s1.33-20,13.14-34.9,11.08-21,2.94-24S424,241,428.16,265,434.93,285,434.93,285Z" transform="translate(-18.89 -50.04)"/><g id="_Group_8" data-name="&lt;Group&gt;"><path id="_Path_8" data-name="&lt;Path&gt;" class="cls-5" d="M431.32,273.58a.47.47,0,0,1-.46-.44c-1.38-22.06,14.2-40.16,20-44.25a.46.46,0,1,1,.53.76c-5.72,4-21,21.77-19.64,43.44a.47.47,0,0,1-.44.49Z" transform="translate(-18.89 -50.04)"/></g></g><g id="_Group_9" data-name="&lt;Group&gt;"><g id="_Group_10" data-name="&lt;Group&gt;"><path id="_Path_9" data-name="&lt;Path&gt;" class="cls-3" d="M431.72,301.56A105.68,105.68,0,0,0,448,305.48c9.14,1.45,13.18-2.92,13.18-2.92s-3.6-8.57-8.79-11a51,51,0,0,1,15.87,6.51s5.58.08,7.8-8.43c0,0-3.31-5.13-14.4-7.9,0,0,6.75-1.7,16.48.78.73.29,3.84-10.73,4.78-15.81s-1.1-5-5.06-6.09-17.08-4-19.56-1.83-3.74,9.63-3.74,9.63a17.57,17.57,0,0,1-.37-9.44s-3.57-1.39-9.1.22c-4.53,1.32-4.75,4.4-4.54,7.88a34,34,0,0,0,2,8.84s-3.53-4.52-3.64-14.32c0,0-9.26,4.6-10.84,13.79C427.13,280.37,425.91,295,431.72,301.56Z" transform="translate(-18.89 -50.04)"/><g id="_Group_11" data-name="&lt;Group&gt;"><path id="_Path_10" data-name="&lt;Path&gt;" class="cls-5" d="M433.46,299.78a.51.51,0,0,0,.46-.29c7.38-15.33,34.8-33.13,44.63-35a.51.51,0,1,0-.2-1c-10,1.94-37.86,20-45.35,35.61a.51.51,0,0,0,.24.69A.51.51,0,0,0,433.46,299.78Z" transform="translate(-18.89 -50.04)"/></g></g></g></g></g><g id="Computer_Screen" data-name="Computer Screen"><g id="_Group_12" data-name="&lt;Group&gt;"><g id="_Group_13" data-name="&lt;Group&gt;"><g id="_Group_14" data-name="&lt;Group&gt;"><path class="cls-6" d="M76.78,352.86c-1.13,0-1.81-.94-1.81-2.51V182.15L281,63.22V230.75a8.94,8.94,0,0,1-4,7L78.42,352.35a3.39,3.39,0,0,1-1.64.51Z" transform="translate(-18.89 -50.04)"/><path class="cls-7" d="M280.38,64.23V230.75a8.42,8.42,0,0,1-3.75,6.49L78.13,351.84a2.82,2.82,0,0,1-1.35.43c-1.11,0-1.23-1.34-1.23-1.92V182.49L280.38,64.23m1.17-2L74.38,181.81V350.36c0,2,1,3.09,2.4,3.09a3.93,3.93,0,0,0,1.93-.59l198.5-114.61a9.57,9.57,0,0,0,4.33-7.5V62.2Z" transform="translate(-18.89 -50.04)"/></g><polygon id="_Path_11" data-name="&lt;Path&gt;" class="cls-3" points="55.5 131.77 55.5 159.91 262.66 40.31 262.66 12.16 55.5 131.77"/><path id="_Path_12" data-name="&lt;Path&gt;" class="cls-6" d="M90.63,183.31v4c0,.82.58,1.16,1.3.75l63.69-36.77v-7L91.93,181.06A2.88,2.88,0,0,0,90.63,183.31Z" transform="translate(-18.89 -50.04)"/><path id="_Path_13" data-name="&lt;Path&gt;" class="cls-8" d="M162.45,140.35c.72-.41,1.3-.08,1.3.75v4a2.87,2.87,0,0,1-1.3,2.25l-6.83,3.94v-7Z" transform="translate(-18.89 -50.04)"/><path id="_Path_14" data-name="&lt;Path&gt;" class="cls-8" d="M74.38,172.74a9.57,9.57,0,0,1,4.33-7.5L277.22,50.63c2.39-1.38,4.33-.26,4.33,2.5V62.2L74.38,181.81Z" transform="translate(-18.89 -50.04)"/><g id="_Group_15" data-name="&lt;Group&gt;"><path id="_Path_15" data-name="&lt;Path&gt;" class="cls-3" d="M258.52,66.14a4.49,4.49,0,0,0-2,3.52c0,1.3.91,1.82,2,1.17a4.49,4.49,0,0,0,2-3.52C260.56,66,259.65,65.49,258.52,66.14Z" transform="translate(-18.89 -50.04)"/><path id="_Path_16" data-name="&lt;Path&gt;" class="cls-3" d="M265,62.42a4.49,4.49,0,0,0-2,3.52c0,1.3.91,1.82,2,1.17a4.49,4.49,0,0,0,2-3.52C267,62.29,266.08,61.77,265,62.42Z" transform="translate(-18.89 -50.04)"/><path id="_Path_17" data-name="&lt;Path&gt;" class="cls-3" d="M271.39,58.7a4.49,4.49,0,0,0-2,3.52c0,1.3.91,1.82,2,1.17a4.49,4.49,0,0,0,2-3.52C273.42,58.57,272.51,58,271.39,58.7Z" transform="translate(-18.89 -50.04)"/></g><g id="_Group_16" data-name="&lt;Group&gt;" class="cls-4"><path id="_Path_18" data-name="&lt;Path&gt;" d="M216.55,108.67a9.81,9.81,0,0,0-4.44,7.69c0,2.83,2,4,4.44,2.56a9.81,9.81,0,0,0,4.44-7.69C221,108.41,219,107.26,216.55,108.67Z" transform="translate(-18.89 -50.04)"/><path id="_Path_19" data-name="&lt;Path&gt;" d="M196.25,120.4a9.81,9.81,0,0,0-4.44,7.69c0,2.83,2,4,4.44,2.56a9.81,9.81,0,0,0,4.44-7.69C200.68,120.13,198.7,119,196.25,120.4Z" transform="translate(-18.89 -50.04)"/><path id="_Path_20" data-name="&lt;Path&gt;" d="M236.87,96.95a9.81,9.81,0,0,0-4.44,7.69c0,2.83,2,4,4.44,2.56a9.81,9.81,0,0,0,4.44-7.69C241.3,96.68,239.32,95.53,236.87,96.95Z" transform="translate(-18.89 -50.04)"/><path id="_Path_21" data-name="&lt;Path&gt;" d="M257.18,85.2a9.81,9.81,0,0,0-4.44,7.69c0,2.83,2,4,4.44,2.56a9.81,9.81,0,0,0,4.44-7.69C261.62,84.93,259.63,83.78,257.18,85.2Z" transform="translate(-18.89 -50.04)"/></g></g><path id="_Path_22" data-name="&lt;Path&gt;" class="cls-7" d="M95,212.15l48.21-27.83c2.39-1.38,4.33-.26,4.33,2.5V233.1a9.57,9.57,0,0,1-4.33,7.5L95,268.43c-2.39,1.38-4.33.26-4.33-2.5V219.65A9.57,9.57,0,0,1,95,212.15Z" transform="translate(-18.89 -50.04)"/><path id="_Path_23" data-name="&lt;Path&gt;" class="cls-7" d="M164,172.28,265,114c2.39-1.38,4.33-.26,4.33,2.5v46.29a9.57,9.57,0,0,1-4.33,7.5L164,228.56c-2.39,1.38-4.33.26-4.33-2.5V179.78A9.57,9.57,0,0,1,164,172.28Z" transform="translate(-18.89 -50.04)"/><g id="_Group_17" data-name="&lt;Group&gt;"><path id="_Path_24" data-name="&lt;Path&gt;" class="cls-7" d="M95,282.5l76.64-44.25c2.39-1.38,4.33-.4,4.33,2.19a9.28,9.28,0,0,1-4.33,7.19L95,291.88c-2.39,1.38-4.33.4-4.33-2.19A9.29,9.29,0,0,1,95,282.5Z" transform="translate(-18.89 -50.04)"/><path id="_Path_25" data-name="&lt;Path&gt;" class="cls-7" d="M95,298.92l76.64-44.25c2.39-1.38,4.33-.4,4.33,2.19a9.28,9.28,0,0,1-4.33,7.19L95,308.3c-2.39,1.38-4.33.4-4.33-2.19A9.29,9.29,0,0,1,95,298.92Z" transform="translate(-18.89 -50.04)"/><path id="_Path_26" data-name="&lt;Path&gt;" class="cls-7" d="M95,315.33l76.64-44.25c2.39-1.38,4.33-.4,4.33,2.19a9.28,9.28,0,0,1-4.33,7.19L95,324.71c-2.39,1.38-4.33.4-4.33-2.19A9.29,9.29,0,0,1,95,315.33Z" transform="translate(-18.89 -50.04)"/></g></g></g><g id="Envelope"><g id="_Group_18" data-name="&lt;Group&gt;"><g id="Letter"><g id="_Group_19" data-name="&lt;Group&gt;"><g id="_Group_20" data-name="&lt;Group&gt;"><path id="_Path_27" data-name="&lt;Path&gt;" class="cls-3" d="M131.25,259.67a5.74,5.74,0,0,1,2.6-4.5l132.91-76.74a5.74,5.74,0,0,1,5.2,0l2.93,1.69a5.74,5.74,0,0,1,2.6,4.5V286.51a5.76,5.76,0,0,1-2.6,4.5L142,367.74a5.76,5.76,0,0,1-5.2,0l-2.93-1.69a5.76,5.76,0,0,1-2.6-4.5Z" transform="translate(-18.89 -50.04)"/></g></g><path id="_Path_28" data-name="&lt;Path&gt;" class="cls-9" d="M132,257.11l7.37,4.25,137.34-79.3a5.37,5.37,0,0,0-1.83-1.94L272,178.44a5.68,5.68,0,0,0-5.19,0L133.85,255.17A5.3,5.3,0,0,0,132,257.11Z" transform="translate(-18.89 -50.04)"/><path id="_Path_29" data-name="&lt;Path&gt;" class="cls-4" d="M131.25,259.67V361.55a5.73,5.73,0,0,0,2.61,4.5l2.93,1.7a4.19,4.19,0,0,0,.71.32,5.68,5.68,0,0,0,1.07.25,6.39,6.39,0,0,0,2.05-.07l.5-.14.31-.12a1.54,1.54,0,0,1-1.24,0,1.8,1.8,0,0,1-.8-1.71V264.37a2.28,2.28,0,0,1,1.35-2.21l-1.35-.79L132,257.11A5.34,5.34,0,0,0,131.25,259.67Z" transform="translate(-18.89 -50.04)"/><path id="_Path_30" data-name="&lt;Path&gt;" class="cls-10" d="M139.39,261.37l61.55,23a10,10,0,0,0,11.87-3.91l9.88-15.14,54.52-83.53-52.55,84.1,52.82,20.67a5.42,5.42,0,0,1-.81,2.59l-52.15-23L213,284.5a10,10,0,0,1-12.52,3.85l-8.18-3.61L140.18,368a1.8,1.8,0,0,1-.8-1.71v-1.7l52.69-79.92Z" transform="translate(-18.89 -50.04)"/></g></g></g><g id="Mobile_Screen" data-name="Mobile Screen"><g id="_Group_21" data-name="&lt;Group&gt;"><path id="_Path_31" data-name="&lt;Path&gt;" class="cls-11" d="M249.05,144.41v233.9c0,2.76,1.94,3.88,4.33,2.5l105.08-60.67a9.57,9.57,0,0,0,4.33-7.5V78.74c0-2.76-1.94-3.88-4.33-2.5L253.38,136.91A9.57,9.57,0,0,0,249.05,144.41Z" transform="translate(-18.89 -50.04)"/><path id="_Path_32" data-name="&lt;Path&gt;" class="cls-8" d="M255.14,148.76a2.37,2.37,0,0,1,1.13-1.82l12-6.91c.62-.36,1.13-.12,1.13.52a2.37,2.37,0,0,1-1.13,1.82l-12,6.91C255.65,149.65,255.14,149.41,255.14,148.76Z" transform="translate(-18.89 -50.04)"/><path id="_Path_33" data-name="&lt;Path&gt;" class="cls-8" d="M255.14,153.42a2.37,2.37,0,0,1,1.13-1.82l12-6.91c.62-.36,1.13-.12,1.13.52a2.37,2.37,0,0,1-1.13,1.82l-12,6.91C255.65,154.3,255.14,154.07,255.14,153.42Z" transform="translate(-18.89 -50.04)"/><path id="_Path_34" data-name="&lt;Path&gt;" class="cls-8" d="M255.14,158.08a2.37,2.37,0,0,1,1.13-1.82l12-6.91c.62-.36,1.13-.12,1.13.52a2.37,2.37,0,0,1-1.13,1.82l-12,6.91C255.65,159,255.14,158.73,255.14,158.08Z" transform="translate(-18.89 -50.04)"/><path id="_Compound_Path_" data-name="&lt;Compound Path&gt;" class="cls-12" d="M354.67,98.1V96.23a.12.12,0,0,0-.18-.12l-1.44.65a.17.17,0,0,1-.24-.11,3.22,3.22,0,0,0-.32-.71.4.4,0,0,1,0-.35l1-1.94a.22.22,0,0,0-.09-.28l-1-.6a.22.22,0,0,0-.29.07l-1.2,1.8a.4.4,0,0,1-.31.16,3.23,3.23,0,0,0-.78.08.17.17,0,0,1-.22-.15l-.16-1.57a.12.12,0,0,0-.19-.1l-1.62.93a.44.44,0,0,0-.19.3l-.16,1.8a.6.6,0,0,1-.17.34,9.72,9.72,0,0,0-.9,1,.31.31,0,0,1-.32.09l-1-.36a.25.25,0,0,0-.29.11l-1.19,2.06a.25.25,0,0,0,.05.31l.83.72a.31.31,0,0,1,.08.32,9.73,9.73,0,0,0-.37,1.25.6.6,0,0,1-.21.31l-1.48,1a.44.44,0,0,0-.17.32v1.87a.12.12,0,0,0,.18.12l1.44-.65a.17.17,0,0,1,.24.11,3.22,3.22,0,0,0,.32.71.4.4,0,0,1,0,.35l-1,1.94a.22.22,0,0,0,.09.28l1,.6a.22.22,0,0,0,.29-.07l1.2-1.8a.4.4,0,0,1,.31-.16,3.23,3.23,0,0,0,.78-.08.17.17,0,0,1,.22.15l.16,1.57a.12.12,0,0,0,.2.1l1.62-.93a.44.44,0,0,0,.19-.3l.16-1.8a.6.6,0,0,1,.17-.34,9.72,9.72,0,0,0,.9-1,.31.31,0,0,1,.32-.09l1,.36a.25.25,0,0,0,.29-.11l1.19-2.06a.25.25,0,0,0-.05-.31l-.83-.72a.31.31,0,0,1-.08-.32,9.74,9.74,0,0,0,.37-1.25.6.6,0,0,1,.21-.31l1.48-1A.44.44,0,0,0,354.67,98.1ZM348.34,104c-1.51.87-2.73.16-2.73-1.58a6,6,0,0,1,2.73-4.73c1.51-.87,2.73-.16,2.73,1.58A6,6,0,0,1,348.34,104Z" transform="translate(-18.89 -50.04)"/><g id="_Group_22" data-name="&lt;Group&gt;"><path id="_Path_35" data-name="&lt;Path&gt;" class="cls-8" d="M305.92,144.2c12.28-7.09,22.23-1.34,22.23,12.83s-10,31.42-22.23,38.5-22.23,1.34-22.23-12.84S293.64,151.29,305.92,144.2Z" transform="translate(-18.89 -50.04)"/><path id="_Path_36" data-name="&lt;Path&gt;" class="cls-3" d="M305.77,155.36c4-2.3,7.21-.44,7.21,4.16A15.94,15.94,0,0,1,305.77,172c-4,2.3-7.21.44-7.21-4.16A15.94,15.94,0,0,1,305.77,155.36Z" transform="translate(-18.89 -50.04)"/><path id="_Path_37" data-name="&lt;Path&gt;" class="cls-3" d="M320,179.88c0-7.56-5.31-10.62-11.85-6.84L304,175.4c-6.54,3.78-11.85,13-11.85,20.52V198a12.17,12.17,0,0,0,3.82.59,20.05,20.05,0,0,0,9.91-3A43.81,43.81,0,0,0,320,181.64Z" transform="translate(-18.89 -50.04)"/></g><path id="_Path_38" data-name="&lt;Path&gt;" class="cls-3" d="M285.86,216.63,326,193.46c1.2-.69,2.17-.2,2.17,1.1a4.64,4.64,0,0,1-2.17,3.6l-40.13,23.17c-1.2.69-2.17.2-2.17-1.1A4.64,4.64,0,0,1,285.86,216.63Z" transform="translate(-18.89 -50.04)"/><path id="_Path_39" data-name="&lt;Path&gt;" class="cls-8" d="M281.55,233.21,330.29,205c1.2-.69,2.17-.2,2.17,1.1a4.64,4.64,0,0,1-2.17,3.6L281.55,237.9c-1.2.69-2.17.2-2.17-1.1A4.64,4.64,0,0,1,281.55,233.21Z" transform="translate(-18.89 -50.04)"/><path id="_Path_40" data-name="&lt;Path&gt;" class="cls-12" d="M331.59,227.74l13.65-7.88c.72-.41,1.3-.22,1.3.42a2.6,2.6,0,0,1-1.3,1.92l-13.65,7.88c-.72.41-1.3.22-1.3-.42A2.6,2.6,0,0,1,331.59,227.74Z" transform="translate(-18.89 -50.04)"/><g id="_Group_23" data-name="&lt;Group&gt;"><path id="_Path_41" data-name="&lt;Path&gt;" class="cls-3" d="M263.4,262.43l20-11.57c1.2-.69,2.17-.13,2.17,1.25v13.76a4.79,4.79,0,0,1-2.17,3.75l-20,11.57c-1.2.69-2.17.13-2.17-1.25V266.18A4.79,4.79,0,0,1,263.4,262.43Z" transform="translate(-18.89 -50.04)"/><path id="_Path_42" data-name="&lt;Path&gt;" class="cls-6" d="M266.6,264.35l13.65-7.88c.72-.41,1.3-.22,1.3.42a2.6,2.6,0,0,1-1.3,1.92L266.6,266.7c-.72.41-1.3.22-1.3-.42A2.6,2.6,0,0,1,266.6,264.35Z" transform="translate(-18.89 -50.04)"/><path id="_Path_43" data-name="&lt;Path&gt;" class="cls-6" d="M265.3,271.29v4c0,.83.58,1.16,1.3.75l13.65-7.88a2.87,2.87,0,0,0,1.3-2.25v-4c0-.83-.58-1.16-1.3-.75L266.6,269A2.87,2.87,0,0,0,265.3,271.29Z" transform="translate(-18.89 -50.04)"/></g><g id="_Group_24" data-name="&lt;Group&gt;"><path id="_Path_44" data-name="&lt;Path&gt;" class="cls-3" d="M295.9,243.67l20-11.57c1.2-.69,2.17-.13,2.17,1.25v13.76a4.79,4.79,0,0,1-2.17,3.75l-20,11.57c-1.2.69-2.17.13-2.17-1.25V247.42A4.79,4.79,0,0,1,295.9,243.67Z" transform="translate(-18.89 -50.04)"/><path id="_Path_45" data-name="&lt;Path&gt;" class="cls-6" d="M299.1,245.59l13.65-7.88c.72-.41,1.3-.22,1.3.42a2.6,2.6,0,0,1-1.3,1.92l-13.65,7.88c-.72.41-1.3.23-1.3-.42A2.6,2.6,0,0,1,299.1,245.59Z" transform="translate(-18.89 -50.04)"/><path id="_Path_46" data-name="&lt;Path&gt;" class="cls-6" d="M297.8,252.53v4c0,.83.58,1.16,1.3.75l13.65-7.88a2.87,2.87,0,0,0,1.3-2.25v-4c0-.83-.58-1.16-1.3-.75l-13.65,7.88A2.87,2.87,0,0,0,297.8,252.53Z" transform="translate(-18.89 -50.04)"/></g><g id="_Group_25" data-name="&lt;Group&gt;"><path id="_Path_47" data-name="&lt;Path&gt;" class="cls-3" d="M328.4,224.91l20-11.57c1.2-.69,2.17-.13,2.17,1.25v13.76a4.79,4.79,0,0,1-2.16,3.75l-20,11.57c-1.2.69-2.17.13-2.17-1.25V228.66A4.79,4.79,0,0,1,328.4,224.91Z" transform="translate(-18.89 -50.04)"/><path id="_Path_48" data-name="&lt;Path&gt;" class="cls-6" d="M331.59,226.83l13.65-7.88c.72-.41,1.3-.22,1.3.42a2.6,2.6,0,0,1-1.3,1.92l-13.65,7.88c-.72.41-1.3.22-1.3-.42A2.6,2.6,0,0,1,331.59,226.83Z" transform="translate(-18.89 -50.04)"/><path id="_Path_49" data-name="&lt;Path&gt;" class="cls-6" d="M330.29,233.77v4c0,.83.58,1.16,1.3.75l13.65-7.88a2.87,2.87,0,0,0,1.3-2.25v-4c0-.83-.58-1.16-1.3-.75l-13.65,7.88A2.87,2.87,0,0,0,330.29,233.77Z" transform="translate(-18.89 -50.04)"/></g><path id="_Path_50" data-name="&lt;Path&gt;" class="cls-7" d="M265.57,294l80.7-46.59c2.39-1.38,4.33-.4,4.33,2.19a9.29,9.29,0,0,1-4.33,7.19l-80.7,46.59c-2.39,1.38-4.33.4-4.33-2.19A9.28,9.28,0,0,1,265.57,294Z" transform="translate(-18.89 -50.04)"/><path id="_Path_51" data-name="&lt;Path&gt;" class="cls-7" d="M265.57,312.77l80.7-46.59c2.39-1.38,4.33-.4,4.33,2.19a9.29,9.29,0,0,1-4.33,7.19l-80.7,46.59c-2.39,1.38-4.33.4-4.33-2.19A9.29,9.29,0,0,1,265.57,312.77Z" transform="translate(-18.89 -50.04)"/><path id="_Path_52" data-name="&lt;Path&gt;" class="cls-3" d="M291.84,321.06,320,304.8c1.2-.69,2.17-.13,2.17,1.25v9.07a4.79,4.79,0,0,1-2.17,3.75l-28.17,16.26c-1.2.69-2.17.13-2.17-1.25v-9.07A4.79,4.79,0,0,1,291.84,321.06Z" transform="translate(-18.89 -50.04)"/><g id="_Group_26" data-name="&lt;Group&gt;"><path id="_Path_53" data-name="&lt;Path&gt;" class="cls-6" d="M267.33,295.39a4.49,4.49,0,0,0-2,3.52c0,1.3.91,1.82,2,1.17a4.49,4.49,0,0,0,2-3.52C269.36,295.27,268.45,294.74,267.33,295.39Z" transform="translate(-18.89 -50.04)"/><path id="_Path_54" data-name="&lt;Path&gt;" class="cls-6" d="M273.77,291.67a4.49,4.49,0,0,0-2,3.52c0,1.3.91,1.82,2,1.17a4.49,4.49,0,0,0,2-3.52C275.8,291.55,274.89,291,273.77,291.67Z" transform="translate(-18.89 -50.04)"/><path id="_Path_55" data-name="&lt;Path&gt;" class="cls-6" d="M280.2,288a4.49,4.49,0,0,0-2,3.52c0,1.3.91,1.82,2,1.17a4.49,4.49,0,0,0,2-3.52C282.23,287.83,281.32,287.3,280.2,288Z" transform="translate(-18.89 -50.04)"/><path id="_Path_56" data-name="&lt;Path&gt;" class="cls-6" d="M286.64,284.23a4.49,4.49,0,0,0-2,3.52c0,1.3.91,1.82,2,1.17a4.49,4.49,0,0,0,2-3.52C288.67,284.11,287.76,283.58,286.64,284.23Z" transform="translate(-18.89 -50.04)"/><path id="_Path_57" data-name="&lt;Path&gt;" class="cls-6" d="M293.07,280.51a4.49,4.49,0,0,0-2,3.52c0,1.3.91,1.82,2,1.17a4.49,4.49,0,0,0,2-3.52C295.1,280.39,294.19,279.86,293.07,280.51Z" transform="translate(-18.89 -50.04)"/><path id="_Path_58" data-name="&lt;Path&gt;" class="cls-6" d="M299.5,276.79a4.49,4.49,0,0,0-2,3.52c0,1.3.91,1.82,2,1.17a4.49,4.49,0,0,0,2-3.52C301.53,276.67,300.63,276.14,299.5,276.79Z" transform="translate(-18.89 -50.04)"/><path id="_Path_59" data-name="&lt;Path&gt;" class="cls-6" d="M305.94,273.07a4.49,4.49,0,0,0-2,3.52c0,1.3.91,1.82,2,1.17a4.49,4.49,0,0,0,2-3.52C308,272.95,307.06,272.42,305.94,273.07Z" transform="translate(-18.89 -50.04)"/></g><g id="_Group_27" data-name="&lt;Group&gt;"><path id="_Path_60" data-name="&lt;Path&gt;" class="cls-6" d="M267.33,314.17a4.49,4.49,0,0,0-2,3.52c0,1.3.91,1.82,2,1.17a4.49,4.49,0,0,0,2-3.52C269.36,314.05,268.45,313.53,267.33,314.17Z" transform="translate(-18.89 -50.04)"/><path id="_Path_61" data-name="&lt;Path&gt;" class="cls-6" d="M273.77,310.45a4.49,4.49,0,0,0-2,3.52c0,1.3.91,1.82,2,1.17a4.49,4.49,0,0,0,2-3.52C275.8,310.33,274.89,309.81,273.77,310.45Z" transform="translate(-18.89 -50.04)"/><path id="_Path_62" data-name="&lt;Path&gt;" class="cls-6" d="M280.2,306.73a4.49,4.49,0,0,0-2,3.52c0,1.3.91,1.82,2,1.17a4.49,4.49,0,0,0,2-3.52C282.23,306.61,281.32,306.08,280.2,306.73Z" transform="translate(-18.89 -50.04)"/><path id="_Path_63" data-name="&lt;Path&gt;" class="cls-6" d="M286.64,303a4.49,4.49,0,0,0-2,3.52c0,1.3.91,1.82,2,1.17a4.49,4.49,0,0,0,2-3.52C288.67,302.89,287.76,302.36,286.64,303Z" transform="translate(-18.89 -50.04)"/><path id="_Path_64" data-name="&lt;Path&gt;" class="cls-6" d="M293.07,299.29a4.49,4.49,0,0,0-2,3.52c0,1.3.91,1.82,2,1.17a4.49,4.49,0,0,0,2-3.52C295.1,299.17,294.19,298.64,293.07,299.29Z" transform="translate(-18.89 -50.04)"/><path id="_Path_65" data-name="&lt;Path&gt;" class="cls-6" d="M299.5,295.57a4.49,4.49,0,0,0-2,3.52c0,1.3.91,1.82,2,1.17a4.49,4.49,0,0,0,2-3.52C301.53,295.45,300.63,294.92,299.5,295.57Z" transform="translate(-18.89 -50.04)"/><path id="_Path_66" data-name="&lt;Path&gt;" class="cls-6" d="M305.94,291.85a4.49,4.49,0,0,0-2,3.52c0,1.3.91,1.82,2,1.17a4.49,4.49,0,0,0,2-3.52C308,291.73,307.06,291.2,305.94,291.85Z" transform="translate(-18.89 -50.04)"/></g></g></g><g id="Key"><g id="_Group_28" data-name="&lt;Group&gt;"><g id="_Group_29" data-name="&lt;Group&gt;"><g id="_Group_30" data-name="&lt;Group&gt;"><path id="_Compound_Path_2" data-name="&lt;Compound Path&gt;" class="cls-8" d="M396.19,334.13a19.47,19.47,0,0,1-9.85-2.6c-7.21-4.16-11.34-12.87-11.34-23.89,0-19.38,12.32-41.68,28-50.76,8.47-4.89,16.88-5.42,23.68-1.49,7.21,4.16,11.34,12.87,11.34,23.89,0,19.38-12.32,41.68-28,50.76A27.86,27.86,0,0,1,396.19,334.13Zm20.66-67.38A14.82,14.82,0,0,0,410,269C398.6,275.55,389,293.26,389,307.63c0,5.82,1.63,10.23,4.36,11.81,3.11,1.8,7.43-.16,9.73-1.49,11.42-6.59,21.07-24.31,21.07-38.68,0-5.82-1.63-10.23-4.36-11.81A5.73,5.73,0,0,0,416.85,266.75Z" transform="translate(-18.89 -50.04)"/></g><path id="_Path_67" data-name="&lt;Path&gt;" class="cls-12" d="M426.61,282.38c0-10.89-6.86-14.91-6.86-14.91h0c2.73,1.58,4.36,6,4.36,11.81,0,14.37-9.65,32.08-21.07,38.68-2.3,1.33-6.62,3.29-9.73,1.49,0,0,5.79,3.59,13.78-.77C418.68,312.36,426.61,296.75,426.61,282.38Z" transform="translate(-18.89 -50.04)"/></g><path id="_Path_68" data-name="&lt;Path&gt;" class="cls-12" d="M415.61,146.29a7.21,7.21,0,1,0-14.43,0v0h0V261h0a3.58,3.58,0,0,0,2.11,2.94,11.27,11.27,0,0,0,10.2,0,3.58,3.58,0,0,0,2.11-2.94h0V146.31h0Z" transform="translate(-18.89 -50.04)"/><path id="_Path_69" data-name="&lt;Path&gt;" class="cls-8" d="M409.85,171.93a9.21,9.21,0,0,0-4.17-7.21,2.89,2.89,0,0,0-3-.26h0L384.9,174.7l-.43.26a1,1,0,0,0-.17.1,5.61,5.61,0,0,0-.85.7,5.9,5.9,0,0,0,7,9.37l.34-.19,17.91-10.32h0A2.93,2.93,0,0,0,409.85,171.93Z" transform="translate(-18.89 -50.04)"/><path id="_Path_70" data-name="&lt;Path&gt;" class="cls-8" d="M409.85,200.65a9.21,9.21,0,0,0-4.17-7.21,2.89,2.89,0,0,0-3-.26h0l-20.86,12-.43.26a1,1,0,0,0-.17.1,5.59,5.59,0,0,0-.85.7,5.9,5.9,0,0,0,7,9.37l.34-.19,21-12h0A2.93,2.93,0,0,0,409.85,200.65Z" transform="translate(-18.89 -50.04)"/></g></g></svg>