<svg xmlns="http://www.w3.org/2000/svg" viewBox="0 0 461.99 450.13"><defs><style>.cls-1{fill:#f5f5f5;}.cls-2{fill:#e0e0e0;}.cls-3{fill:#ebebeb;}.cls-4,.cls-9{fill:#27debf;}.cls-11,.cls-5{fill:#fff;}.cls-6{fill:#37474f;}.cls-7{fill:#263238;}.cls-8{fill:#455a64;}.cls-9{opacity:0.6;}.cls-10{fill:#f0f0f0;}.cls-11{opacity:0.4;}.cls-12{opacity:0.15;}.cls-13{opacity:0.1;}.cls-14{opacity:0.3;}.cls-15{fill:#b16668;}.cls-16{opacity:0.7;}.cls-17{fill:#9a4a4d;}</style></defs><title>update_password</title><g id="Floor"><path id="Floor-2" data-name="Floor" class="cls-1" d="M88.45,442.21c90.21,53.24,236.47,53.24,326.67,0s90.21-139.55,0-192.79-236.47-53.24-326.68,0S-1.76,389,88.45,442.21Z" transform="translate(-20.79 -32.01)"/></g><g id="Shadow"><path id="Shadows" class="cls-2" d="M422.39,387.5c17.26,10,17.26,26.12,0,36.08s-45.24,10-62.5,0-17.26-26.12,0-36.08S405.13,377.54,422.39,387.5Z" transform="translate(-20.79 -32.01)"/></g><g id="Clouds"><g id="Clouds-2" data-name="Clouds"><path id="_Path_" data-name="&lt;Path&gt;" class="cls-3" d="M363.42,77.14l7.67,4.43a9.25,9.25,0,0,1-.06-1V78.33c0-4,2.78-5.56,6.2-3.58a12,12,0,0,1,3.69,3.55c.56-5,4.46-6.82,9.2-4.09,5.12,3,9.27,10.15,9.27,16.06V93.6a8.75,8.75,0,0,1-.79,3.85l6.37,3.68a7.6,7.6,0,0,1,3.44,6c0,2.19-1.54,3.08-3.44,2l-41.56-24a7.6,7.6,0,0,1-3.44-6C360,76.93,361.52,76,363.42,77.14Z" transform="translate(-20.79 -32.01)"/><path id="_Path_2" data-name="&lt;Path&gt;" class="cls-3" d="M330.6,99.48l5.79,3.34a7,7,0,0,1,0-.77v-1.68c0-3,2.09-4.19,4.68-2.7a9.05,9.05,0,0,1,2.79,2.68c.42-3.75,3.37-5.15,6.94-3.09a15.47,15.47,0,0,1,7,12.12v2.51a6.61,6.61,0,0,1-.59,2.91l4.81,2.78a5.74,5.74,0,0,1,2.6,4.5c0,1.66-1.16,2.33-2.6,1.5L330.6,105.47A5.74,5.74,0,0,1,328,101C328,99.32,329.17,98.65,330.6,99.48Z" transform="translate(-20.79 -32.01)"/></g></g><g id="Plant"><g id="Plants"><path id="_Path_3" data-name="&lt;Path&gt;" class="cls-4" d="M73.88,288.62c-.57.31-11,3.27-14.89-1.84s2.55-13.09-1.08-16-13.81,0-16.27-6.17,4.81-8.84.73-15.08c-2.57-3.93-8.89-6.12-9.44-9.75-.93-6.06,9.12-8.85,17.71-3.13s13.79,3.1,16.52,2.72,8.61.46,8.42,10S73.88,288.62,73.88,288.62Z" transform="translate(-20.79 -32.01)"/><g id="_Group_" data-name="&lt;Group&gt;"><path id="_Path_4" data-name="&lt;Path&gt;" class="cls-5" d="M74.57,275a.57.57,0,0,1-.56-.48c-3-18.17-24.11-33-35.09-36.12a.57.57,0,1,1,.32-1.09c11.23,3.24,32.83,18.39,35.9,37a.57.57,0,0,1-.47.65Z" transform="translate(-20.79 -32.01)"/></g><g id="_Group_2" data-name="&lt;Group&gt;"><path id="_Path_5" data-name="&lt;Path&gt;" class="cls-5" d="M49.67,259.8a.57.57,0,0,1-.29-1.06c.34-.2,8.47-5,16.47-2.73a.57.57,0,0,1-.3,1.1C58,255,50,259.68,50,259.73A.57.57,0,0,1,49.67,259.8Z" transform="translate(-20.79 -32.01)"/></g></g></g><g id="Device"><g id="Laptop"><path id="_Path_6" data-name="&lt;Path&gt;" class="cls-6" d="M77.93,295.6a9.29,9.29,0,0,0,4.33,7.19l121.33,70a9.57,9.57,0,0,0,8.66,0l166-95.84a8.14,8.14,0,0,0,0-14.38l-121.33-70a9.57,9.57,0,0,0-8.66,0l-166,95.84A9.28,9.28,0,0,0,77.93,295.6Z" transform="translate(-20.79 -32.01)"/><path id="_Path_7" data-name="&lt;Path&gt;" class="cls-7" d="M207.92,364.5v9.37a8.83,8.83,0,0,1-4.33-1L82.26,302.79a8.11,8.11,0,0,1-.44-14.1c-1.94,1.39-1.79,3.43.44,4.72l121.33,70.05A8.83,8.83,0,0,0,207.92,364.5Z" transform="translate(-20.79 -32.01)"/><path id="_Path_8" data-name="&lt;Path&gt;" class="cls-8" d="M73.87,288.56a9.29,9.29,0,0,1-4.06-7.35V136.43a9.57,9.57,0,0,1,4.33-7.5l166-95.84a9.29,9.29,0,0,1,8.39-.15,9.28,9.28,0,0,1,4.06,7.35V185.06a9.57,9.57,0,0,1-4.33,7.5l-166,95.84A9.28,9.28,0,0,1,73.87,288.56Z" transform="translate(-20.79 -32.01)"/><path id="_Path_9" data-name="&lt;Path&gt;" class="cls-7" d="M81.75,288.67a9.3,9.3,0,0,1-7.88-.11,9.28,9.28,0,0,1-4.06-7.34V136.43a8.74,8.74,0,0,1,1.27-4.26l8.12,4.68h0a8.88,8.88,0,0,0-1.27,4.26V285.91C77.93,288.47,79.6,289.62,81.75,288.67Z" transform="translate(-20.79 -32.01)"/><path id="_Path_10" data-name="&lt;Path&gt;" class="cls-6" d="M77.93,141.12V285.91c0,2.76,1.94,3.88,4.33,2.5l166-95.84a9.57,9.57,0,0,0,4.33-7.5V40.28c0-2.76-1.94-3.88-4.33-2.5l-166,95.84A9.57,9.57,0,0,0,77.93,141.12Z" transform="translate(-20.79 -32.01)"/><path id="_Path_11" data-name="&lt;Path&gt;" class="cls-8" d="M82.26,293.41l121.33,70a9.57,9.57,0,0,0,8.66,0l166-95.84c2.39-1.38,2.39-3.62,0-5l-121.33-70a9.57,9.57,0,0,0-8.66,0l-166,95.84C79.87,289.79,79.87,292,82.26,293.41Z" transform="translate(-20.79 -32.01)"/><path id="_Path_12" data-name="&lt;Path&gt;" class="cls-5" d="M84.59,141.66,244.64,49.28c1.43-.83,2.6-.16,2.6,1.5V176.11a5.74,5.74,0,0,1-2.6,4.5L84.59,273c-1.43.83-2.6.16-2.6-1.5V146.16A5.74,5.74,0,0,1,84.59,141.66Z" transform="translate(-20.79 -32.01)"/><path id="_Path_13" data-name="&lt;Path&gt;" class="cls-9" d="M84.59,141.66,244.64,49.28c1.43-.83,2.6-.16,2.6,1.5V176.11a5.74,5.74,0,0,1-2.6,4.5L84.59,273c-1.43.83-2.6.16-2.6-1.5V146.16A5.74,5.74,0,0,1,84.59,141.66Z" transform="translate(-20.79 -32.01)"/><g id="_Group_3" data-name="&lt;Group&gt;"><path id="_Path_14" data-name="&lt;Path&gt;" class="cls-10" d="M164.27,133.73c4.26-2.46,7.72-.47,7.72,4.45a17.05,17.05,0,0,1-7.72,13.36c-4.26,2.46-7.72.47-7.72-4.45A17.05,17.05,0,0,1,164.27,133.73Z" transform="translate(-20.79 -32.01)"/><path id="_Path_15" data-name="&lt;Path&gt;" class="cls-10" d="M179.48,160.05c0-8.08-5.68-11.67-12.68-7.63l-4.38,2.53c-7,4-12.68,13.87-12.68,22v2.18l29.73-17.15Z" transform="translate(-20.79 -32.01)"/></g><g id="_Group_4" data-name="&lt;Group&gt;"><path id="_Path_16" data-name="&lt;Path&gt;" class="cls-10" d="M194.51,164c-.28-.65-1-.82-1.81-.35l-51.92,30a4.26,4.26,0,0,0-1.92,3.33v6.11c0,1,.62,1.55,1.46,1.31l.14,0a2.25,2.25,0,0,0,.32-.16l51.92-30a4.24,4.24,0,0,0,1.92-3.33V164.8A2.38,2.38,0,0,0,194.51,164Z" transform="translate(-20.79 -32.01)"/><g id="_Group_5" data-name="&lt;Group&gt;"><path id="_Path_17" data-name="&lt;Path&gt;" class="cls-4" d="M145.47,194.41c1-.58,1.82-.11,1.82,1.05a4,4,0,0,1-1.82,3.16c-1,.58-1.82.11-1.82-1.05A4,4,0,0,1,145.47,194.41Z" transform="translate(-20.79 -32.01)"/><path id="_Path_18" data-name="&lt;Path&gt;" class="cls-4" d="M151.51,190.92c1-.58,1.82-.11,1.82,1.05a4,4,0,0,1-1.82,3.16c-1,.58-1.82.11-1.82-1.05A4,4,0,0,1,151.51,190.92Z" transform="translate(-20.79 -32.01)"/><path id="_Path_19" data-name="&lt;Path&gt;" class="cls-4" d="M157.54,187.44c1-.58,1.82-.11,1.82,1.05a4,4,0,0,1-1.82,3.16c-1,.58-1.82.11-1.82-1.05A4,4,0,0,1,157.54,187.44Z" transform="translate(-20.79 -32.01)"/><path id="_Path_20" data-name="&lt;Path&gt;" class="cls-4" d="M163.57,184c1-.58,1.82-.11,1.82,1.05a4,4,0,0,1-1.82,3.16c-1,.58-1.82.11-1.82-1.05A4,4,0,0,1,163.57,184Z" transform="translate(-20.79 -32.01)"/><path id="_Path_21" data-name="&lt;Path&gt;" class="cls-4" d="M169.6,180.47c1-.58,1.82-.11,1.82,1.05a4,4,0,0,1-1.82,3.16c-1,.58-1.82.11-1.82-1.05A4,4,0,0,1,169.6,180.47Z" transform="translate(-20.79 -32.01)"/><path id="_Path_22" data-name="&lt;Path&gt;" class="cls-4" d="M175.64,177c1-.58,1.82-.11,1.82,1.05a4,4,0,0,1-1.82,3.16c-1,.58-1.82.11-1.82-1.05A4,4,0,0,1,175.64,177Z" transform="translate(-20.79 -32.01)"/><path id="_Path_23" data-name="&lt;Path&gt;" class="cls-4" d="M181.67,173.51c1-.58,1.82-.11,1.82,1.05a4,4,0,0,1-1.82,3.16c-1,.58-1.82.11-1.82-1.05A4,4,0,0,1,181.67,173.51Z" transform="translate(-20.79 -32.01)"/><path id="_Path_24" data-name="&lt;Path&gt;" class="cls-4" d="M187.7,170c1-.58,1.82-.11,1.82,1.05a4,4,0,0,1-1.82,3.16c-1,.58-1.82.11-1.82-1.05A4,4,0,0,1,187.7,170Z" transform="translate(-20.79 -32.01)"/></g></g><path id="_Path_25" data-name="&lt;Path&gt;" class="cls-6" d="M96.34,289.66l154.09-89a4.79,4.79,0,0,1,4.33,0l7.88,4.55a1.32,1.32,0,0,1,0,2.5L108.53,296.7a4.79,4.79,0,0,1-4.33,0l-7.86-4.54A1.32,1.32,0,0,1,96.34,289.66Z" transform="translate(-20.79 -32.01)"/><path id="_Path_26" data-name="&lt;Path&gt;" class="cls-7" d="M116.65,301.39l154.09-89a4.79,4.79,0,0,1,4.33,0l48.48,28a1.32,1.32,0,0,1,0,2.5L169.64,331.75a4.81,4.81,0,0,1-4.33,0l-48.64-27.88A1.31,1.31,0,0,1,116.65,301.39Z" transform="translate(-20.79 -32.01)"/><path id="_Compound_Path_" data-name="&lt;Compound Path&gt;" class="cls-8" d="M254.78,252.45l4.82-2.79c.21-.12.19-.32,0-.44L254,246a.85.85,0,0,0-.77,0l-4.82,2.79c-.21.12-.19.32,0,.44l5.58,3.22A.85.85,0,0,0,254.78,252.45Zm-9.52-11.07-4.82,2.79c-.2.12-.19.32,0,.44l5.58,3.22a.85.85,0,0,0,.77,0l4.82-2.79c.21-.12.19-.32,0-.44L246,241.4A.85.85,0,0,0,245.26,241.38Zm-15.59,9-8.16,4.71c-.2.12-.19.32,0,.44l5.58,3.22a.85.85,0,0,0,.77,0l8.16-4.71c.21-.12.19-.32,0-.44l-5.58-3.22A.85.85,0,0,0,229.67,250.38Zm8.54-4.93-4.82,2.79c-.2.12-.19.32,0,.44L239,251.9a.85.85,0,0,0,.77,0l4.82-2.79c.21-.12.19-.32,0-.44L239,245.47A.85.85,0,0,0,238.21,245.45Zm-18.93,10.93-4.82,2.79c-.21.12-.19.32,0,.44l5.58,3.22a.85.85,0,0,0,.77,0l4.82-2.79c.2-.12.19-.32,0-.44l-5.58-3.22A.85.85,0,0,0,219.28,256.38Zm-7.05,4.07-4.82,2.79c-.21.12-.19.32,0,.44L213,266.9a.85.85,0,0,0,.77,0l4.82-2.79c.21-.12.19-.32,0-.44L213,260.47A.85.85,0,0,0,212.23,260.45Zm21.94,13.1,4.82-2.79c.2-.12.19-.32,0-.44l-5.58-3.22a.85.85,0,0,0-.77,0l-4.82,2.79c-.21.12-.19.32,0,.44l5.58,3.22A.85.85,0,0,0,234.17,273.55Zm-7.05,4.07,4.82-2.79c.21-.12.19-.32,0-.44l-5.58-3.22a.85.85,0,0,0-.77,0l-4.82,2.79c-.21.12-.19.32,0,.44l5.58,3.22A.85.85,0,0,0,227.12,277.62Zm-7.05,4.07,4.82-2.79c.21-.12.19-.32,0-.44l-5.58-3.22a.85.85,0,0,0-.77,0L213.7,278c-.21.12-.19.32,0,.44l5.58,3.22A.85.85,0,0,0,220.07,281.69ZM213,285.76l4.82-2.79c.2-.12.19-.32,0-.44l-5.58-3.22a.85.85,0,0,0-.77,0l-4.82,2.79c-.21.12-.19.32,0,.44l5.58,3.22A.85.85,0,0,0,213,285.76Zm34.71-29.24,4.82-2.79c.2-.12.19-.32,0-.44l-5.58-3.22a.85.85,0,0,0-.77,0l-4.82,2.79c-.21.12-.19.32,0,.44L247,256.5A.85.85,0,0,0,247.73,256.52Zm-6.5,13L252,263.26c.2-.12.19-.32,0-.44L238.41,255a.85.85,0,0,0-.77,0l-5.57,3.21c-.21.12-.19.32,0,.44l7.17,4.14c.22.13.23.33,0,.44l-4.45,2.57c-.21.12-.19.32,0,.44l5.58,3.22A.85.85,0,0,0,241.23,269.48Zm-36-5-4.82,2.79c-.2.12-.19.32,0,.44L206,271a.85.85,0,0,0,.77,0l4.82-2.79c.2-.12.19-.32,0-.44l-5.58-3.22A.85.85,0,0,0,205.18,264.52Zm-7.05,4.07-4.82,2.79c-.21.12-.19.32,0,.44l5.58,3.22a.85.85,0,0,0,.77,0l4.82-2.79c.21-.12.19-.32,0-.44l-5.58-3.22A.85.85,0,0,0,198.13,268.59Zm-35.24,45.65a.85.85,0,0,0,.77,0l4.82-2.79c.2-.12.19-.32,0-.44l-5.58-3.22a.85.85,0,0,0-.77,0l-4.82,2.79c-.21.12-.19.32,0,.44Zm-21.17-13.08-4.82,2.79c-.21.12-.19.32,0,.44l5.58,3.22a.85.85,0,0,0,.77,0l4.82-2.79c.2-.12.19-.32,0-.44l-5.58-3.22A.85.85,0,0,0,141.72,301.16Zm11.35,9.55a.85.85,0,0,0,.77,0l4.82-2.79c.2-.12.19-.32,0-.44l-5.58-3.22a.85.85,0,0,0-.77,0L147.46,307c-.21.12-.19.32,0,.44Zm22.28,6,4.82-2.79c.21-.12.19-.32,0-.44l-5.58-3.22a.85.85,0,0,0-.77,0L169,313c-.2.12-.19.32,0,.44l5.58,3.22A.85.85,0,0,0,175.34,316.72Zm-7.82,4.06a.85.85,0,0,0,.77,0l4.82-2.79c.2-.12.19-.32,0-.44l-5.58-3.22a.85.85,0,0,0-.77,0l-4.82,2.79c-.2.12-.19.32,0,.44Zm-18.75-23.68-4.82,2.79c-.21.12-.19.32,0,.44l5.58,3.22a.85.85,0,0,0,.77,0l4.82-2.79c.21-.12.19-.32,0-.44l-5.58-3.22A.85.85,0,0,0,148.77,297.09ZM184,276.73l-4.82,2.79c-.2.12-.19.32,0,.44l5.58,3.22a.85.85,0,0,0,.77,0l4.82-2.79c.2-.12.19-.32,0-.44l-5.58-3.22A.85.85,0,0,0,184,276.73ZM155.82,293,151,295.8c-.2.12-.19.32,0,.44l5.58,3.22a.85.85,0,0,0,.77,0l4.82-2.79c.21-.12.19-.32,0-.44L156.59,293A.85.85,0,0,0,155.82,293Zm35.26-20.36-4.82,2.79c-.21.12-.19.32,0,.44l5.58,3.22a.85.85,0,0,0,.77,0l4.82-2.79c.21-.12.19-.32,0-.44l-5.58-3.22A.85.85,0,0,0,191.08,272.66ZM177,280.8l-4.82,2.79c-.21.12-.19.32,0,.44l5.58,3.22a.85.85,0,0,0,.77,0l4.82-2.79c.2-.12.19-.32,0-.44l-5.58-3.22A.85.85,0,0,0,177,280.8Zm-7.05,4.07-4.82,2.79c-.21.12-.19.32,0,.44l5.58,3.22a.85.85,0,0,0,.77,0l4.82-2.79c.2-.12.19-.32,0-.44l-5.58-3.22A.85.85,0,0,0,169.92,284.88Zm-7.05,4.07L158,291.73c-.21.12-.19.32,0,.44l5.58,3.22a.85.85,0,0,0,.77,0l4.82-2.79c.2-.12.19-.32,0-.44L163.64,289A.85.85,0,0,0,162.87,288.95Zm36,5,4.82-2.79c.21-.12.19-.32,0-.44l-5.58-3.22a.85.85,0,0,0-.77,0l-4.82,2.79c-.21.12-.19.32,0,.44l5.58,3.22A.85.85,0,0,0,198.92,293.9Zm61.93-61.52L256,235.17c-.21.12-.19.32,0,.44l5.58,3.22a.85.85,0,0,0,.77,0l4.82-2.79c.21-.12.19-.32,0-.44l-5.58-3.22A.85.85,0,0,0,260.85,232.38Zm-8.54,4.93-4.82,2.79c-.21.12-.19.32,0,.44l5.58,3.22a.85.85,0,0,0,.77,0l4.82-2.79c.2-.12.19-.32,0-.44l-5.58-3.22A.85.85,0,0,0,252.31,237.31Zm15.59-9-4.82,2.79c-.21.12-.19.32,0,.44l5.58,3.22a.85.85,0,0,0,.77,0l4.82-2.79c.2-.12.19-.32,0-.44l-5.58-3.22A.85.85,0,0,0,267.9,228.31Zm-36.5,37.64,4.82-2.79c.21-.12.19-.32,0-.44l-5.58-3.22a.85.85,0,0,0-.77,0L225,262.26c-.21.12-.19.32,0,.44l5.58,3.22A.85.85,0,0,0,231.4,265.95Zm44.32-41.69a.85.85,0,0,0-.77,0L270.13,227c-.2.12-.19.32,0,.44l5.58,3.22a.85.85,0,0,0,.77,0l4.82-2.79c.21-.12.19-.32,0-.44ZM206,289.83l4.82-2.79c.21-.12.19-.32,0-.44l-5.58-3.22a.85.85,0,0,0-.77,0l-4.82,2.79c-.21.12-.19.32,0,.44l5.58,3.22A.85.85,0,0,0,206,289.83Zm86.47-49.92,4.82-2.79c.21-.12.19-.32,0-.44l-5.58-3.22a.85.85,0,0,0-.77,0l-4.82,2.79c-.2.12-.19.32,0,.44l5.58,3.22A.85.85,0,0,0,292.44,239.91Zm-15-.53,4.82-2.79c.2-.12.19-.32,0-.44l-5.58-3.22a.85.85,0,0,0-.77,0L271,235.7c-.21.12-.19.32,0,.44l5.58,3.22A.85.85,0,0,0,277.42,239.38Zm6.27-10.52a.85.85,0,0,0-.77,0l-4.82,2.79c-.2.12-.19.32,0,.44l5.58,3.22a.85.85,0,0,0,.77,0l4.82-2.79c.2-.12.19-.32,0-.44Zm1.48-.86,13.55,7.82a.85.85,0,0,0,.77,0l4.82-2.79c.21-.12.19-.32,0-.44l-13.55-7.82a.85.85,0,0,0-.77,0l-4.82,2.79C284.94,227.67,285,227.87,285.17,228Zm-16.36,9L264,239.77c-.21.12-.19.32,0,.44l5.58,3.22a.85.85,0,0,0,.77,0l4.82-2.79c.2-.12.19-.32,0-.44L269.59,237A.85.85,0,0,0,268.82,237Zm-53.07,30.64-4.82,2.79c-.21.12-.19.32,0,.44l5.58,3.22a.85.85,0,0,0,.77,0l4.82-2.79c.21-.12.19-.32,0-.44l-5.58-3.22A.85.85,0,0,0,215.75,267.62ZM284.62,244a.85.85,0,0,0,.77,0l4.82-2.79c.2-.12.19-.32,0-.44l-5.58-3.22a.85.85,0,0,0-.77,0L279,240.3c-.21.12-.19.32,0,.44ZM222.8,263.55,218,266.34c-.21.12-.19.32,0,.44l5.58,3.22a.85.85,0,0,0,.77,0l4.82-2.79c.21-.12.19-.32,0-.44l-5.58-3.22A.85.85,0,0,0,222.8,263.55Zm-52.85,46.62a.85.85,0,0,0,.77,0l4.82-2.79c.2-.12.19-.32,0-.44l-5.58-3.22a.85.85,0,0,0-.77,0l-4.82,2.79c-.21.12-.19.32,0,.44Zm-10.61-10L154.51,303c-.2.12-.19.32,0,.44l5.58,3.22a.85.85,0,0,0,.77,0l4.82-2.79c.21-.12.19-.32,0-.44l-5.58-3.22A.85.85,0,0,0,159.34,300.19Zm18.43,5.93,4.82-2.79c.21-.12.19-.32,0-.44L177,299.67a.85.85,0,0,0-.77,0l-4.82,2.79c-.2.12-.19.32,0,.44L177,306.1A.85.85,0,0,0,177.76,306.12Zm7.05-4.07,4.82-2.79c.21-.12.19-.32,0-.44L184,295.59a.85.85,0,0,0-.77,0l-4.82,2.79c-.2.12-.19.32,0,.44L184,302A.85.85,0,0,0,184.82,302Zm7.05-4.07,4.82-2.79c.2-.12.19-.32,0-.44l-5.58-3.22a.85.85,0,0,0-.77,0l-4.82,2.79c-.21.12-.19.32,0,.44L191.1,298A.85.85,0,0,0,191.87,298Zm-25.48-1.85-4.82,2.79c-.21.12-.19.32,0,.44l5.58,3.22a.85.85,0,0,0,.77,0l4.82-2.79c.21-.12.19-.32,0-.44l-5.58-3.22A.85.85,0,0,0,166.39,296.12Zm7.05-4.07-4.82,2.79c-.21.12-.19.32,0,.44l5.58,3.22a.85.85,0,0,0,.77,0l4.82-2.79c.2-.12.19-.32,0-.44l-5.58-3.22A.85.85,0,0,0,173.44,292Zm28.21-16.28-4.82,2.79c-.21.12-.19.32,0,.44l5.58,3.22a.85.85,0,0,0,.77,0l4.82-2.79c.21-.12.19-.32,0-.44l-5.58-3.22A.85.85,0,0,0,201.64,275.76Zm-7.05,4.07-4.82,2.79c-.2.12-.19.32,0,.44l5.58,3.22a.85.85,0,0,0,.77,0l4.82-2.79c.2-.12.19-.32,0-.44l-5.58-3.22A.85.85,0,0,0,194.59,279.83Zm14.1-8.14-4.82,2.79c-.21.12-.19.32,0,.44l5.58,3.22a.85.85,0,0,0,.77,0l4.82-2.79c.21-.12.19-.32,0-.44l-5.58-3.22A.85.85,0,0,0,208.7,271.69ZM180.49,288l-4.82,2.79c-.2.12-.19.32,0,.44l5.58,3.22a.85.85,0,0,0,.77,0l4.82-2.79c.2-.12.19-.32,0-.44L181.26,288A.85.85,0,0,0,180.49,288Zm7.05-4.07-4.82,2.79c-.2.12-.19.32,0,.44l5.58,3.22a.85.85,0,0,0,.77,0l4.82-2.79c.21-.12.19-.32,0-.44l-5.58-3.22A.85.85,0,0,0,187.54,283.91Zm-5.15,28.74,4.82-2.79c.21-.12.19-.32,0-.44l-5.58-3.22a.85.85,0,0,0-.77,0L176,309c-.21.12-.19.32,0,.44l5.58,3.22A.85.85,0,0,0,182.39,312.65ZM141,308.47l-5.58-3.22a.85.85,0,0,0-.77,0L129.84,308c-.21.12-.19.32,0,.44l5.58,3.22a.85.85,0,0,0,.77,0l4.82-2.79C141.25,308.79,141.23,308.59,141,308.47Zm10.57,3.1L146,308.35a.85.85,0,0,0-.77,0l-7.42,4.29c-.21.12-.19.32,0,.44l5.58,3.22a.85.85,0,0,0,.77,0l7.42-4.29C151.81,311.89,151.8,311.7,151.58,311.57Zm-19.13-9.33L126.88,299a.85.85,0,0,0-.77,0l-5.94,3.43c-.2.12-.19.32,0,.44l5.58,3.22a.85.85,0,0,0,.77,0l5.94-3.43C132.69,302.57,132.68,302.37,132.46,302.24Zm4.55-2.63a.85.85,0,0,0,.77,0l4.82-2.79c.21-.12.19-.32,0-.44L137,293.18a.85.85,0,0,0-.77,0l-4.82,2.79c-.21.12-.19.32,0,.44Zm24.4,15.49-5.58-3.22a.85.85,0,0,0-.77,0l-9.28,5.36c-.2.12-.19.32,0,.44l5.58,3.22a.85.85,0,0,0,.77,0l9.28-5.36C161.64,315.42,161.63,315.23,161.41,315.1Zm4.63,6.53-5.58-3.22a.85.85,0,0,0-.77,0l-5.94,3.43c-.21.12-.19.32,0,.44l5.58,3.22a.85.85,0,0,0,.77,0l5.94-3.43C166.27,322,166.26,321.76,166,321.63Zm23.4-52.29a.85.85,0,0,0,.77,0l4.82-2.79c.21-.12.19-.32,0-.44l-5.58-3.22a.85.85,0,0,0-.77,0l-4.82,2.79c-.21.12-.19.32,0,.44Zm-14.1,8.14a.85.85,0,0,0,.77,0l4.82-2.79c.2-.12.19-.32,0-.44l-5.58-3.22a.85.85,0,0,0-.77,0l-4.82,2.79c-.21.12-.19.32,0,.44Zm-31.27,18.06a.85.85,0,0,0,.77,0l4.82-2.79c.2-.12.19-.32,0-.44L144,289.11a.85.85,0,0,0-.77,0l-4.82,2.79c-.2.12-.19.32,0,.44Zm38.32-22.13a.85.85,0,0,0,.77,0l4.82-2.79c.2-.12.19-.32,0-.44L182.37,267a.85.85,0,0,0-.77,0l-4.82,2.79c-.21.12-.19.32,0,.44Zm-14.1,8.14a.85.85,0,0,0,.77,0l4.82-2.79c.21-.12.19-.32,0-.44l-5.58-3.22a.85.85,0,0,0-.77,0l-4.82,2.79c-.21.12-.19.32,0,.44Zm1.63,40.6a.85.85,0,0,0-.77,0l-7.42,4.29c-.21.12-.19.32,0,.44l5.58,3.22a.85.85,0,0,0,.77,0l7.42-4.29c.21-.12.19-.32,0-.44ZM158.16,287.4a.85.85,0,0,0,.77,0l4.82-2.79c.21-.12.19-.32,0-.44L158.15,281a.85.85,0,0,0-.77,0l-4.82,2.79c-.21.12-.19.32,0,.44Zm-7.05,4.07a.85.85,0,0,0,.77,0l4.82-2.79c.21-.12.19-.32,0-.44L151.1,285a.85.85,0,0,0-.77,0l-4.82,2.79c-.2.12-.19.32,0,.44Zm149.44-44.74a.85.85,0,0,0-.77,0l-11.88,6.86c-.21.12-.19.32,0,.44l5.58,3.22a.85.85,0,0,0,.77,0l11.88-6.86c.2-.12.19-.32,0-.44Zm-15.59,9a.85.85,0,0,0-.77,0l-4.82,2.79c-.21.12-.19.32,0,.44l5.58,3.22a.85.85,0,0,0,.77,0l4.82-2.79c.21-.12.19-.32,0-.44Zm-95.51,52.84,4.82-2.79c.2-.12.19-.32,0-.44l-5.58-3.22a.85.85,0,0,0-.77,0l-4.82,2.79c-.21.12-.19.32,0,.44l5.58,3.22A.85.85,0,0,0,189.44,308.57Zm81.41-44.7a.85.85,0,0,0-.77,0l-4.82,2.79c-.2.12-.19.32,0,.44l5.58,3.22a.85.85,0,0,0,.77,0l4.82-2.79c.21-.12.19-.32,0-.44Zm36.74-21.21a.85.85,0,0,0-.77,0L302,245.43c-.2.12-.19.32,0,.44l5.58,3.22a.85.85,0,0,0,.77,0l4.82-2.79c.21-.12.19-.32,0-.44Zm12.63-.85L306.68,234a.85.85,0,0,0-.77,0l-4.82,2.79c-.21.12-.19.32,0,.44L314.66,245a.85.85,0,0,0,.77,0l4.82-2.79C320.46,242.13,320.45,241.94,320.23,241.81Zm-75.72,37.28a.85.85,0,0,0-.77,0l-5.94,3.43c-.21.12-.19.32,0,.44l5.58,3.22a.85.85,0,0,0,.77,0l5.94-3.43c.21-.12.19-.32,0-.44Zm17.81-10.28a.85.85,0,0,0-.77,0l-7.42,4.29c-.2.12-.19.32,0,.44l5.58,3.22a.85.85,0,0,0,.77,0l7.42-4.29c.21-.12.19-.32,0-.44Zm-34.14,19.71a.85.85,0,0,0-.77,0L187.7,311.42c-.21.12-.19.32,0,.44l5.58,3.22a.85.85,0,0,0,.77,0l39.71-22.93c.21-.12.19-.32,0-.44Zm-41.94,24.21a.85.85,0,0,0-.77,0l-5.94,3.43c-.21.12-.19.32,0,.44l5.58,3.22a.85.85,0,0,0,.77,0l5.94-3.43c.2-.12.19-.32,0-.44Zm50.1-28.93a.85.85,0,0,0-.77,0l-5.94,3.43c-.21.12-.19.32,0,.44l5.58,3.22a.85.85,0,0,0,.77,0l5.94-3.43c.21-.12.19-.32,0-.44Zm-58.27,33.64a.85.85,0,0,0-.77,0l-5.94,3.43c-.2.12-.19.32,0,.44l5.58,3.22a.85.85,0,0,0,.77,0l5.94-3.43c.2-.12.19-.32,0-.44Zm74.6-43.07a.85.85,0,0,0-.77,0L246,277.78c-.2.12-.19.32,0,.44l5.58,3.22a.85.85,0,0,0,.77,0l5.94-3.43c.21-.12.19-.32,0-.44Zm25.24-14.57a.85.85,0,0,0-.77,0l-4.82,2.79c-.21.12-.19.32,0,.44l5.58,3.22a.85.85,0,0,0,.77,0l4.82-2.79c.21-.12.19-.32,0-.44Zm15.45-11.22,4.82-2.79c.21-.12.19-.32,0-.44l-5.58-3.22a.85.85,0,0,0-.77,0L287,244.9c-.2.12-.19.32,0,.44l5.58,3.22A.85.85,0,0,0,293.36,248.58Zm-31.53-.2,4.82-2.79c.21-.12.19-.32,0-.44l-5.58-3.22a.85.85,0,0,0-.77,0l-4.82,2.79c-.21.12-.19.32,0,.44l5.58,3.22A.85.85,0,0,0,261.83,248.38Zm-16,27.63,14.1-8.14c.21-.12.19-.32,0-.44l-5.58-3.22a.85.85,0,0,0-.77,0l-14.1,8.14c-.21.12-.19.32,0,.44l5.58,3.22A.85.85,0,0,0,245.86,276Zm39.68-23.37a.85.85,0,0,0,.77,0l4.82-2.79c.21-.12.19-.32,0-.44l-5.58-3.22a.85.85,0,0,0-.77,0L279.93,249c-.2.12-.19.32,0,.44Zm-7.2-4.59,4.82-2.79c.2-.12.19-.32,0-.44l-5.58-3.22a.85.85,0,0,0-.77,0L272,244.37c-.21.12-.19.32,0,.44l5.58,3.22A.85.85,0,0,0,278.34,248Zm-39.53,32,4.82-2.79c.21-.12.19-.32,0-.44L238,273.63a.85.85,0,0,0-.77,0l-4.82,2.79c-.2.12-.19.32,0,.44l5.58,3.22A.85.85,0,0,0,238.8,280.08ZM270,261.63a.85.85,0,0,0,.77,0l4.82-2.79c.21-.12.19-.32,0-.44l-5.58-3.22a.85.85,0,0,0-.77,0L264.34,258c-.21.12-.19.32,0,.44Zm-66.4,38.8,4.82-2.79c.2-.12.19-.32,0-.44L202.77,294a.85.85,0,0,0-.77,0l-4.82,2.79c-.21.12-.19.32,0,.44l5.58,3.22A.85.85,0,0,0,203.55,300.43Zm7.05-4.07,4.82-2.79c.2-.12.19-.32,0-.44l-5.58-3.22a.85.85,0,0,0-.77,0l-4.82,2.79c-.2.12-.19.32,0,.44l5.58,3.22A.85.85,0,0,0,210.6,296.36Zm-14.1,8.14,4.82-2.79c.21-.12.19-.32,0-.44l-5.58-3.22a.85.85,0,0,0-.77,0l-4.82,2.79c-.21.12-.19.32,0,.44l5.58,3.22A.85.85,0,0,0,196.5,304.5Zm28.2-16.28,4.82-2.79c.21-.12.19-.32,0-.44l-5.58-3.22a.85.85,0,0,0-.77,0l-4.82,2.79c-.2.12-.19.32,0,.44l5.58,3.22A.85.85,0,0,0,224.7,288.22Zm-7.05,4.07,4.82-2.79c.21-.12.19-.32,0-.44l-5.58-3.22a.85.85,0,0,0-.77,0l-4.82,2.79c-.2.12-.19.32,0,.44l5.58,3.22A.85.85,0,0,0,217.65,292.29Zm14.1-8.14,4.82-2.79c.2-.12.19-.32,0-.44L231,277.7a.85.85,0,0,0-.77,0l-4.82,2.79c-.2.12-.19.32,0,.44l5.58,3.22A.85.85,0,0,0,231.75,284.15ZM264,223.92a.85.85,0,0,0,.77,0l4.82-2.79c.21-.12.19-.32,0-.44l-1.48-.86a.85.85,0,0,0-.77,0l-4.82,2.79c-.2.12-.19.32,0,.44Zm-34.69,22.39a.85.85,0,0,0,.77,0l4.82-2.79c.2-.12.19-.32,0-.44l-5.58-3.22a.85.85,0,0,0-.77,0l-4.82,2.79c-.21.12-.19.32,0,.44Zm14.1-8.14a.85.85,0,0,0,.77,0l4.82-2.79c.21-.12.19-.32,0-.44l-5.58-3.22a.85.85,0,0,0-.77,0l-4.82,2.79c-.2.12-.19.32,0,.44Zm-22.71,13.11a.85.85,0,0,0,.77,0l4.82-2.79c.2-.12.19-.32,0-.44l-5.58-3.22a.85.85,0,0,0-.77,0l-4.82,2.79c-.21.12-.19.32,0,.44Zm15.66-9a.85.85,0,0,0,.77,0l4.82-2.79c.2-.12.19-.32,0-.44l-5.58-3.22a.85.85,0,0,0-.77,0l-4.82,2.79c-.21.12-.19.32,0,.44Zm-29.76,17.18a.85.85,0,0,0,.77,0l4.82-2.79c.21-.12.19-.32,0-.44L206.59,253a.85.85,0,0,0-.77,0L201,255.76c-.21.12-.19.32,0,.44Zm7.05-4.07a.85.85,0,0,0,.77,0l4.82-2.79c.21-.12.19-.32,0-.44l-5.58-3.22a.85.85,0,0,0-.77,0l-4.82,2.79c-.21.12-.19.32,0,.44Zm36.25-23.29a.85.85,0,0,0,.77,0l4.82-2.79c.2-.12.19-.32,0-.44L254,228a.85.85,0,0,0-.77,0l-4.82,2.79c-.21.12-.19.32,0,.44Zm21.15-12.21a.85.85,0,0,0,.77,0l4.82-2.79c.2-.12.19-.32,0-.44l-1.49-.86a.85.85,0,0,0-.77,0l-4.82,2.79c-.21.12-.19.32,0,.44Zm11.72,6.77a.85.85,0,0,0,.77,0l4.82-2.79c.21-.12.19-.32,0-.44l-5.58-3.22a.85.85,0,0,0-.77,0L277.18,223c-.21.12-.19.32,0,.44Zm17.63,17.89,4.82-2.79c.21-.12.19-.32,0-.44l-5.58-3.22a.85.85,0,0,0-.77,0L294,240.83c-.2.12-.19.32,0,.44l5.58,3.22A.85.85,0,0,0,300.41,244.51ZM257,228a.85.85,0,0,0,.77,0l4.82-2.79c.21-.12.19-.32,0-.44l-1.49-.86a.85.85,0,0,0-.77,0l-4.82,2.79c-.2.12-.19.32,0,.44ZM199.55,263.5a.85.85,0,0,0,.77,0l4.82-2.79c.21-.12.19-.32,0-.44l-5.58-3.22a.85.85,0,0,0-.77,0l-4.82,2.79c-.2.12-.19.32,0,.44Z" transform="translate(-20.79 -32.01)"/><path id="_Path_27" data-name="&lt;Path&gt;" class="cls-7" d="M230.82,305.83l47.61-27.49a5.74,5.74,0,0,1,5.2,0l27.3,15.76c1.43.83,1.43,2.17,0,3l-47.61,27.49a5.74,5.74,0,0,1-5.2,0l-27.3-15.76C229.39,308,229.39,306.65,230.82,305.83Z" transform="translate(-20.79 -32.01)"/></g></g><g id="Shield"><g id="Shield-2" data-name="Shield"><path id="_Path_28" data-name="&lt;Path&gt;" class="cls-4" d="M318.38,173.64h0l-.06,0-8.13-4.68c-.47-.21-1.16,0-2,.62-7.56,5.79-17.73,7.58-26,4.94a19.71,19.71,0,0,1-1.52-1.58l-.15-.17h0a3.19,3.19,0,0,0-.84-.69l-.14-.08-8.14-4.67c-.93-.44-1.77,0-2.33,1.38-7.86,19.53-24.61,39.32-35.78,44.27a6.32,6.32,0,0,0-2.2,1.64,4.69,4.69,0,0,0-1.24,3.2l1.61,43.85c0,12.67,5.35,26.05,16.26,32.56l8.42,4.86.15.08a29.62,29.62,0,0,0,14.92,3.79c1.17,0,2.36-.05,3.59-.17a12,12,0,0,0,6.36-3.18c24.41-25.21,36.28-59.33,36.28-78.21L319,175.48C319.06,174.49,318.82,173.88,318.38,173.64Z" transform="translate(-20.79 -32.01)"/><path id="_Path_29" data-name="&lt;Path&gt;" class="cls-4" d="M319,175.48l-1.61,45.87c0,18.88-11.87,53-36.28,78.21a12,12,0,0,1-6.36,3.18c-1.23.12-2.42.17-3.59.17a29.62,29.62,0,0,1-14.92-3.79l-.15-.08-.29-.18c-10.91-6.51-16.26-19.89-16.26-32.56l-1.61-43.85a4.69,4.69,0,0,1,1.24-3.2,6.32,6.32,0,0,1,2.2-1.64c11.17-4.95,27.92-24.74,35.78-44.27.56-1.38,1.41-1.83,2.34-1.39h0l.14.08a3.19,3.19,0,0,1,.84.69h0l.15.17c8.34,9.71,24.74,9.7,35.69,1.32.83-.63,1.52-.83,2-.62l.06,0h0C318.82,173.88,319.06,174.49,319,175.48Z" transform="translate(-20.79 -32.01)"/><g id="_Group_6" data-name="&lt;Group&gt;"><path id="_Path_30" data-name="&lt;Path&gt;" class="cls-11" d="M318.33,173.58c-.47-.21-1.16,0-2,.62-10.31,7.89-25.46,8.36-34.15.26,8.31,2.65,18.46.85,26-4.94.83-.63,1.52-.83,2-.62Z" transform="translate(-20.79 -32.01)"/><path id="_Path_31" data-name="&lt;Path&gt;" class="cls-11" d="M279.51,171.94c-.93-.44-1.78,0-2.34,1.39-7.86,19.53-24.61,39.32-35.78,44.27a6.32,6.32,0,0,0-2.2,1.64,5.22,5.22,0,0,0-.56.77l-8.12-4.69a5.63,5.63,0,0,1,.55-.76,4.17,4.17,0,0,1,.36-.37h0l.14-.14.14-.13a6,6,0,0,1,1.55-1c11.17-4.95,27.92-24.74,35.78-44.27.56-1.38,1.4-1.82,2.33-1.38Z" transform="translate(-20.79 -32.01)"/><path id="_Path_32" data-name="&lt;Path&gt;" class="cls-4" d="M231.43,214.17a.85.85,0,0,1,.14-.13l-.14.14S231.42,214.17,231.43,214.17Z" transform="translate(-20.79 -32.01)"/><path id="_Path_33" data-name="&lt;Path&gt;" class="cls-12" d="M231.57,214l-.14.14s0,0,0,0A.85.85,0,0,1,231.57,214Z" transform="translate(-20.79 -32.01)"/></g><path id="_Path_34" data-name="&lt;Path&gt;" class="cls-12" d="M256.26,299.11l-.15-.07-8.42-4.87c-10.91-6.51-16.26-19.89-16.26-32.56l-1.61-43.85a4.35,4.35,0,0,1,.69-2.44l8.12,4.69a4.38,4.38,0,0,0-.68,2.43l1.61,43.85c0,12.67,5.35,26.05,16.26,32.56l.29.18Z" transform="translate(-20.79 -32.01)"/><g id="_Group_7" data-name="&lt;Group&gt;"><path id="_Path_35" data-name="&lt;Path&gt;" class="cls-8" d="M285,258.77l-13,7.5,2-23.51c-1.55-.82-2.55-2.84-2.55-5.75,0-5.18,3.15-11.19,7-13.43s7,.14,7,5.31a17.66,17.66,0,0,1-2.55,8.69Z" transform="translate(-20.79 -32.01)"/><polygon id="_Path_36" data-name="&lt;Path&gt;" class="cls-6" points="264.19 226.76 252.42 219.96 251.2 234.26 264.19 226.76"/><path id="_Path_37" data-name="&lt;Path&gt;" class="cls-6" d="M278.49,223.58c-2.54,1.47-4.76,4.55-6,8L283,237.58h0a17.66,17.66,0,0,0,2.55-8.69C285.51,223.72,282.37,221.34,278.49,223.58Z" transform="translate(-20.79 -32.01)"/></g></g></g><g id="Key"><g id="Key-2" data-name="Key"><path id="_Compound_Path_2" data-name="&lt;Compound Path&gt;" class="cls-4" d="M115.92,395.34v3.91c0,4.59,3,9.19,9.08,12.69,9.14,5.28,22.57,6.56,33.81,3.87l10.44,6,8-1.81,5.47,3.16.3,6.62,2.95,1.7,7.41.65,5.32,3v3.73l6.68,3.86h17l6.09-3.51v-3.95l-54.34-27.43a12.5,12.5,0,0,0,3.76-8.54v-4c-.82-3.81-4-5.78-9.07-8.71-12.11-7-31.74-7-43.84,0C119.56,389.77,116.47,391.23,115.92,395.34Zm16.64-4.57a13.73,13.73,0,0,1,12.42,0c3.43,2,3.43,5.19,0,7.17a13.73,13.73,0,0,1-12.42,0C129.13,396,129.13,392.75,132.56,390.77Z" transform="translate(-20.79 -32.01)"/><path id="_Compound_Path_3" data-name="&lt;Compound Path&gt;" class="cls-13" d="M115.92,395.34v3.91c0,4.59,3,9.19,9.08,12.69,9.14,5.28,22.57,6.56,33.81,3.87l10.44,6,8-1.81,5.47,3.16.3,6.62,2.95,1.7,7.41.65,5.32,3v3.73l6.68,3.86h17l6.09-3.51v-3.95l-54.34-27.43a12.5,12.5,0,0,0,3.76-8.54v-4c-.82-3.81-4-5.78-9.07-8.71-12.11-7-31.74-7-43.84,0C119.56,389.77,116.47,391.23,115.92,395.34Zm16.64-4.57a13.73,13.73,0,0,1,12.42,0c3.43,2,3.43,5.19,0,7.17a13.73,13.73,0,0,1-12.42,0C129.13,396,129.13,392.75,132.56,390.77Z" transform="translate(-20.79 -32.01)"/><path id="_Compound_Path_4" data-name="&lt;Compound Path&gt;" class="cls-4" d="M125,408c9.14,5.28,22.57,6.56,33.81,3.87l10.44,6,8-1.81,5.47,3.16.3,6.62,2.95,1.7,7.41.65,5.78,3.22-.45,3.48,6.68,3.86h17l6.09-3.51-54.34-31.37c6.4-6.79,4.64-15.46-5.3-21.2-12.11-7-31.74-7-43.84,0S112.89,401,125,408Zm7.56-21.17a13.73,13.73,0,0,1,12.42,0c3.43,2,3.43,5.19,0,7.17a13.73,13.73,0,0,1-12.42,0C129.13,392,129.13,388.8,132.56,386.82Z" transform="translate(-20.79 -32.01)"/><path class="cls-14" d="M146.92,409.8c-7.69,0-14.86-1.7-20.2-4.78-4.68-2.7-7.36-6.23-7.36-9.68s2.68-7,7.36-9.68c5.34-3.08,12.52-4.78,20.2-4.78s14.86,1.7,20.2,4.78c4.68,2.7,7.36,6.23,7.36,9.68s-2.68,7-7.36,9.68C161.78,408.1,154.61,409.8,146.92,409.8Zm0-27.55c-7.45,0-14.38,1.63-19.52,4.6-4.24,2.45-6.68,5.55-6.68,8.49s2.43,6,6.68,8.49c5.14,3,12.07,4.6,19.52,4.6s14.38-1.63,19.52-4.6c4.24-2.45,6.68-5.55,6.68-8.49s-2.43-6-6.68-8.49C161.3,383.88,154.37,382.25,146.92,382.25Z" transform="translate(-20.79 -32.01)"/><path id="_Path_38" data-name="&lt;Path&gt;" class="cls-13" d="M135.76,412V416a52.58,52.58,0,0,0,23-.16v-3.94A52.58,52.58,0,0,1,135.76,412Z" transform="translate(-20.79 -32.01)"/><polygon id="_Path_39" data-name="&lt;Path&gt;" class="cls-13" points="148.46 385.89 148.46 389.83 156.48 388.02 156.48 384.07 148.46 385.89"/><polygon id="_Path_40" data-name="&lt;Path&gt;" class="cls-13" points="161.96 387.23 161.96 391.18 162.25 397.8 162.25 393.85 161.96 387.23"/><polygon id="_Path_41" data-name="&lt;Path&gt;" class="cls-13" points="165.2 395.55 165.2 399.5 172.61 400.15 172.61 396.2 165.2 395.55"/><rect id="_Path_42" data-name="&lt;Path&gt;" class="cls-13" x="184.62" y="406.76" width="16.99" height="3.95"/><polygon id="_Path_43" data-name="&lt;Path&gt;" class="cls-12" points="207.7 403.25 207.7 407.19 201.61 410.71 201.61 406.76 204.28 405.22 204.28 406.92 205.75 406.07 205.75 404.35 207.7 403.25"/><polygon id="_Path_44" data-name="&lt;Path&gt;" class="cls-4" points="205.75 404.35 204.28 405.22 204.28 406.92 205.75 406.07 205.75 404.35"/><polygon id="_Path_45" data-name="&lt;Path&gt;" class="cls-12" points="205.75 404.35 205.75 406.07 150.02 373.9 151.5 373.03 205.75 404.35"/><polygon id="_Path_46" data-name="&lt;Path&gt;" class="cls-12" points="151.5 373.03 151.5 374.75 150.02 373.9 151.5 373.03"/></g></g><g id="Character"><g id="Character-2" data-name="Character"><g id="_Group_8" data-name="&lt;Group&gt;"><path id="_Path_47" data-name="&lt;Path&gt;" class="cls-15" d="M414.53,288.56c.7-26-1.39-32.29-8.32-37.06l-2.69,15.09s3.16,17.79,2.82,23.71c-.3,5.2-.8,11.71-2,15.92a3.17,3.17,0,0,1-1.38,1.78c-1.77,1.1-2.48,2.24-3.81,3.63-1,1.09-1.93,1.36-1.79,1.71a1.71,1.71,0,0,0,2.2.78,12,12,0,0,0,2.51-1.36,15.92,15.92,0,0,1-2.57,4.41c-2.48,3-2.58,4.9,2.41,4.94,3.13,0,5.63-1.9,8-8.81a56.17,56.17,0,0,0,2.2-7.75C413.27,298.73,414.42,292.75,414.53,288.56Z" transform="translate(-20.79 -32.01)"/></g><path id="_Path_48" data-name="&lt;Path&gt;" class="cls-4" d="M400.38,249.52a10,10,0,0,1,10.71,5.41c2.91,5.2,3.62,14.14,3.95,23,0,0-5.77,4.83-12.7,2.45Z" transform="translate(-20.79 -32.01)"/><path id="_Path_49" data-name="&lt;Path&gt;" class="cls-16" d="M400.38,249.52a10,10,0,0,1,10.71,5.41c2.91,5.2,3.62,14.14,3.95,23,0,0-5.77,4.83-12.7,2.45Z" transform="translate(-20.79 -32.01)"/><g id="_Group_9" data-name="&lt;Group&gt;"><g id="_Group_10" data-name="&lt;Group&gt;"><g id="_Group_11" data-name="&lt;Group&gt;"><path id="_Path_50" data-name="&lt;Path&gt;" class="cls-7" d="M410.12,392.78c.53.2.66,1.2.74,3.19.06,1.51.38,4.14-1.38,4.66s-4.35.26-5.48-1.16c-1.41-1.77-2.37-3.33-4.38-5.49-1.75-1.88-3.64-3.63-4.34-6.26-.64-2.38-.11-3.41,1.51-4.1,2.23-1,5.73,2.15,7.48,2.64C405.77,386.68,409.59,392.58,410.12,392.78Z" transform="translate(-20.79 -32.01)"/></g><g id="_Group_12" data-name="&lt;Group&gt;"><path id="_Path_51" data-name="&lt;Path&gt;" class="cls-15" d="M410.12,390.93v2.44a6,6,0,0,1-6.18.17c-.11-.24-.64-3.5-.64-3.5Z" transform="translate(-20.79 -32.01)"/></g><g id="_Group_13" data-name="&lt;Group&gt;"><path id="_Path_52" data-name="&lt;Path&gt;" class="cls-7" d="M390.32,406.86s.7,2.13,1.08,4c.3,1.48.73,3.95.21,5.06s-2.54,1.83-5.66,1.8c-2,0-5.18,1.36-7.35,2.57s-6.88,1.74-9.24,1.47c-2.78-.33-5.67-1.94-6.12-3.09s.15-2.35,6.71-5.15c.06,0,9.12-3,12.29-6.48Z" transform="translate(-20.79 -32.01)"/></g><g id="_Group_14" data-name="&lt;Group&gt;"><path id="_Path_53" data-name="&lt;Path&gt;" class="cls-15" d="M390.32,404.22s0,1.81,0,2.85-1.22,2.58-4.38,2.47c-2.23-.08-3.78-.68-3.69-2.51v-2.64Z" transform="translate(-20.79 -32.01)"/></g><g id="_Group_15" data-name="&lt;Group&gt;"><path id="_Path_54" data-name="&lt;Path&gt;" class="cls-6" d="M411.71,358.5a66.41,66.41,0,0,0-2.89-12.73s.87-11,1.29-21.39c.45-11.25,0-25.38.19-28.19,0,0-36.29-7.34-36.94,5.66s1.43,46.09,1.86,51.81,1.42,10.76,2.6,20,4.43,30.71,4.43,30.71a8.57,8.57,0,0,0,8.07-.17s2.55-26,2.29-32.59a56.3,56.3,0,0,0-2.5-14.38s.69-10.72,1.3-20,1.25-13.8,1.39-17.86l.78-.39s.8,16.09,1.22,21.8,1.34,11.19,3,21.8c1.43,9.2,5.7,28.67,5.7,28.67,4.15,2.24,6.62-.29,6.62-.29S412.82,366.49,411.71,358.5Z" transform="translate(-20.79 -32.01)"/></g><g id="_Group_16" data-name="&lt;Group&gt;"><path id="_Path_55" data-name="&lt;Path&gt;" class="cls-7" d="M392.8,319.35S401.6,315,406,311.1c0,0-4.09,5.76-9.46,8.32,0,0-1.91,20-1.9,19.59l-1.1-19.69Z" transform="translate(-20.79 -32.01)"/></g></g><g id="_Group_17" data-name="&lt;Group&gt;"><g id="_Group_18" data-name="&lt;Group&gt;"><polygon id="_Path_56" data-name="&lt;Path&gt;" class="cls-15" points="364.18 213.4 366.32 225.22 377 224.44 374.76 211.04 364.18 213.4"/></g></g><g id="_Group_19" data-name="&lt;Group&gt;"><g id="_Group_20" data-name="&lt;Group&gt;"><path id="_Path_57" data-name="&lt;Path&gt;" class="cls-4" d="M409.06,255.58c-1.06-3.21-5.13-6.71-9.21-6A120.43,120.43,0,0,0,382,254.09c-3.73,1.33-7.14,4.56-7.45,16.85,0,0-1.25,28.64-1.27,34.18a45.29,45.29,0,0,0,24.53,2.42c11.22-2.45,12.58-7.11,12.58-7.11s.14-20.6-.19-29.49C409.89,263.38,409.79,257.79,409.06,255.58Z" transform="translate(-20.79 -32.01)"/></g></g><g id="_Group_21" data-name="&lt;Group&gt;" class="cls-12"><g id="_Group_22" data-name="&lt;Group&gt;"><path id="_Path_58" data-name="&lt;Path&gt;" d="M409.06,255.58c-1.06-3.21-5.13-6.71-9.21-6A120.43,120.43,0,0,0,382,254.09c-3.73,1.33-7.14,4.56-7.45,16.85,0,0-1.25,28.64-1.27,34.18a45.29,45.29,0,0,0,24.53,2.42c11.22-2.45,12.58-7.11,12.58-7.11s.14-20.6-.19-29.49C409.89,263.38,409.79,257.79,409.06,255.58Z" transform="translate(-20.79 -32.01)"/></g></g><g id="_Group_23" data-name="&lt;Group&gt;"><g id="_Group_24" data-name="&lt;Group&gt;"><path id="_Path_59" data-name="&lt;Path&gt;" class="cls-17" d="M376.73,231s-2.71,4.32-2.38,4.73,2.4.74,2.4.74Z" transform="translate(-20.79 -32.01)"/></g><g id="_Group_25" data-name="&lt;Group&gt;"><path id="_Path_60" data-name="&lt;Path&gt;" class="cls-15" d="M384.24,219.09c-5.65,1.32-7.23,3.85-7.56,12.88-.35,9.43.68,12.37,1.95,13.61.85.84,5.5.89,7.82.19,2.91-.87,9.48-3.37,12.47-8.18,3.52-5.65,4.31-13.23.34-16.24C393.67,217.11,386.54,218.55,384.24,219.09Z" transform="translate(-20.79 -32.01)"/></g></g><g id="_Group_26" data-name="&lt;Group&gt;"><g id="_Group_27" data-name="&lt;Group&gt;"><g id="_Group_28" data-name="&lt;Group&gt;"><path id="_Path_61" data-name="&lt;Path&gt;" class="cls-7" d="M376.75,221.44a11.51,11.51,0,0,0,5.25,4.19c1.08,1.23.49,6,2.39,6.81,0,0,.82-3.5,3.76-3.13s3.45,4.13,1.64,6.46-3.56,1.49-3.56,1.49.2,5,2.47,7.74c0,0,2.53.76,7.12-.33,2.82-.67,6.75-4.3,8.35-8.09,3.39-8,3.48-15.17-1.64-17.2-.63-3.65-3.55-5.22-6.85-5.9-7.1-1.46-11.69,3-17.15,2.58C375.39,215.83,374.81,218.11,376.75,221.44Z" transform="translate(-20.79 -32.01)"/></g></g><g id="_Group_29" data-name="&lt;Group&gt;"><g id="_Group_30" data-name="&lt;Group&gt;"><path id="_Path_62" data-name="&lt;Path&gt;" class="cls-7" d="M402.64,220.59l3.35-2.08a2,2,0,0,0-3.35,2.08Z" transform="translate(-20.79 -32.01)"/></g></g></g></g><path id="_Path_63" data-name="&lt;Path&gt;" class="cls-15" d="M336.84,275.37c1.76.78,22.44,16.07,25.67,14.29s19.77-21.11,19.77-21.11a13.35,13.35,0,0,0,0-14.5s-5.31,1-8.08,5.18-14.77,19.24-14.77,19.24q-4.44-2.22-8.85-4.51c-2.42-1.25-4.85-2.51-7.23-3.86a8.92,8.92,0,0,1-1.86-1.15c-1.17-1.16-1-4-.95-5.48a20.94,20.94,0,0,1,.1-2.13c.1-.87.27-3-1.3-2.32a2,2,0,0,0-.75.63,3.51,3.51,0,0,0-.56,1.07c-.29.92-.2,1.93-.47,2.85a.8.8,0,0,1-.19.37.68.68,0,0,1-.49.15c-2.28-.07-4.44-3.26-5.48-5a4.64,4.64,0,0,0-1.73-2c-1.25-.58-2.75.25-3.55,1.37a7.21,7.21,0,0,0-1.13,5,10,10,0,0,0,3,6.3A30.57,30.57,0,0,0,336.84,275.37Z" transform="translate(-20.79 -32.01)"/><path id="_Path_64" data-name="&lt;Path&gt;" class="cls-4" d="M384,253.42c-2.28.26-6.07.43-9.79,4.64C369.83,263,364.12,271,364.12,271a12.67,12.67,0,0,0,10,9.42s7.83-8,10-12.43S386.65,256.4,384,253.42Z" transform="translate(-20.79 -32.01)"/><path id="_Path_65" data-name="&lt;Path&gt;" class="cls-16" d="M384,253.42c-2.28.26-6.07.43-9.79,4.64C369.83,263,364.12,271,364.12,271a12.67,12.67,0,0,0,10,9.42s7.83-8,10-12.43S386.65,256.4,384,253.42Z" transform="translate(-20.79 -32.01)"/></g></g></svg>